<?xml version="1.0" encoding="utf-8"?>
<!-- Generator: Adobe Illustrator 24.2.3, SVG Export Plug-In . SVG Version: 6.00 Build 0)  -->
<svg version="1.1" id="Layer_1" xmlns="http://www.w3.org/2000/svg" xmlns:xlink="http://www.w3.org/1999/xlink" x="0px" y="0px"
	 viewBox="0 0 173 246" style="enable-background:new 0 0 173 246;" xml:space="preserve">
<style type="text/css">
	.st0{opacity:0.2;}
	.st1{fill-rule:evenodd;clip-rule:evenodd;fill:#443424;}
</style>
<g id="Designs">
	<g id="MPLS-Home" transform="translate(1.000000, -735.000000)">
		<g id="Two-Markets-One-Goal" transform="translate(-6.362542, 735.000000)">
			<g id="two-markets-veggie-background" transform="translate(6.000000, 0.000000)">
				<g id="Rectangle">
				</g>
				<g id="Markets-Veggie-Graphic">
					<g transform="translate(-262.646416, -65.949415)">
						
							<g id="Group-110" transform="translate(1225.849992, 765.949415) rotate(-27.000000) translate(-1225.849992, -765.949415) translate(1162.849992, 701.949415)" class="st0">
							<g id="Group-3">
								<g id="Clip-2">
								</g>
								<path id="Fill-1" class="st1" d="M-461.6-918.6c-0.1,0-0.1,0.1-0.2,0.1c0.1,0.2,0.3,0.4,0.4,0.7c0.1,0,0.1-0.1,0.2-0.1
									C-461.3-918.2-461.5-918.4-461.6-918.6 M-469.2-927.6c0.3-0.1,0.4-0.1,0.5-0.1s0.1-0.2,0.1-0.3c-0.1,0-0.3-0.1-0.3,0
									C-469-928-469.1-927.8-469.2-927.6 M-447.4-897.9c-0.1,0.1-0.1,0.1-0.2,0.2c0.2,0.2,0.3,0.3,0.5,0.5l0.1-0.1
									C-447.1-897.5-447.2-897.7-447.4-897.9 M-467.2-926.8c-0.3-0.1-0.4-0.1-0.6-0.1c0,0-0.1,0.2-0.1,0.3
									c0.1,0.1,0.2,0.2,0.3,0.2C-467.5-926.5-467.4-926.7-467.2-926.8 M-511.7-888.7c0.2,0,0.3,0,0.3,0c0-0.3,0-0.5,0-0.8
									c-0.1,0-0.2,0-0.3,0C-511.7-889.2-511.7-888.9-511.7-888.7 M-458.4-914.2c-0.1,0.1-0.2,0.1-0.2,0.2c0.2,0.2,0.5,0.5,0.7,0.7
									C-458-913.7-458-914.1-458.4-914.2 M-444.6-889.1v-0.2c-0.4,0.1-0.8,0.1-1.2,0.2c0,0.1,0,0.1,0,0.2
									C-445.4-889-445-889.1-444.6-889.1 M-456.2-911c-0.3-0.3-0.5-0.7-0.7-1C-457-911.5-456.9-911.1-456.2-911 M-498.3-867.4
									c0.4,0.5,0.6,1,1.1,1.3C-497-867-497.6-867.2-498.3-867.4 M-462.7-920.7c-0.1,1.1-0.1,1.1,0.7,1.4
									C-462.2-919.7-462.4-920.1-462.7-920.7 M-470-923.1c0.5-0.5,0.7-1.1,0.5-1.8C-470.6-924.1-470.7-923.7-470-923.1
									 M-488.9-921.3c-0.3,0.3-0.6,0.7-0.3,1c0.2,0.2,0.6,0.2,0.8,0.2c0.1,0,0.4-0.4,0.4-0.5C-488-921.2-488.5-921.1-488.9-921.3
									 M-471.1-927.7c-0.1-0.1-0.2-0.1-0.2-0.2c-1,0.7-1.6,1.7-2,3.1C-472.5-925.9-471.8-926.8-471.1-927.7 M-474.2-926.6
									c0.4-0.3,0.8-0.7,1.2-1c0.4-0.4,0.9-0.7,0.7-1.5C-473.3-928.5-473.7-927.5-474.2-926.6 M-508.8-881.4
									c0.1-1.2-0.2-1.7-1.3-2.5C-509.7-882.9-509.7-882-508.8-881.4 M-471.8-929.9c0.5,0.6,1.5,0.4,1.4,1.5
									c0.4-0.2,0.6-0.4,0.8-0.5C-470.5-930.3-471.1-930.5-471.8-929.9 M-471.8-924.1c1.9-2,1.9-2,1.7-2.8
									C-471.1-926.3-471.8-925.5-471.8-924.1 M-446.5-896.9c-0.7,0.6-0.7,0.6-0.1,1.6c0.4,0.7,0.4,0.7,1.1,0.5
									c0,0,0.1-0.1,0.2-0.3C-445.7-895.6-446.1-896.3-446.5-896.9 M-448.9-865.2c0.4,0.5,0.8,0.7,1.2,0.8c0.5,0.1,1.1,0.2,1.5,0.5
									c0.8,0.4,1.4,0.2,2.2,0C-445.3-864.7-447.7-865.3-448.9-865.2 M-440.6-883.1c0-0.1,0-0.2,0-0.3c-0.2,0-0.4,0-0.6,0
									c-1.1,0-2.3,0.1-3.4,0.1c-0.7,0-1.4,0.1-2.1,0.2c-0.2,0-0.5,0.2-0.5,0.4c-0.1,0.4,0.2,0.5,0.6,0.5c0.1,0,0.1,0,0.2,0
									C-444.5-882.5-442.6-882.8-440.6-883.1 M-473.8-930.5c-1.1,1.8-2.3,3.4-3.2,5.3c0.3,0,0.6,0,0.7-0.2c1-1.5,2-3,3-4.5
									C-473.4-930.2-473.6-930.3-473.8-930.5 M-439.7-888c-0.2-0.4-0.4-0.8-1-0.6s-1.2,0.3-1.9,0.4c-1.8,0.2-3.7,0.3-5.5,0.4
									c-0.1,0-0.2,0.1-0.3,0.2c0.8,0.3,1.6,0.5,2.4,0.4c2-0.2,3.9-0.4,5.8-0.7C-440.1-887.9-439.9-887.9-439.7-888 M-480-925.1
									c0.8,0.1,1.2,0.1,1.6-0.4c1.2-1.8,2.4-3.5,3.5-5.3c0.3-0.5,0.2-0.7-0.7-1C-477-929.6-478.4-927.4-480-925.1 M-483.2-923.6
									c0.9-0.2,1.4-0.6,1.8-1.1c1.5-1.9,2.8-3.9,4.1-6c0.3-0.4,0.5-0.9,0.7-1.3c0.2-0.3,0-0.6-0.3-0.7c-0.2-0.1-0.4,0.1-0.6,0.2
									c-0.1,0-0.1,0.2-0.2,0.3c-1.5,2.3-3,4.6-4.4,6.9C-482.4-924.9-482.7-924.3-483.2-923.6 M-485.1-936.3
									c-0.8-0.1-1.3,0.3-1.6,1c-0.4,0.9-1,1.7-1.4,2.6c-0.8,1.9-1.5,3.7-2.2,5.6c-0.2,0.6-0.3,1.3-0.5,1.9c0.1,0,0.2,0.1,0.3,0.1
									c0.7-0.8,0.8-1.8,1.3-2.7s0.9-1.9,1.3-2.8c0.4-0.9,0.8-1.9,1.3-2.8C-486.1-934.5-485.6-935.4-485.1-936.3 M-447.9-886
									c0,0.1,0,0.1,0,0.2c0.1,0,0.3,0.1,0.4,0.1c1.9-0.1,3.8-0.3,5.7-0.5c0.6-0.1,1.3-0.2,1.9-0.2c0.2,0,0.4,0.2,0.5,0.4
									c0,0.1-0.1,0.4-0.3,0.5c-0.2,0.1-0.5,0.2-0.8,0.2c-1.2,0.1-2.5,0.2-3.7,0.3c-0.9,0.1-1.9,0.1-2.8,0.2
									c-0.2,0-0.3,0.3-0.5,0.4c0.2,0.1,0.4,0.3,0.6,0.3c0.7,0,1.5-0.1,2.2-0.1c1.9,0,3.7,0,5.6-0.3c0.5-0.1,1-0.2,1.6-0.4
									c-0.3-0.6-0.5-1-0.7-1.4c-0.3-0.6-0.7-0.9-1.5-0.8c-1.1,0.2-2.3,0.3-3.4,0.5C-444.7-886.3-446.3-886.1-447.9-886
									 M-438.8-883.6c0,0.1,0,0.1,0,0.2c0.3,0.1,0.7,0.1,1,0.3c0.2,0.1,0.3,0.3,0.3,0.5c0,0.1-0.3,0.3-0.4,0.4
									c-0.3,0.1-0.7,0-1.1,0.1c-0.8,0.1-1.7,0.2-2.5,0.3c-0.4,0-0.7,0.1-1.1,0.1c-1.5,0.2-3,0.4-4.5,0.5c-0.7,0.1-0.7,0.4-0.6,1
									c0.6,0,1.1-0.1,1.6,0c1.8,0,3.6,0,5.3-0.5c1.2-0.3,2.5-0.4,3.8-0.2c0.3,0,0.6,0,1.1,0c-0.4-1-0.7-1.9-1.1-2.7
									C-437.7-883.7-438.2-883.6-438.8-883.6 M-484.3-936.6c-0.1,0.5-0.2,0.9-0.3,1.2c-1.1,2.3-2.3,4.5-3.3,6.8
									c-0.6,1.3-1.1,2.7-1.6,4.1c-0.2,0.5-0.3,1,0.4,1.3c0.2-0.2,0.4-0.4,0.5-0.7c0.8-1.6,1.6-3.2,2.3-4.7
									c1.2-2.3,2.3-4.5,3.5-6.8c0.2-0.3,0.2-0.6,0.4-1C-483.2-936.4-483.7-936.5-484.3-936.6 M-448.5-878.6
									c0.3,0.1,0.5,0.2,0.8,0.2c1.1,0.1,2.3,0.2,3.4,0.3c1.8,0.2,3.6,0.1,5.5-0.1c1-0.1,2-0.2,3-0.2c0.2,0,0.4-0.1,0.6-0.2
									c-0.1-1.2-0.2-1.4-1.2-1.5c-0.7-0.1-1.4-0.1-2,0c-3,0.3-6,0.9-9.1,0.6C-448.3-879.6-448.5-879.3-448.5-878.6 M-479.7-935.5
									c-1.3-0.6-1.5-0.6-2.2,0.3c-0.3,0.4-0.5,0.8-0.8,1.2c-1.6,3-3.2,6-4.7,9.1c-0.3,0.6-0.6,1.3-0.9,2c-0.1,0.2,0,0.7,0.2,0.7
									c0.3,0.1,0.6,0,0.9-0.1c0.1,0,0.2-0.3,0.3-0.4c1-1.9,2-3.9,3.1-5.8c1-1.8,2-3.6,3-5.3C-480.6-934.4-480.1-934.9-479.7-935.5
									 M-450.1-874.3c0.2,0,0.4,0,0.6,0c3.4,0.8,6.8,1.3,10.3,1.4c1.1,0,2.2,0.2,3.3,0.2c0.8,0,1-0.3,0.8-1
									c-0.1-0.5-0.4-0.8-1-0.8c-0.9,0-1.7-0.1-2.6-0.1c-3.4,0-6.9-0.1-10.3-0.7C-449.6-875.4-449.6-875.3-450.1-874.3
									 M-477.1-934.2c-0.5-0.3-0.9-0.6-1.2-0.8c-0.3-0.2-0.6-0.1-0.9,0.2c-0.1,0.2-0.3,0.3-0.4,0.5c-2,3.5-4,7.1-6,10.6
									c-0.2,0.4-0.3,0.8-0.5,1.3c0.7,0,1.1,0,1.3-0.6c0.1-0.3,0.3-0.5,0.5-0.7c0.5-0.6,1-1.2,1.5-1.9c1.5-2.3,3-4.5,4.5-6.8
									c0.2-0.3,0.2-0.8,0.4-1.2C-477.9-933.8-477.5-934-477.1-934.2 M-449.8-876.6c1.3,0.8,2.8,0.8,4.2,0.9
									c2.3,0.2,4.6,0.1,6.9,0.2c1.2,0,2.3,0.2,3.6,0.3c0-0.8,0-1.5-0.1-2.3c-1.1,0.1-2,0.1-2.9,0.2c-3.5,0.5-6.9,0.1-10.3-0.4
									C-449.5-877.9-449.6-877.9-449.8-876.6 M-487.9-918.4c0.1,0.1,0.1,0.2,0.1,0.3c0.1,0.1,0.1,0.2,0.2,0.3
									c0.7,0.9,0.9,0.9,1.7,0.2c1-0.9,2.1-1.7,3.5-2.1c0.3-0.1,0.5-0.3,0.8-0.4c0.8-0.3,1.5-0.8,2.3-0.9c1-0.1,2-0.1,3,0.1
									c1.4,0.2,2.7,0.6,3.4,2c0.1,0.1,0.2,0.2,0.4,0.4c0.4-0.3,0.8-0.5,1.1-0.7c0.7-0.6,0.7-1.2-0.1-1.7c-2.6-1.9-5.5-2-8.5-1
									c-0.9,0.3-1.7,0.6-2.5,0.9c-0.9,0.4-1.9,0.6-2.6,1.5c-0.3,0.3-0.8,0.5-1.2,0.6C-487-919.1-487.5-918.9-487.9-918.4
									 M-435.3-871.8c-1.3-0.1-2.3-0.1-3.3-0.2c-2.2-0.2-4.4-0.3-6.6-0.6c-1.6-0.2-3.2-0.5-4.8-0.8c-0.3-0.1-0.7-0.1-1,0
									c-1,0.4-2,2.3-1.9,3.4c0,0.3,0.2,0.6,0.4,0.7c0.9,0.5,1.2,1.2,0.7,2.2c0.3,0.1,0.5,0.2,0.8,0.2c0.6,0,1.1-0.1,1.7,0.1
									c2.1,0.6,4.1,1.2,6.2,1.8c0.4,0.1,0.8,0.2,1.1,0.1c0.8-0.3,1.7-0.5,2.2-1.3c0.1-0.2,0.4-0.4,0.7-0.5c0.6-0.3,1-0.7,1.3-1.2
									c0.3-0.4,0.6-0.7,0.9-1.1C-436.3-869.7-435.9-870.7-435.3-871.8 M-475.8-900l-0.1-0.3c0.2-0.1,0.4-0.3,0.6-0.4
									c2-0.9,3.9-1.8,5.9-2.6c2.7-1.1,5.3-2.2,7.8-3.6c1.1-0.7,2.2-1.3,3.3-2c0.5-0.3,0.9-0.8,1.3-1.2c-0.2-0.3-0.3-0.6-0.4-0.8
									c-0.5-0.8-0.6-0.8-1.3-0.3c-4.5,2.9-9.4,5-14.2,7.1c-0.2,0.1-0.5,0.1-0.8,0.2c0.1-0.2,0.2-0.3,0.3-0.4
									c1.6-0.7,3.2-1.5,4.8-2.2c0.3-0.1,0.5-0.2,0.8-0.4c0.7-0.4,1.4-0.9,2.2-1.2c2.2-1,4.4-2.3,6.4-3.7c0.3-0.2,0.5-0.4,0.8-0.6
									c-1-1.2-1-1.2-2.1-0.7c-2.9,1.4-5.7,2.9-8.5,4.3c-0.7,0.3-1.4,0.6-2,0.9c-0.5,0.2-1,0.4-1.5,0.7c-2.7,1.8-5.4,3.7-8.1,5.5
									c-0.3,0.2-0.5,0.3-0.8,0.5c0.1-0.4,0.3-0.6,0.5-0.7c1.2-0.8,2.3-1.5,3.5-2.3c2.8-1.9,5.6-3.8,8.4-5.7
									c0.3-0.2,0.8-0.4,1.2-0.5c0.3-0.1,0.7-0.2,1-0.3c1.8-0.9,3.5-1.7,5.3-2.6c0.5-0.2,0.9-0.5,1.3-0.7c-0.6-0.9-1.1-1.6-1.7-2.4
									c-0.9,0.5-1.8,1-2.7,1.5s-1.7,1.2-2.8,1.4c0-0.6,0.4-0.8,0.7-1c1.3-0.8,2.5-1.6,3.8-2.4c0.1-0.1,0.3-0.1,0.4-0.2
									c0.1-0.1,0.1-0.3,0.1-0.5c-0.1-0.1-0.3-0.3-0.4-0.2c-0.2,0-0.4,0.1-0.6,0.2c-0.9,0.5-1.7,1-2.6,1.5c-0.3,0.2-0.6,0.5-1,0.2
									c0.3-0.7,0.3-0.7,0.9-1c0.8-0.5,1.5-1,2.3-1.4c0.7-0.4,0.7-0.6,0.1-1.4c-2,1.4-3.9,2.8-6,4.3c-0.2-0.2-0.4-0.4-0.6-0.7
									c-0.3,0.3-0.6,0.5-0.9,0.8c-0.8,0.7-1.6,1.4-2.4,1.9c-3.3,1.9-6.5,3.8-9.9,5.5c-3.5,1.7-6.5,4-9.6,6.3
									c-0.5,0.3-0.9,0.7-1.4,1c-0.1-0.1-0.1-0.1-0.1-0.2c0.2-0.2,0.5-0.5,0.7-0.7c1.2-1,2.3-2,3.6-2.9c1.1-0.9,2.2-1.8,3.4-2.5
									c3.3-1.9,6.6-3.7,9.9-5.4c2-1.1,3.9-2.1,5.5-3.7c0.7-0.7,1.5-1.2,2.6-1.2c0.6,0,1-0.2,1.5-0.6c0.6-0.4,1.1-0.8,1.6-1.2
									l1.8-1.4c0.4-0.3,0.4-0.7,0.2-1.1c-0.2-0.3-0.4-0.5-0.6-0.8c-0.1-0.2-0.3-0.6-0.2-0.8c0.4-1-0.3-1.4-0.9-2.2
									c-0.7,2.5-1.9,4.5-3.6,6.3c1.7-0.8,2.9-2.3,4.6-3.3c0,0.4,0.1,0.6,0,0.7c-0.1,0.2-0.3,0.5-0.5,0.7c-1.5,1-2.9,2.1-4.4,3
									c-0.2,0.1-0.6,0.3-0.8,0.2c-0.4-0.3-0.6,0-0.8,0.2c-0.8,0.6-1.6,1.3-2.4,1.8c-3.4,2.1-6.7,4.1-10.1,6.1
									c-4.1,2.4-8.1,4.9-11.6,8.1c-1.8,1.7-3.8,3.2-5.8,4.7c-1.9,1.4-3.8,2.8-5.9,4c-1.3,0.8-2.7,1.3-4.1,1.9
									c-0.2,0.1-0.6,0.1-0.5,0.7c0.4-0.2,0.8-0.3,1.2-0.5c1.5-0.6,3-1.2,4.5-1.9c0.2-0.1,0.4,0,0.6-0.1c-0.1,0.2-0.1,0.3-0.2,0.4
									c-1.4,0.8-2.8,1.6-4.3,2.4c0,0.4,0.1,0.9,0.1,1.4c2.1-0.8,4-1.9,6.2-2.2c-0.3,0.7-0.9,0.8-1.4,1c-1.3,0.6-2.6,1.1-3.9,1.7
									c-0.9,0.4-0.9,1.1-0.1,2c0.6-0.3,1.2-0.6,1.8-0.9c0.6-0.3,1-0.9,1.9-0.7c-0.7,1.5-2.5,1.5-3.4,2.7c0.2,0.4,0.4,0.8,0.6,1.3
									c0.4-0.3,0.8-0.6,1.1-0.9c1.4-1.3,2.8-2.7,4.2-4c2.4-2.2,5-4.3,7.8-5.8c2.1-1.1,4.3-2,6.4-3.1c0.7-0.3,1.3-0.7,2-1
									s1.4-0.6,2.2-0.8c0.4-0.1,0.8-0.1,1.2-0.2c0.6-0.2,1.2-0.5,1.8-0.7c2-0.7,4-1.4,6-2.2c1.7-0.7,3.3-1.6,4.9-2.4
									c0.3-0.2,0.7-0.3,1-0.5c0,0.1,0.1,0.2,0.1,0.2c-0.4,0.2-0.7,0.5-1.1,0.7c-1.5,0.7-2.9,1.5-4.5,2.2
									c-4.5,1.8-9.1,3.6-13.6,5.4c-3.5,1.3-6.7,3-9.7,5.3c-2.9,2.2-5.7,4.7-8.3,7.3c-0.3,0.3-0.6,0.7-0.9,1.1c0.3,0,0.5,0,0.7-0.2
									c0.9-0.6,1.7-1.1,2.6-1.7c0.8-0.5,1.6-0.9,2.5-1.3c0.4-0.2,1-0.5,1.6,0.1c-1.4,1-2.9,1.6-4.3,2.5c-1.3,0.9-2.8,1.8-4.2,2.7
									c0.2,0.5,0.4,1,0.6,1.5c0.5,1.2,0.9,2.4,1.4,3.6c0.7,1.5,1.2,3.1,2.5,4.2c1.2,1,2.3,2,3.5,3c0.3,0.3,0.6,0.2,1.1-0.1
									c-1.8-0.9-1.9-2.8-2.9-4.2c-0.6,0.3-1,0.5-1.4,0.7c-0.2,0.1-0.5-0.1-0.6-0.3c-0.1-0.1,0-0.4,0.2-0.5
									c0.2-0.2,0.4-0.3,0.7-0.4c0.6-0.2,0.9-0.6,0.6-1.3c0-0.1-0.1-0.2,0-0.3c0-0.2,0.1-0.4,0.2-0.4c0.2,0,0.4,0,0.5,0.2
									c0.2,0.2,0.4,0.5,0.5,0.8c0.9,0.1,1.5-0.8,2.4-0.7c-0.2,0.8-0.8,1-1.3,1.3c-0.6,0.5-0.7,0.5-0.4,1.3c0.2,0.5,0.4,1,0.7,1.5
									c0.5,1.1,1.6,1.5,2.6,2c0.7,0.4,1.4,0,2.1-0.2c1-0.3,2-0.8,3-1.1c2.7-0.9,5.2-2.1,8-2.9c1.1-0.3,2.2-0.9,3.3-1.3
									c0.4-0.2,0.4-0.2,1.2-0.1c-1,0.7-2.1,1.2-3.2,1.7c-1.1,0.4-2.2,0.8-3.3,1.3c-1.1,0.4-2.1,0.9-3.2,1.3
									c-1.1,0.4-2.2,0.8-3.3,1.3c-1,0.5-2.2,0.6-3.2,1.2c0.8,1.4,1.9,1,2.9,0.5c0.2-0.1,0.4-0.2,0.6-0.3c1.8-0.8,3.5-1.6,5.3-2.3
									c2.4-0.9,4.9-1.7,7.3-2.5c0.3-0.1,0.5-0.1,0.8-0.2c0,0.1,0.1,0.2,0.1,0.2c-1.5,1.2-3.5,1.5-5.2,2.3
									c-1.8,0.8-3.6,1.5-5.5,2.3c-1.8,0.8-3.5,1.6-5.3,2.4c0.1,0.3,0.1,0.4,0.2,0.5c0.9,0.9,1.7,1.8,2.6,2.7
									c0.5,0.5,0.8,0.4,1.4,0c0.2-0.1,0.4-0.3,0.6-0.4c1.9-0.8,3.5-1.9,5.1-3.2c0.5-0.4,1.1-0.7,1.6-1c0.2-0.1,0.4,0,0.7,0.1
									c-0.1,0.3-0.2,0.5-0.3,0.6c-1.5,1.4-2.9,2.8-4.8,3.8c-0.8,0.4-1.5,0.9-2.2,1.4c-0.5,0.4-1,0.5-1.6,0.4
									c-0.9-0.2-1.6-0.6-2-1.4c0.5,1.3,2,2.9,3.1,3.4c0.6,0.3,1.1,0.2,1.5-0.4c1.3-2,3.1-3.4,4.9-4.8c2.2-1.7,4.5-3.3,6.9-4.8
									c2-1.3,4.1-2.5,6.1-3.8c2.6-1.7,5.3-3.2,7.6-5.3c0.9-0.8,1.8-1.7,2.7-2.5c1.4-1.2,2.9-2.2,4.4-3.3c0.2-0.2,0.6-0.3,0.5-0.8
									c-0.4,0.2-0.8,0.4-1.2,0.6c-1.3,0.7-2.5,1.5-3.8,2.1c-1.6,0.7-3,1.7-4.4,2.7c-1.4,1.1-2.8,2.3-4.3,3.3
									c-1.6,1.1-3.3,2.2-4.9,3.3c-1.5,0.9-2.8,2.1-4.6,2.6c-0.2,0-0.3,0.2-0.5,0.3c-0.7,0.4-1.4,0.8-2.1,1.1
									c-1.4,0.7-2.8,1.3-4.2,1.9c-1.7,0.7-3.5,1.3-5.2,1.9c-0.2,0.1-0.4,0-0.6,0c0.2-0.3,0.4-0.5,0.6-0.5c0.3-0.1,0.7-0.1,1-0.3
									c1.5-0.7,3-1.5,4.5-2.1c1.8-0.8,3.6-1.5,5.4-2.3c0.4-0.2,0.9-0.3,1.3-0.6c1.7-1.2,3.4-2.3,5.1-3.5c1.8-1.3,3.6-2.7,5.4-4
									c1.1-0.8,2.2-1.6,3.3-2.4c1.2-0.9,2.4-1.5,3.7-2.1c2.1-1,4-2.4,6.2-3.3c0.3-0.1,0.6-0.5,0.9-0.8c0.8-0.6,1.1-1.6,2.2-2
									c1.7-0.7,3.2-1.7,4.7-2.5c0.2-0.1,0.4-0.2,0.6-0.4c-1.9,0.3-3.7,0.7-5.4,1.5c-2.6,1.2-5.1,2.5-7.6,3.7c-3,1.5-6,3-8.7,5.1
									c-0.1,0.1-0.3,0.2-0.8,0.3c0.2-0.4,0.3-0.5,0.4-0.6c1-1.2,2.3-2,3.7-2.8c3.3-1.8,6.6-3.5,9.9-5.2c2.7-1.4,5.6-2.5,8.6-2.9
									c0.3,0,0.6-0.1,0.8,0c0.7,0.4,1.2,0.1,1.7-0.3c-0.2-1.3-0.3-1.4-1.2-1.1c0,0.3-0.1,0.5-0.1,0.9c-0.3-0.1-0.6-0.1-0.7-0.3
									c-0.3-0.4-0.6-0.3-1-0.2c-0.6,0.2-1.2,0.3-1.8,0.6c-3.8,1.5-7.6,3.1-11.3,4.6c-0.3,0.1-0.7,0.2-1,0.4c0-0.1-0.1-0.2-0.1-0.3
									c4.8-2.2,9.3-5,14.7-6.2c-0.3-0.6-0.5-1.1-0.8-1.5c-0.2-0.4-0.5-0.5-0.9-0.4c-0.9,0.3-1.9,0.5-2.7,0.9
									c-2.8,1.3-5.6,2.8-8.4,4.1c-0.2,0.1-0.5,0.2-0.8,0.3c0.4-0.8,2.5-2.1,5.8-3.7c2-1,4-2.3,6.4-2.6c-0.3-0.8-0.5-1.4-0.8-2.1
									c-4,1.2-7.6,2.7-11,5c0-0.3,0-0.6,0.2-0.7c0.9-0.6,1.7-1.4,2.6-1.8c1.8-0.9,3.6-1.8,5.5-2.5c0.9-0.3,1.6-0.7,2-1.6
									c-0.7-1-0.7-1-1.7-0.6c-2.5,0.9-4.9,2.2-7.2,3.6c-0.3,0.2-0.5,0.4-1.1,0c1.4-1,2.7-1.8,4.1-2.5c1.4-0.8,2.9-1.5,4.4-2.2
									c-0.3-0.5-0.6-0.2-0.9,0c-1.6,0.7-3.1,1.5-4.6,2.3c-0.3,0.1-0.6,0.5-1,0.1c0-0.6,0.5-0.6,0.9-0.8c1.2-0.6,2.5-1.2,3.7-1.8
									c0.4-0.2,0.7-0.4,1-0.6c0.1-0.7-0.9-1-0.4-1.9c0.3,0.2,0.6,0.3,0.9,0.5c1,1.1,2,2.3,3,3.5c0.5,0.7,1,1,1.9,0.7
									c0.3-0.1,0.7,0,0.9,0.2c0.5,0.6,0.9,1.3,1.2,2c0.2,0.4,0.1,0.8-0.5,1c-0.3-0.6-0.7-1.2-1-1.8c-0.2-0.4-0.5-0.5-0.8-0.3
									c0.8,1.2,1.6,2.4,2.4,3.6c0.3,0.5,0.7,0.9,0.9,1.2c0.1,0.7,0.2,1.3,0.3,2c0.5-0.1,0.9-0.2,1.3-0.3c0.8-0.3,0.8-0.4,1.2,0.3
									c0.3,0.5,0.5,1.1,0.9,1.3c0.6,0.3,0.8,0.8,1.1,1.2c0.6,0.9,1.2,1.9,2,2.7c1.3,1.2,2.1,2.5,2.5,4.1c0.3,1.2,0.5,2.5,0.8,3.7
									c0.9,3.7,1,7.3-1.2,10.6c-1,1.5-1.8,3.2-3.6,4c-0.2,0.1-0.4,0.3-0.6,0.5c-0.3,0.2-0.5,0.5-0.8,0.7c-1.5,0.7-3,1.6-4.7,1.6
									c-0.3,0-0.8-0.1-0.8,0.4s0.4,0.5,0.8,0.5c0.2,0,0.4,0,0.5,0c1.6,0.1,3.2,0.2,4.8,0.4c0.3,0,0.6,0.1,1,0.2
									c-0.6,0.5-0.6,0.5-1.2,0.5c-2.6,0-5.3-0.1-7.9-0.8c-1.5-0.4-2.9-1.1-4.3-1.9c-0.2-0.1-0.5-0.3-0.7-0.5
									c-0.4-0.4-0.4-0.7,0.3-1.1c0.7,1,1.2,1.3,2.2,1.6c0.7,0.2,0.7,0.2,1.2-0.6c-0.4-0.3-0.7-0.6-1.1-0.8c-2.1-1-3.4-2.8-4.6-4.7
									c-0.3-0.4-0.4-0.8,0.1-1.1c0.2-0.2,0.3-0.5,0.4-0.7c0.3-1.1,0.7-2,1.5-2.8c0.3-0.3,0.6-0.6,0.9-0.9c0.4-0.4,0.8-0.7,0.4-1.4
									c-0.1-0.1,0-0.3,0-0.4c0.6-0.9,0.3-2.2,1.1-3c0.1-0.1,0.1-0.3,0.1-0.4c-0.4-0.7,0-1.2,0.6-1.6c-0.2-0.8-0.4-1.5-0.6-2.3
									c0.6-0.9,0.6-2,0-3.4c-0.3,0.2-0.7,0.4-1,0.6c-0.5,0.3-0.7,0.8-0.4,1.4c0.2,0.5,0.3,1,0.4,1.5c0.2,0.8,0.3,1.6-0.1,2.3
									c-0.6,1.1-1,2.4-2,3.3c-0.5,0.4-0.9,0.9-1.3,1.4c-0.3,0.3-0.6,0.7-0.6,1.1c-0.1,0.7-0.1,1.4-0.1,2.1c0,0.3,0.1,0.6,0.1,1
									c0,0.2-0.2,0.5-0.4,0.5c-0.1,0.1-0.4-0.1-0.5-0.2c-0.2-0.2-0.3-0.5-0.3-0.8c-0.1-0.6-0.1-1.2-0.1-1.8
									c0.1-1.3,0.3-2.6,1.6-3.3c0.2-0.1,0.4-0.4,0.5-0.6c0.5-0.7,0.9-1.4,1.4-2c0.9-1.1,0.6-2.3,0.2-3.5c-0.2-0.5-0.5-0.6-0.9-0.2
									c-0.6,0.5-1.1,0.9-1.6,1.5c-0.1,0.1-0.2,0.4-0.2,0.6c-0.1,2.7-1.2,5-2.3,7.4c-0.1,0.2-0.4,0.4-0.6,0.6
									c-0.1-0.1-0.2-0.1-0.2-0.2c0.1-1.2,1-2.2,1.2-3.4s0.8-2.3,0.7-3.9c-1.2,1-2.5,1.5-3,2.9c0,0.1-0.1,0.3-0.2,0.4
									c-1.1,1.1-1.3,2.6-1.6,4.1c-0.4,2,0.1,4,0.5,6c0.1,0.4,0.3,0.7,0.5,1.1c1.7,2.9,4,5.2,6.5,7.4c1.1,1,2.4,1.8,3.5,2.8
									c1.8,1.6,3.8,2.7,5.9,3.6c1.2,0.6,2.6,0.9,3.8,1.3c3.9,1.3,7.8,2.3,12,2.2c1.8,0,3.7,0,5.5-0.2s3.6-0.8,5.4-1.5
									c4.2-1.7,7.9-4,11.5-6.6c1.6-1.2,2.9-2.6,4.5-3.9c1.4-1.1,2.5-2.3,3.5-3.8c0.3-0.5,0.7-1.1,1.5-1.1c0.1,0,0.3-0.1,0.4-0.3
									c0.9-1.2,1.7-2.4,2.5-3.6c0.5-0.8,1-1.7,1.4-2.5c0.8-1.6,1.7-3.1,2.3-4.7c0.7-1.8,1.3-3.7,1.9-5.6c0.3-0.9,0.6-1.7,0.7-2.6
									c0.2-1.2,0.1-2.4,0.3-3.5c0.3-1.6,0.1-3.2-0.1-4.8c-0.2-1.4-0.4-2.8-0.6-4.3c-0.2-1.1-0.3-2.3-0.7-3.4c-0.9-3-2-6-2.9-9
									c-0.8-2.7-2.1-5.2-3.5-7.6c-1.5-2.6-3.3-5.1-4.9-7.7c-0.7-1.1-1.4-2.4-2.2-3.4c-1.7-2.2-3.5-4.3-5.2-6.5
									c-1.1-1.4-2.1-2.8-3.1-4.3c-0.8-1.2-1.4-2.5-2.2-3.7c-1.5-2.3-3-4.6-4.6-6.9c-0.8-1.2-1.5-2.4-2.4-3.5
									c-2.2-2.6-4.5-5.1-6.8-7.6c-1.1-1.2-2.2-2.3-3.9-2.9c-2.4-0.9-4.4-2.5-6.8-3.3c-0.1,0-0.1-0.1-0.2-0.1
									c-2.3-1.6-4.8-2.7-7.4-3.7c-3.9-1.5-7.8-2.6-12-2.7c-2.3-0.1-4.5,0-6.8,0c-0.1,0-0.2,0-0.3,0c-2.5,0.8-5.3,0.9-7.7,2.2
									c-2.4,1.3-4.9,2.2-7.3,3.3c-1.2,0.6-2.2,1.4-2.8,2.2c0.4-0.1,0.7-0.3,1-0.5c0.2-0.1,0.3-0.4,0.6-0.5
									c2.3-1.1,4.5-2.4,6.8-3.4c2.6-1.1,5.4-1.5,8.2-1.9c1.4-0.2,2.8,0.1,4.1-0.5h0.1c1.6,0.1,3.1,0.1,4.7,0.2
									c0.1,0,0.3,0.1,0.4,0.2c-0.9,0.1-1.7,0.1-2.6,0.1c-0.3,0-0.8,0-0.8,0.1c-0.1,0.8-0.8,0.6-1.2,0.5c-2.9-0.3-5.8,0.1-8.6,0.7
									c-1.6,0.3-3.1,0.8-4.6,1.4c-3.4,1.3-6.7,3-9.5,5.4c-0.4,0.3-0.7,0.2-0.9-0.1c-0.4,0.3-0.7,0.5-0.9,0.7
									c-3,2.6-5.2,5.8-7.3,9.1c-1,1.5-1.6,3.2-2.7,4.6c-0.4,0.5-0.7,1.1-0.8,1.7c-1,3.1-2.1,6.1-2.6,9.3c-0.4,2.7-0.6,5.5-0.4,8.3
									c0,0.2,0.1,0.3,0.2,0.7c0.3-1.1,0.5-2,0.7-2.8c0.3-1.7,0.9-3.3,1.5-4.8c0.1-0.3,0.2-0.8,0.7-0.8c0.1,0.1,0.1,0.2,0.1,0.2
									c0,0.2-0.1,0.4-0.2,0.6c-1.1,3-1.9,6-2.2,9.2c-0.1,1.3-0.1,2.5,0.7,3.6c0.1,0.1,0.1,0.2,0.1,0.3c-0.2,0.2-0.4,0.3-0.6,0.5
									c0.2,0.7,0.2,1.5,0.5,2.1c0.8,1.6,1.7,3.2,2.6,4.7c0.7,1.1,1.7,2.2,2.5,3.2c1.2,1.5,2.7,2.7,4.4,3.5
									c0.7,0.3,1.4,0.4,2.2,0.1c0.5-0.2,1.1-0.3,1.6-0.2c0.4,0.1,0.7,0,1-0.1c0.8-0.5,1.7-1,2.5-1.5c1.9-1.1,3.8-2.2,5.6-3.3
									c0.9-0.6,0.8-1.8-0.1-2.3c-1.4-0.8-3.1-1-4.6-0.5c-1.5,0.4-2.8,1.2-4.2,1.9c-0.5,0.3-1,0.7-1.4,1.1
									c-0.1,0.1-0.2,0.3-0.4,0.6c0.5,0.1,0.8,0.2,1.2,0.3c0.4,0.1,0.8,0,1.1,0.5c-0.3,0-0.4,0.1-0.6,0.1c-1.5,0-3-0.1-4.5-0.1
									c-0.8,0-1.5-0.3-2-0.9c-1.2-1.5-2.4-2.9-3.6-4.4c-0.3-0.4-0.5-0.9-0.7-1.5c-0.3-0.9-0.5-1.8-0.7-2.7c-0.1-0.6-0.1-1.1,0-1.7
									c0-0.1,0.3-0.3,0.6-0.4c0.1,0,0.3,0.3,0.4,0.4c0.1,0.5,0,1,0.1,1.4c0.4,1.7,0.8,3.4,2,4.8c0.9,1.1,1.8,2.2,2.7,3.3
									c0.4,0.4,0.8,0.8,1.6,0.6c-0.5-0.5-0.9-0.9-1.2-1.4c-1.2-1.8-2.2-3.7-2.8-5.7c-0.6-2.2-0.9-4.4-0.5-6.6
									c0.3-1.6,0.7-3.1,1.2-4.7c0.3-1,1-1.7,1.9-2.2c2.5-1.1,5.1-1.2,7.7-0.6c1.7,0.4,3.4,0.9,5,1.9c1,0.7,2,1.2,3,1.8
									c0.3,0.2,0.4,0.5,0.7,0.8c-0.8,0.3-1.2-0.1-1.6-0.4c-0.4-0.2-0.8-0.5-1.2-0.6c-0.1-0.1-0.4,0.1-0.7,0.3
									c0.3,0.2,0.3,0.3,0.5,0.4c0.6,0.3,1.2,0.5,1.7,1.1c0.2,0.3,0.6,0.4,1,0.1c0.2-0.2,0.5-0.4,0.8,0c-0.1,0.3-0.3,0.7-0.4,1.1
									c0.5,0.3,0.9,0.4,1.2-0.1c0.4-0.7,0.5-0.7,1.1-0.3c0.6,0.5,1.2,1,1.8,1.5c2,1.7,3.9,3.5,5.3,5.8c0.3,0.4,0.5,0.9,0.3,1.4
									c-0.1,0.3,0.1,0.6,0.1,0.9c0.5-0.1,0.8-0.2,1.1-0.2c0.6,1,1.2,1.9,1.7,2.8c0.3,0.6,0.5,1.3-0.1,1.9
									c-0.4,0.4-0.3,0.8-0.1,1.2c0.3,0.5,0.8,0.9,1.2,1.4c0.1,0.1,0.4,0.1,0.6,0.1c0-0.5,0-0.8,0-1.2c0.6-0.2,0.9,0,1.1,0.5
									c0.1,0.3,0.3,0.5,0.5,0.8s0.4,0.6,0.9,0.4c0.1,0,0.3,0.1,0.5,0.1c-0.1,0.4-0.3,0.9-0.1,1.2c0.3,0.7,0.7,1.3,0.2,2
									c0.4,0.7-0.2,1-0.7,1.4c-2.5,2.1-5.4,3.6-8.3,4.9c-2.8,1.3-5.6,2.4-8.4,3.6C-474-900.6-474.9-900.3-475.8-900 M-490.8-928
									c-0.3,0.1-0.7,0.2-0.5,0.7C-491.1-927.6-490.9-927.8-490.8-928c0.1-0.4,0-0.8,0.2-1.1c0.7-1.7,1.4-3.3,2.2-5
									c0.1-0.2,0.1-0.4,0.2-0.8c-1.2,1.3-2.7,4.8-2.8,6.2C-491.1-928.5-490.9-928.3-490.8-928 M-462.7-876.6c-1.4,1-2.6,2-3.9,2.8
									c-2.2,1.5-4.5,2.9-6.8,4.3c-4,2.5-8.1,5-11.7,8.1c-1.2,1-2.3,2.1-3.5,3c-0.5,0.4-0.5,1.2-1.3,1.2c-0.9,0-1.7-0.3-2.4-0.7
									c-1.3-0.7-2.1-1.9-2.9-3.1c-1.2-1.7-2.5-3.4-3.8-5.1c-0.4-0.5-0.9-0.9-1.6-1c-0.2,0-0.4-0.1-0.6-0.2
									c-1.3-1.1-2.5-2.1-3.8-3.2c-1.5-1.4-2.4-3.2-3.1-5.2c-0.6-1.8-1.4-3.5-2.2-5.2c-0.5-1.2-1-2.4-1.5-3.6
									c-0.8-1.7-1.2-3.6-1.7-5.4c-0.1-0.5-0.2-0.9-0.2-1.4c-0.1-0.8,0.3-1.1,1.1-1c0.3,0,0.7-0.1,1-0.2c2.8-1.2,5.3-2.9,7.7-4.6
									c3.2-2.3,6.1-5,9.2-7.5c1.3-1.1,2.8-2,4.2-3c0.9-0.6,1.8-1.1,2.6-1.7c0.2-0.1,0.4-0.3,0.6-0.6c-0.3-0.1-0.4-0.3-0.6-0.3
									c-1.7-0.7-3.3-1.6-4.6-3.1c-1.5-1.7-2.9-3.5-4.3-5.3c-0.7-0.9-1.2-2-1.6-3c-0.4-0.9-0.8-1.9-1-2.8c-0.6-3.2-1.2-6.4-1.2-9.7
									c0-2.2,0.4-4.4,0.6-6.6c0.2-2,1-3.9,1.4-5.8c0.1-0.5,0.4-1,0.7-1.5c0.1-0.3,0.3-0.5,0.3-0.8c0.2-1.9,1.2-3.3,2.2-4.8
									c0.3-0.5,0.6-0.9,0.8-1.4c0.8-1.9,2.2-3.4,3.4-5.1c0.2-0.4,0.5-0.7,0.7-1.1c0.4-0.5,0.8-1,1.2-1.5c0.7-0.8,1.4-1.6,2.2-2.3
									c1.8-1.6,3.6-3.2,5.5-4.7c1.3-1,2.8-1.7,4.3-2.5c1.4-0.8,2.9-1.7,4.4-2.3c1.5-0.7,2.9-1.3,4.6-1.3c0.9,0,1.9-0.1,2.7-0.4
									c0.8-0.3,1.6-0.2,2.4-0.2c1.9,0,3.8-0.2,5.7-0.1c2,0,3.9,0.1,5.8,0.8c0.7,0.2,1.4,0.3,2.1,0.5c1.3,0.4,2.6,0.8,3.9,1.2
									c1.6,0.6,3.2,1.1,4.7,1.8c1.2,0.6,2.4,1.3,3.6,2c0.6,0.3,1.2,0.7,1.8,0.8c1,0.2,1.9,0.5,2.7,1.1c1,0.7,2.1,1.3,3.2,2
									c1.8,1,3.3,2.3,4.7,3.9c1.8,2,3.8,4,5.4,6.1c1.7,2.1,3.2,4.5,4.8,6.7c1.2,1.7,2.2,3.5,3.4,5.2c1.1,1.8,2.1,3.6,3.3,5.3
									c1.3,1.8,2.7,3.6,4.1,5.3c0.6,0.8,1.3,1.4,1.9,2.2s1.2,1.7,1.8,2.6c0.5,0.8,1.1,1.5,1.6,2.3c0.7,1.2,1.4,2.3,2.1,3.5
									c0.5,0.8,0.9,1.6,1.4,2.3c1.6,2,2.5,4.4,3.6,6.7c0.8,1.8,1.4,3.7,2.1,5.5c0.5,1.5,0.9,3.1,1.4,4.6c0.8,2.3,1.1,4.7,1.4,7
									c0.1,1.2,0.6,2.4,0.7,3.7c0.1,1.1,0.1,2.1,0,3.2c0,0.9,0,1.9-0.2,2.8c-0.1,1-0.3,1.9-0.6,2.8c-0.6,2.1-1.3,4.1-2,6.1
									c-1.1,2.9-2.6,5.7-4.3,8.3c-1.3,2.1-2.9,3.9-4.7,5.5c-0.1,0.1-0.2,0.2-0.3,0.3c-1.3,1.8-3,3.3-4.5,4.9
									c-0.8,0.8-1.8,1.5-2.7,2.2c-3.1,2.5-6.5,4.3-10,6.1c-2.3,1.2-4.7,2.1-7.3,2.5c-0.5,0.1-1.1,0-1.7,0
									c-1.1,0.1-2.3,0.2-3.4,0.2c-4.4,0.1-8.6-0.6-12.7-2.1c-0.7-0.2-1.4-0.5-2.2-0.7c-2.1-0.5-3.9-1.7-5.8-2.7
									c-1.8-1-3.4-2.4-5.1-3.6c-0.6-0.4-1-0.9-1.5-1.4c-1-0.9-2-1.7-2.9-2.6c-0.7-0.7-1.3-1.4-1.9-2.2s-1.1-1.6-1.6-2.4
									c-0.1-0.2-0.3-0.4-0.4-0.7c-0.6-1.9-1.2-3.8-1.4-5.7c-0.1-1,0.2-2,0.3-3C-462.9-875.8-462.8-876.1-462.7-876.6"/>
							</g>
							<path id="Fill-4" class="st1" d="M-395-907.1c0.2,1,0.5,2,0.6,3c0.3,2.9,0.6,5.8,0.9,8.7c0.2,2,0.3,4.1,0.5,6.1
								c0,0.7,0,1.4,0,2.1c-0.1,1.6-0.1,3.2-0.3,4.8c-0.3,3.4-1.2,6.7-3.1,9.6c-0.4,0.7-1.1,1.3-1.6,2c-1.5,1.9-3.1,3.8-4.6,5.8
								c-1.6,2.2-3.8,3.7-5.9,5.4c-1.1,0.9-2.2,1.9-3.6,2.5c-1.1,0.5-2.1,1-3.2,1.5c-1.6,0.7-3.2,1.6-4.9,2.1
								c-2.9,0.9-5.9,1.6-9,1.8c-3.2,0.1-6.4-0.2-9.5-1.2c-2.1-0.7-4.2-1.3-6.1-2.3c-1.3-0.7-2.6-1.5-3.9-2.3c1,0.1,1.9,0.5,2.7,1
								c1.4,0.8,3,1.4,4.6,1.9c1.4,0.4,2.7,0.8,4.1,1.3c2.6,0.8,5.2,0.7,7.8,0.6c3.3-0.1,6.5-1,9.6-2c1.5-0.5,2.8-1.3,4.2-1.9
								c0.8-0.4,1.6-0.7,2.3-1.1c1-0.6,2.1-1.3,3-2c1.2-0.9,2.4-1.7,3.5-2.7c1-0.9,2-1.8,2.8-2.8c1.8-2.1,3.5-4.4,5.4-6.5
								c1.7-2,2.8-4.3,3.6-6.7c0.8-2.3,1-4.7,1.1-7c0.1-2,0.1-4.1,0.1-6.1c0-1.1-0.1-2.3-0.1-3.4c-0.1-2.1-0.2-4.1-0.4-6.2
								c-0.2-1.6-0.5-3.2-0.8-4.8c-0.1-0.4-0.1-0.7-0.2-1.1L-395-907.1z"/>
							<path id="Fill-6" class="st1" d="M-454.5-904.2c-0.3,0.6-0.8,0.9-1.4,1.2c-2.3,1.1-4.7,2.2-7,3.2c-0.6,0.3-1.2,0.6-1.9,0.9
								c0.4,0.5,0.1,0.8-0.3,1c-1.3,0.6-2.5,1.2-3.8,1.7c-2.5,1.1-5.1,2-7.5,3.2c-1.4,0.6-2.7,1.5-3.9,2.3c-2.9,1.8-5.6,3.9-8.1,6.1
								c-1.3,1.1-2.4,2.4-3.5,3.7c-1.9,2.1-4.1,3.9-6.4,5.5c-0.2,0.2-0.5,0.2-0.8,0.3c-0.5-0.7-0.5-0.8,0-1.1c1.9-1,3.3-2.5,4.7-3.9
								c1.5-1.5,2.9-3.1,4.4-4.6c1.4-1.3,2.9-2.4,4.3-3.6c2.2-1.8,4.6-3.3,7.1-4.8c1.6-0.9,3.3-1.5,4.9-2.2c1.7-0.7,3.4-1.4,5.2-2.1
								c0.6-0.3,1.3-0.5,1.9-0.8c0.4-0.2,0.8-0.3,1.2-0.8s1.1-0.7,1.7-1c2.7-1.3,5.4-2.7,8.1-4c0.3-0.1,0.6-0.3,0.9-0.4
								C-454.6-904.4-454.5-904.3-454.5-904.2"/>
							<path id="Fill-8" class="st1" d="M-459.1-900.8c-0.8,0.5-1.6,1-2.4,1.4c-3,1.5-5.9,3.2-8.6,5.1c-0.9,0.6-1.7,1.3-2.5,2
								c-1.1,0.9-2.3,1.8-3.4,2.8c-1.5,1.3-2.8,2.7-4.3,3.9c-3,2.6-6.2,4.9-9.7,6.8c-1.9,1-3.8,2.1-5.7,3.1
								c-0.2,0.1-0.4,0.2-0.7,0.3c-0.4,0.1-0.6,0-0.8-0.4c-0.1-0.3-0.1-0.7,0.2-0.8c0.4-0.2,0.9-0.3,1.3-0.6
								c2.4-1.3,4.7-2.6,7.1-3.9c3.1-1.8,5.8-4,8.5-6.3c0.9-0.8,1.7-1.6,2.6-2.4c0.9-0.7,1.8-1.4,2.7-2.1c1-0.8,2-1.6,3-2.4
								c1.8-1.5,3.8-2.6,6-3.5c0.5-0.2,1-0.6,1.5-0.8c0.3-0.2,0.6-0.4,0.9-0.5c1.2-0.5,2.3-1.1,3.5-1.6c0.2-0.1,0.5-0.1,0.7-0.2
								C-459.1-900.9-459.1-900.8-459.1-900.8"/>
							<path id="Fill-10" class="st1" d="M-402.6-923.2c-0.2-0.2-0.4-0.5-0.5-0.7c-1-1.7-2-3.3-3.3-4.8c-0.3-0.3-0.6-0.6-1-1
								c-2-2-3.8-4.1-5.4-6.4c-1.8-2.4-3.2-5.1-4.2-7.9c-0.4-1.2-1.1-2.2-1.7-3.3c-1-1.7-2-3.5-3.3-4.9c-1.7-1.8-3.5-3.6-5.3-5.4
								c-0.2-0.2-0.3-0.4-0.6-0.8c1,0.2,1.5,0.7,2,1.1c2,1.7,3.8,3.6,5.6,5.5c0.3,0.3,0.6,0.7,0.8,1c1.1,2,2.2,3.9,3.3,5.9
								c0.4,0.8,0.8,1.6,1.1,2.4c0.5,1.2,1.2,2.3,1.9,3.4c1,1.4,1.9,2.8,2.9,4.1c1.1,1.4,2.2,2.9,3.5,4.1c0.9,0.8,1.7,1.6,2.4,2.5
								c0.9,1.2,1.7,2.4,2.2,3.8C-402.2-924-402-923.5-402.6-923.2"/>
							<path id="Fill-16" class="st1" d="M-469-884.4c-0.2,0.2-0.3,0.3-0.4,0.4c-2.4,1.7-4.8,3.5-7.3,5.2c-3.2,2.1-6.6,3.7-10.1,5.2
								c-2.8,1.2-5.6,2.1-8.6,2.6c-0.3,0.1-0.6,0.1-1,0.1c-0.3,0-0.7,0-0.7-0.5c0-0.4,0.2-0.7,0.6-0.7c0.5,0,1.1-0.1,1.6-0.2
								c2.3-0.1,4.5-1,6.6-1.9c3.1-1.4,6.2-2.9,9.2-4.4c2.3-1.2,4.5-2.4,6.4-4.1c0.6-0.5,1.3-1,2-1.5
								C-470.1-884.4-469.7-884.7-469-884.4"/>
							<path id="Fill-18" class="st1" d="M-430.4-854.7c-0.3,0-0.6,0.1-0.9,0.1c-3.2-0.2-6.3-0.5-9.3-1.7c-0.9-0.3-1.8-0.5-2.7-0.7
								c-3.5-0.9-6.8-2.3-9.9-4.1c-0.5-0.3-0.8-0.7-1.2-1.1c-0.7-0.8-1.5-1.5-2.3-2.2c-0.7-0.7-1.3-1.4-1.9-2.1
								c-0.6-0.7-0.7-1.5-0.5-2.3c0-0.2,0.2-0.4,0.5-0.5c0,0.3,0.1,0.6,0.1,0.8c0,1.1,0.5,2,1.2,2.8c0.3,0.4,0.7,0.7,1.1,1
								c0.7,0.6,1.3,1.3,2,1.9c0.7,0.6,1.4,1.2,2.2,1.6c2.6,1.6,5.5,2.7,8.4,3.5c1.7,0.5,3.5,0.7,5.2,1.1c0.4,0.1,0.9,0,1,0.6
								c0,0.1,0.4,0.2,0.5,0.2c1.4,0.2,2.8,0.4,4.2,0.6c0.8,0.1,1.5,0.2,2.3,0.3C-430.4-854.9-430.4-854.8-430.4-854.7"/>
							<path id="Fill-20" class="st1" d="M-428.8-922c-0.9,1-2.2,0.9-3.2,1.6c0.1,1,0.1,1-0.9,1.4c-2.2,0.9-4.4,1.7-6.6,2.7
								c-0.8,0.3-1.7,0.6-2.1,1.6c-0.1,0.1-0.5,0.1-0.9,0.1c0-0.8,0.4-1.1,0.9-1.4c1.2-0.6,2.5-1.3,3.7-1.8c1.3-0.6,2.6-1.1,3.9-1.6
								c0.2-0.1,0.4-0.3,0.7-0.4c0-0.1,0-0.1-0.1-0.2c-0.7,0.2-1.4,0.4-2.1,0.7c-1.3,0.4-2.6,0.8-3.9,1.3c-0.5,0.2-0.9,0.5-1.4,0.7
								c-0.3-0.3-0.2-0.5,0.1-0.7c0.7-0.3,1.4-0.6,2.1-0.8c1-0.4,2.1-0.7,3.1-1.1c1.2-0.4,2.4-0.8,3.5-1.2c0.3-0.1,0.7-0.1,0.8-0.3
								C-430.4-922.4-429.6-922-428.8-922"/>
							<path id="Fill-22" class="st1" d="M-424.6-873.8c-0.1-0.5,0.2-0.6,0.5-0.7c1.1-0.5,2.2-1.1,3.3-1.5c3-1.2,6.1-2.3,9.2-3.4
								c2.4-0.8,4.9-1.6,7.4-2.3c0.7-0.2,1.4-0.2,2.2-0.1c-0.5,0.3-1,0.6-1.6,0.7c-4.3,1-8.3,2.6-12.4,4c-1.9,0.7-3.9,1.4-5.8,2.1
								c-0.7,0.3-1.4,0.6-2.1,0.9C-424.1-874-424.4-873.9-424.6-873.8"/>
							<path id="Fill-24" class="st1" d="M-406.6-923.5c0.6-0.1,0.8,0.1,1,0.4c0.2,0.3,0.4,0.5,0.5,0.8c1.3,2.3,3.1,4.3,4.1,6.8
								c0.8,1.9,1.5,3.7,2.2,5.6c0.5,1.4,0.9,2.9,1.2,4.4c0.5,2.2,0.9,4.3,1.3,6.5c0.1,0.3,0,0.7-0.1,1c-0.1-0.6-0.2-1.2-0.4-1.8
								c-0.5-2.4-1-4.8-1.7-7.2c-0.3-1.2-0.8-2.4-1.2-3.6c-0.2-0.6-0.3-1.1-0.5-1.7c-0.9-2.5-2.4-4.7-3.8-6.9
								c-0.3-0.5-0.5-1.1-0.8-1.6C-405.4-921.7-406-922.5-406.6-923.5"/>
							<path id="Fill-26" class="st1" d="M-424-859.9c0.3-0.2,0.6-0.4,1-0.5c3.1-1.3,6-3,8.7-5.2c1.6-1.3,3-2.8,4.2-4.5
								c0.6-0.9,1.2-1.8,1.8-2.7c0.1-0.2,0.3-0.3,0.6-0.7c-0.1,0.4-0.1,0.6-0.1,0.7c-1,1.6-1.9,3.2-2.9,4.7
								c-1.2,1.7-2.7,3.1-4.4,4.2c-1.7,1.1-3.2,2.5-5,3.3c-0.8,0.4-1.7,0.7-2.5,1c-0.3,0.1-0.7,0.1-1.1,0.1
								C-423.9-859.6-423.9-859.8-424-859.9"/>
							<path id="Fill-28" class="st1" d="M-425.7-871.1c0-0.8,0.4-1.1,0.9-1.3c2-0.8,4-1.6,6-2.3c2.7-0.9,5.5-1.6,8.3-2.3
								c0.5-0.1,1.1-0.2,1.6-0.2c0.2,0,0.4,0.1,0.6,0.2c-0.3,0.5-0.8,0.6-1.2,0.7c-2.2,0.6-4.5,1.1-6.7,1.7
								c-2.2,0.6-4.4,1.4-6.6,2.2c-0.7,0.2-1.3,0.6-1.9,0.9C-425.1-871.3-425.4-871.2-425.7-871.1"/>
							<path id="Fill-30" class="st1" d="M-426.7-877.1c0.2-0.1,0.4-0.2,0.6-0.3c1.4-0.4,2.8-0.9,4.1-1.3c1.2-0.4,2.4-0.9,3.7-1.4
								c3.4-1.4,6.9-2.8,10.3-4.2c1.7-0.7,3.3-1.2,5-1.8c0.5-0.2,1-0.3,1.5,0.2c-1.4,0.7-2.9,0.9-4.2,1.5c-1.4,0.6-2.8,1-4.2,1.6
								c-1.4,0.5-2.8,1.1-4.2,1.6c-1.4,0.5-2.8,1.1-4.2,1.5c-1.4,0.5-2.8,0.9-4.2,1.4c-1.4,0.5-2.8,0.9-4.2,1.4
								C-426.6-876.9-426.6-877-426.7-877.1"/>
							<path id="Fill-38" class="st1" d="M-421.9-883.5c1.1-0.4,2.2-0.8,3.3-1.2c1.6-0.5,3.3-1,4.9-1.8c1.1-0.5,2.2-0.9,3.3-1.4
								c2.5-1.1,4.9-2.2,7.4-3.3c0.5-0.2,1-0.5,1.6,0c-0.1,0.1-0.1,0.3-0.2,0.4C-408.3-888.2-414.8-885.1-421.9-883.5"/>
							<path id="Fill-42" class="st1" d="M-410.9-926.6c-0.3-0.2-0.6-0.4-0.8-0.6c-1.7-1.9-3.3-3.8-4.6-6c-1.3-2.3-2.7-4.6-4-6.9
								c-0.3-0.5-0.7-0.9-1-1.4c-0.1-0.1-0.2-0.3-0.2-0.5s0-0.4,0.1-0.7c0.2,0.1,0.6,0.1,0.7,0.2c0.4,0.6,0.7,1.3,1.1,1.9
								c1.2,2.1,2.4,4.3,3.6,6.4c0,0,0,0.1,0.1,0.1c1.1,2.5,3,4.5,4.7,6.5c0.2,0.2,0.4,0.5,0.6,0.7
								C-410.7-926.7-410.8-926.6-410.9-926.6"/>
							<path id="Fill-48" class="st1" d="M-403.5-910.6c-0.8-1.8-1.5-3.5-2.4-5.2s-1.7-3.5-2.7-5.1c-1.1-1.7-2.2-3.3-3.5-4.8
								c0.7-0.1,1,0.2,1.3,0.5c0.7,0.9,1.5,1.8,2.1,2.8c1.7,2.7,3,5.5,4.2,8.4c0.4,0.9,0.8,1.9,1.2,2.8c0.1,0.2,0.1,0.4,0.2,0.6
								H-403.5z"/>
							<path id="Fill-52" class="st1" d="M-416.7-920.3c-0.3-0.7-0.6-1.3-1-1.9c-1.5-2.5-3-5-4.5-7.5c-0.3-0.5-0.7-1-0.7-1.7
								c0.6,0,0.8,0.4,1.1,0.8c0.8,1.2,1.6,2.4,2.3,3.7c1,1.8,1.9,3.7,2.8,5.6C-416.4-921-416.2-920.7-416.7-920.3"/>
							<path id="Fill-60" class="st1" d="M-410.5-929.7c-2.3-1.2-9-13.1-8.8-15.4c0.5,0,0.6,0.4,0.7,0.7c1,3.7,2.8,7,4.8,10.1
								c0.9,1.4,2,2.8,3,4.1C-410.8-930-410.7-929.8-410.5-929.7"/>
							<path id="Fill-62" class="st1" d="M-416-871.4c-0.3,0.2-0.6,0.4-0.8,0.4c-2.4,0.6-4.7,1.5-7,2.5c-0.1,0-0.2,0.2-0.3,0.1
								c-0.2,0-0.4-0.1-0.6-0.2c0.1-0.2,0.2-0.5,0.3-0.6c1.4-0.6,2.8-1.2,4.3-1.8c0.6-0.3,1.2-0.5,1.8-0.7
								C-417.5-871.9-416.8-871.8-416-871.4"/>
							<path id="Fill-66" class="st1" d="M-423.8-928.6c0.2,0.2,0.5,0.3,0.6,0.5c1.7,2.8,3.4,5.6,5.1,8.4c0.2,0.4,0.6,0.7,0.7,1.3
								c-0.1-0.1-0.4-0.1-0.4-0.2c-1.1-1.5-2.1-2.9-3.1-4.4c-0.7-0.9-1.3-1.9-2-2.9c-0.5-0.8-1.1-1.6-1.2-2.5
								C-423.9-928.5-423.9-928.5-423.8-928.6"/>
							<path id="Fill-68" class="st1" d="M-426.6-891.9c-0.1-0.2-0.2-0.4-0.2-0.5s0.1-0.1,0.1-0.1c1-0.4,1.9-0.9,2.9-1.2
								c2.4-0.9,4.8-1.8,7.2-2.7c0.1,0.6-0.3,0.8-0.6,0.9c-1.1,0.5-2.3,0.9-3.4,1.4c-1.6,0.6-3.2,1.2-4.7,1.9
								C-425.8-892.2-426.2-892.1-426.6-891.9"/>
							<path id="Fill-70" class="st1" d="M-410-891.4c-1.6,0.4-3.3,0.9-4.9,1.3c-2.2,0.5-4.3,1.1-6.3,2.1c-0.2,0.1-0.3,0.2-0.5,0.2
								c-0.1,0-0.3-0.1-0.4-0.2c-0.1-0.1,0-0.3,0-0.4c0.2-0.2,0.4-0.3,0.7-0.4c1.5-0.6,3-1.3,4.6-1.8c1-0.3,2.1-0.3,3.2-0.5
								c0.4-0.1,0.9-0.2,1.3-0.3c0.7-0.3,1.4-0.4,2.2-0.2C-410-891.6-410-891.5-410-891.4"/>
							<path id="Fill-72" class="st1" d="M-430.2-915.9c-0.4,0.4-1.1,0.6-1.7,0.7c-1.2,0.3-2.5,0.5-3.7,0.8s-2.3,0.5-3.5,0.9
								c-0.4,0.1-0.7,0.4-1,0.6c-0.3,0.2-0.5,0.3-0.8,0c-0.2-0.3-0.1-0.6,0.2-0.7c1.2-0.4,2.4-0.8,3.6-1.1c2-0.5,4.1-0.9,6.1-1.4
								C-430.7-916.3-430.4-916.3-430.2-915.9"/>
							<path id="Fill-74" class="st1" d="M-415.5-893.7c-0.9,0.6-1.9,0.9-2.9,1.2c-1.6,0.5-3.2,0.9-4.7,1.5
								c-0.6,0.2-1.2,0.6-1.8,0.8c-0.5-0.6-0.5-0.8,0.1-1c2.3-0.7,4.6-1.5,7-2.2c0.7-0.2,1.5-0.4,2.3-0.5
								C-415.6-893.9-415.6-893.8-415.5-893.7"/>
							<path id="Fill-78" class="st1" d="M-465-902.3c0.1-0.1,0.2-0.3,0.3-0.4c3.1-1.3,5.8-3.3,9-4.4c0,0.1,0.1,0.1,0.1,0.2
								c-0.2,0.2-0.5,0.6-0.7,0.7c-0.6,0.4-1.2,0.7-1.8,1c-2.1,1-4.2,1.9-6.2,2.9c-0.1,0.1-0.3,0.1-0.5,0.2
								C-464.9-902.2-464.9-902.3-465-902.3"/>
							<path id="Fill-80" class="st1" d="M-426.9-913.7c-0.1,0.7-0.6,0.9-1,1.1c-1.3,0.4-2.6,0.8-4,1.2c-1.5,0.4-3,0.8-4.5,1.2
								c-0.1,0-0.3,0-0.5,0c0.4-0.4,1.9-1,3.2-1.4c1.1-0.3,2.3-0.6,3.4-0.9C-429.2-912.8-428.1-913.2-426.9-913.7"/>
							<path id="Fill-82" class="st1" d="M-425.3-909.8c0,0.5-0.3,0.6-0.6,0.8c-0.7,0.3-1.5,0.7-2.2,1c-1.9,0.7-3.7,1.4-5.6,2.1
								c-0.1,0.1-0.3,0-0.6,0.1c0.2-0.3,0.3-0.5,0.5-0.6c0.4-0.2,0.8-0.4,1.2-0.6c2.3-0.9,4.7-1.8,7-2.7
								C-425.5-909.8-425.4-909.8-425.3-909.8"/>
							<path id="Fill-86" class="st1" d="M-416-924.3c-2-3.7-4.1-7.3-6.2-11.2C-421.1-934.8-416.4-926.3-416-924.3"/>
							<path id="Fill-88" class="st1" d="M-422.6-863.2c-0.5,0.1-0.9,0.2-1.2,0.3c-1.1,0.2-2.2,0.4-3.4,0.6c-0.2,0-0.4,0.1-0.5,0.1
								c-0.2,0-0.4-0.1-0.5-0.2c-0.1-0.1,0-0.3,0.1-0.5c0-0.1,0.1-0.1,0.2-0.1c1.5-0.5,3.1-1,4.9-0.5
								C-423-863.5-423-863.4-422.6-863.2"/>
							<path id="Fill-90" class="st1" d="M-409.2-935.6c-2.9-2.8-5-6-7-9.2c0.1,0,0.1-0.1,0.2-0.1c1.1,1.5,2.2,3.1,3.4,4.6
								C-411.5-938.7-410.4-937.2-409.2-935.6"/>
							<path id="Fill-94" class="st1" d="M-425.7-865.8c-0.2-0.7,0.3-0.9,0.7-1c1.1-0.4,2.3-0.6,3.8,0c-0.2,0.2-0.3,0.4-0.5,0.4
								c-1.4-0.1-2.6,0.2-3.7,0.7C-425.4-865.7-425.5-865.8-425.7-865.8"/>
							<path id="Fill-96" class="st1" d="M-451.7-906.1c-0.3-0.1-0.5-0.1-0.6-0.2c-0.4-0.5-0.8-1-1.2-1.5c-0.2-0.3-0.1-0.6,0.1-0.8
								c0.3-0.2,0.5,0,0.7,0.2c0.3,0.3,0.6,0.6,0.9,0.9c0.2,0.2,0.3,0.5,0.4,0.8C-451.5-906.6-451.6-906.4-451.7-906.1"/>
							<path id="Fill-98" class="st1" d="M-449.6-901.7c-0.4-0.8-0.8-1.5-1.2-2.2c-0.1-0.1,0-0.4,0.1-0.4c0.1-0.1,0.4-0.2,0.5-0.1
								c0.6,0.3,0.8,0.9,1,1.4C-449.1-902.6-449-902.2-449.6-901.7"/>
							<path id="Fill-102" class="st1" d="M-394.7-908.1c-0.6-2-1.1-3.9-1.7-5.9c0.1,0,0.2-0.1,0.3-0.1c0.6,2,1.1,3.9,1.7,5.9
								C-394.6-908.1-394.6-908.1-394.7-908.1"/>
							<path id="Fill-106" class="st1" d="M-438.3-869.7c-0.5,0.6-1.1,0.5-1.7,0.4c-1.3-0.1-2.7-0.3-4-0.5c-2.4-0.4-4.8-0.8-7.3-1.2
								c-0.3,0-0.6,0-0.9-0.1c-0.2-0.1-0.4-0.3-0.6-0.4c0.2-0.2,0.3-0.5,0.5-0.6s0.5,0,0.7,0c3.4,0.9,6.9,1.2,10.4,1.7
								c0.7,0.1,1.4,0.2,2.2,0.4C-438.7-869.9-438.6-869.8-438.3-869.7"/>
							<path id="Fill-108" class="st1" d="M-440.1-867.9c-0.7,0.5-1.2,0.4-1.7,0.2c-2.7-0.7-5.4-1.3-8.2-2c-0.2-0.1-0.5-0.1-0.7-0.2
								c-0.2-0.1-0.2-0.4-0.4-0.5c0.2-0.1,0.4-0.3,0.6-0.3c0.1,0,0.3,0,0.5,0.1c2.3,0.9,4.7,1.3,7,1.8
								C-442.1-868.5-441.2-868.2-440.1-867.9"/>
						</g>
						
							<g id="Group-110-Copy" transform="translate(1326.436262, 682.559625) rotate(91.000000) translate(-1326.436262, -682.559625) translate(1274.436262, 629.559625)" class="st0">
							<g id="Group-3_1_" transform="translate(0.394865, 0.791725)">
								<g id="Clip-2_1_">
								</g>
								<path id="Fill-1_1_" class="st1" d="M-370.1,1004.8c-0.1,0-0.1,0.1-0.2,0.1c0.1,0.2,0.2,0.4,0.3,0.5c0.1,0,0.1-0.1,0.2-0.1
									C-369.9,1005.2-370,1005-370.1,1004.8 M-376.4,997.5c0.2,0,0.3,0,0.4-0.1c0.1,0,0.1-0.1,0.1-0.2c-0.1,0-0.2-0.1-0.3,0
									C-376.2,997.1-376.3,997.3-376.4,997.5 M-358.4,1021.8c0,0-0.1,0.1-0.2,0.1c0.1,0.1,0.3,0.3,0.4,0.4l0.1-0.1
									C-358.2,1022.1-358.3,1021.9-358.4,1021.8 M-374.7,998.1c-0.2-0.1-0.3-0.1-0.5-0.1l-0.1,0.2c0.1,0.1,0.2,0.2,0.3,0.2
									C-375,998.4-374.9,998.2-374.7,998.1 M-411.2,1029.3c0.1,0,0.2,0,0.2,0c0-0.2,0-0.4,0-0.6c-0.1,0-0.1,0-0.2,0
									C-411.2,1028.8-411.2,1029-411.2,1029.3 M-367.5,1008.4c-0.1,0-0.1,0.1-0.2,0.2c0.2,0.2,0.4,0.4,0.6,0.6
									C-367.2,1008.8-367.2,1008.5-367.5,1008.4 M-356.1,1028.9v-0.2c-0.3,0.1-0.7,0.1-1,0.2c0,0.1,0,0.1,0,0.2
									C-356.8,1029-356.5,1029-356.1,1028.9 M-365.7,1011c-0.2-0.3-0.4-0.6-0.6-0.9C-366.4,1010.6-366.3,1011-365.7,1011
									 M-400.2,1046.6c0.3,0.4,0.5,0.8,0.9,1.1C-399.1,1047-399.6,1046.8-400.2,1046.6 M-371,1003.1c-0.1,0.9-0.1,0.9,0.6,1.2
									C-370.6,1003.9-370.8,1003.6-371,1003.1 M-377,1001.1c0.4-0.4,0.6-0.9,0.4-1.5C-377.5,1000.3-377.6,1000.6-377,1001.1
									 M-392.5,1002.6c-0.3,0.3-0.5,0.5-0.2,0.8c0.1,0.1,0.5,0.2,0.7,0.1c0.1,0,0.3-0.3,0.3-0.4
									C-391.8,1002.7-392.2,1002.7-392.5,1002.6 M-378,997.4c-0.1,0-0.1-0.1-0.2-0.1c-0.8,0.6-1.3,1.4-1.6,2.5
									C-379.1,998.9-378.5,998.1-378,997.4 M-380.4,998.3c0.3-0.3,0.7-0.6,1-0.9c0.3-0.3,0.7-0.5,0.6-1.2
									C-379.7,996.7-380,997.5-380.4,998.3 M-408.8,1035.2c0.1-1-0.2-1.4-1-2C-409.5,1034-409.6,1034.7-408.8,1035.2
									 M-378.5,995.6c0.4,0.5,1.2,0.3,1.2,1.3c0.3-0.2,0.5-0.3,0.6-0.4C-377.5,995.3-377.9,995.1-378.5,995.6 M-378.5,1000.3
									c1.5-1.6,1.6-1.7,1.4-2.3C-377.9,998.6-378.5,999.2-378.5,1000.3 M-357.8,1022.6c-0.5,0.5-0.5,0.5-0.1,1.3
									c0.3,0.6,0.4,0.6,0.9,0.4c0,0,0.1-0.1,0.1-0.2C-357.1,1023.6-357.4,1023.1-357.8,1022.6 M-359.6,1048.5
									c0.3,0.4,0.6,0.5,1,0.6s0.9,0.2,1.2,0.4c0.6,0.3,1.2,0.2,1.8,0C-356.7,1048.9-358.7,1048.4-359.6,1048.5 M-352.9,1033.9
									c0-0.1,0-0.1,0-0.2c-0.2,0-0.3,0-0.5,0c-0.9,0-1.9,0.1-2.8,0.1c-0.6,0-1.2,0.1-1.7,0.1c-0.2,0-0.4,0.2-0.4,0.3
									c0,0.3,0.2,0.4,0.5,0.4c0.1,0,0.1,0,0.2,0C-356.1,1034.4-354.5,1034.1-352.9,1033.9 M-380.2,995c-0.9,1.5-1.9,2.8-2.6,4.3
									c0.3,0,0.5,0,0.6-0.2c0.8-1.2,1.6-2.4,2.4-3.7C-379.8,995.3-380,995.2-380.2,995 M-352.2,1029.9c-0.2-0.4-0.3-0.7-0.8-0.5
									s-1,0.3-1.5,0.3c-1.5,0.1-3,0.2-4.5,0.4c-0.1,0-0.2,0.1-0.2,0.1c0.7,0.2,1.3,0.4,2,0.3c1.6-0.1,3.2-0.3,4.8-0.5
									C-352.4,1030-352.3,1029.9-352.2,1029.9 M-385.2,999.5c0.6,0.1,1,0.1,1.3-0.3c0.9-1.4,1.9-2.9,2.9-4.3
									c0.3-0.4,0.2-0.5-0.6-0.8C-382.8,995.8-383.9,997.6-385.2,999.5 M-387.8,1000.7c0.7-0.1,1.1-0.5,1.5-0.9
									c1.2-1.6,2.3-3.2,3.4-4.9c0.2-0.4,0.4-0.7,0.6-1.1c0.1-0.3,0-0.5-0.2-0.6c-0.1,0-0.3,0.1-0.5,0.2c-0.1,0-0.1,0.2-0.1,0.2
									c-1.2,1.9-2.4,3.7-3.6,5.6C-387.2,999.7-387.5,1000.1-387.8,1000.7 M-389.4,990.3c-0.6-0.1-1,0.2-1.3,0.8
									c-0.4,0.7-0.8,1.4-1.1,2.1c-0.6,1.5-1.2,3-1.8,4.6c-0.2,0.5-0.2,1-0.4,1.6c0.1,0,0.2,0.1,0.2,0.1c0.5-0.6,0.6-1.5,1-2.2
									s0.7-1.5,1.1-2.3s0.7-1.6,1.1-2.3C-390.3,991.8-389.9,991.1-389.4,990.3 M-358.8,1031.5c0,0.1,0,0.1,0,0.2
									c0.1,0,0.2,0.1,0.3,0.1c1.5-0.1,3.1-0.2,4.6-0.4c0.5,0,1-0.2,1.6-0.2c0.1,0,0.3,0.2,0.4,0.3c0,0.1-0.1,0.3-0.2,0.4
									c-0.2,0.1-0.4,0.2-0.7,0.2c-1,0.1-2,0.2-3.1,0.2c-0.8,0.1-1.5,0.1-2.3,0.1c-0.1,0-0.3,0.2-0.4,0.3c0.2,0.1,0.3,0.3,0.5,0.3
									c0.6,0,1.2-0.1,1.8-0.1c1.5,0,3,0,4.6-0.2c0.4-0.1,0.8-0.2,1.3-0.3c-0.2-0.5-0.4-0.8-0.6-1.1c-0.2-0.5-0.6-0.7-1.2-0.6
									c-0.9,0.1-1.9,0.3-2.8,0.4C-356.2,1031.3-357.5,1031.4-358.8,1031.5 M-351.4,1033.5c0,0.1,0,0.1,0,0.2
									c0.3,0.1,0.6,0.1,0.8,0.2c0.1,0.1,0.3,0.3,0.3,0.4s-0.2,0.3-0.4,0.3c-0.3,0.1-0.6,0-0.9,0.1c-0.7,0.1-1.4,0.1-2.1,0.2
									c-0.3,0-0.6,0.1-0.9,0.1c-1.2,0.1-2.4,0.3-3.7,0.4c-0.5,0.1-0.6,0.3-0.5,0.8c0.5,0,0.9,0,1.3,0c1.5,0,2.9,0,4.3-0.4
									c1-0.3,2.1-0.3,3.1-0.2c0.2,0,0.5,0,0.9,0c-0.3-0.8-0.6-1.5-0.9-2.2C-350.5,1033.4-351,1033.5-351.4,1033.5 M-388.8,990.1
									c-0.1,0.4-0.1,0.7-0.3,1c-0.9,1.8-1.9,3.7-2.7,5.5c-0.5,1.1-0.9,2.2-1.3,3.3c-0.2,0.4-0.2,0.8,0.3,1.1
									c0.1-0.2,0.3-0.3,0.4-0.5c0.6-1.3,1.3-2.6,1.9-3.9c0.9-1.9,1.9-3.7,2.9-5.6c0.1-0.2,0.2-0.5,0.3-0.8
									C-387.9,990.2-388.3,990.2-388.8,990.1 M-359.4,1037.6c0.3,0.1,0.4,0.2,0.6,0.2c0.9,0.1,1.9,0.2,2.8,0.3
									c1.5,0.1,3,0.1,4.5-0.1c0.8-0.1,1.6-0.1,2.5-0.2c0.2,0,0.3-0.1,0.5-0.1c0-1-0.2-1.2-1-1.3c-0.6-0.1-1.1-0.1-1.7,0
									c-2.5,0.2-4.9,0.7-7.4,0.5C-359.2,1036.7-359.4,1037-359.4,1037.6 M-385,991c-1.1-0.5-1.3-0.5-1.8,0.3
									c-0.2,0.3-0.4,0.6-0.6,1c-1.3,2.5-2.6,4.9-3.9,7.4c-0.3,0.5-0.5,1-0.7,1.6c-0.1,0.2,0,0.5,0.1,0.6c0.2,0.1,0.5,0,0.7-0.1
									c0.1,0,0.2-0.2,0.2-0.4c0.8-1.6,1.6-3.2,2.5-4.7c0.8-1.5,1.6-2.9,2.5-4.4C-385.7,991.9-385.3,991.5-385,991 M-360.6,1041.1
									c0.2,0,0.3,0,0.5,0c2.8,0.7,5.6,1.1,8.5,1.1c0.9,0,1.8,0.1,2.7,0.2c0.7,0,0.8-0.2,0.7-0.9c-0.1-0.4-0.3-0.6-0.8-0.6
									c-0.7,0-1.4-0.1-2.1-0.1c-2.8,0-5.6-0.1-8.4-0.6C-360.3,1040.2-360.3,1040.2-360.6,1041.1 M-382.9,992
									c-0.4-0.3-0.7-0.5-1-0.6s-0.5-0.1-0.7,0.1c-0.1,0.1-0.2,0.3-0.3,0.4c-1.6,2.9-3.3,5.8-4.9,8.7c-0.2,0.3-0.3,0.6-0.4,1
									c0.5,0,0.9,0,1.1-0.5c0.1-0.2,0.3-0.4,0.4-0.6c0.4-0.5,0.9-1,1.2-1.5c1.2-1.8,2.5-3.7,3.7-5.6c0.2-0.3,0.2-0.6,0.3-1
									C-383.5,992.4-383.2,992.2-382.9,992 M-360.4,1039.2c1.1,0.6,2.3,0.7,3.5,0.8c1.9,0.1,3.7,0.1,5.6,0.2c1,0,1.9,0.1,3,0.2
									c0-0.7,0-1.2,0-1.9c-0.9,0.1-1.6,0.1-2.4,0.2c-2.9,0.4-5.7,0.1-8.5-0.3C-360.2,1038.1-360.3,1038.1-360.4,1039.2
									 M-391.7,1005c0,0.1,0.1,0.2,0.1,0.2c0,0.1,0.1,0.1,0.1,0.2c0.6,0.7,0.7,0.7,1.4,0.1c0.9-0.7,1.7-1.4,2.8-1.7
									c0.2-0.1,0.4-0.2,0.6-0.3c0.6-0.3,1.2-0.7,1.9-0.8c0.8-0.1,1.6,0,2.5,0.1c1.1,0.2,2.2,0.5,2.8,1.6c0.1,0.1,0.2,0.2,0.3,0.3
									c0.3-0.2,0.6-0.4,0.9-0.6c0.6-0.5,0.6-1-0.1-1.4c-2.2-1.6-4.5-1.6-7-0.9c-0.7,0.2-1.4,0.5-2.1,0.7c-0.8,0.3-1.5,0.5-2.1,1.2
									c-0.2,0.3-0.6,0.4-1,0.5C-390.9,1004.4-391.4,1004.5-391.7,1005 M-348.5,1043.1c-1-0.1-1.9-0.1-2.7-0.1
									c-1.8-0.1-3.6-0.3-5.4-0.5c-1.3-0.1-2.6-0.4-3.9-0.6c-0.3,0-0.6-0.1-0.9,0c-0.8,0.4-1.7,1.9-1.6,2.8c0,0.2,0.2,0.5,0.3,0.6
									c0.7,0.4,1,1,0.6,1.8c0.3,0.1,0.4,0.2,0.6,0.2c0.5,0,0.9,0,1.4,0.1c1.7,0.5,3.4,1,5,1.5c0.3,0.1,0.7,0.2,0.9,0.1
									c0.6-0.2,1.4-0.4,1.8-1.1c0.1-0.2,0.4-0.3,0.6-0.4c0.5-0.2,0.8-0.6,1.1-1c0.2-0.3,0.5-0.6,0.7-0.9
									C-349.4,1044.9-349,1044-348.5,1043.1 M-381.8,1020l-0.1-0.2c0.2-0.1,0.3-0.2,0.5-0.3c1.6-0.7,3.2-1.4,4.8-2.1
									c2.2-0.9,4.3-1.8,6.4-3c0.9-0.5,1.8-1.1,2.7-1.7c0.4-0.3,0.7-0.7,1.1-1c-0.2-0.3-0.2-0.5-0.4-0.6c-0.4-0.6-0.5-0.6-1.1-0.2
									c-3.7,2.4-7.7,4.1-11.7,5.8c-0.2,0.1-0.4,0.1-0.6,0.1c0.1-0.2,0.1-0.3,0.2-0.3c1.3-0.6,2.6-1.2,3.9-1.8
									c0.2-0.1,0.4-0.2,0.6-0.3c0.6-0.3,1.2-0.7,1.8-1c1.8-0.9,3.6-1.9,5.3-3c0.2-0.1,0.4-0.4,0.6-0.5c-0.8-1-0.8-1-1.7-0.5
									c-2.3,1.2-4.7,2.4-7,3.5c-0.6,0.3-1.1,0.5-1.7,0.8c-0.4,0.2-0.8,0.3-1.2,0.5c-2.2,1.5-4.4,3-6.6,4.5
									c-0.2,0.1-0.5,0.3-0.7,0.4c0.1-0.3,0.3-0.5,0.4-0.6c1-0.6,1.9-1.3,2.9-1.9c2.3-1.5,4.6-3.1,6.9-4.6c0.3-0.2,0.6-0.3,1-0.4
									c0.3-0.1,0.6-0.1,0.8-0.3c1.5-0.7,2.9-1.4,4.3-2.1c0.4-0.2,0.7-0.4,1.1-0.5c-0.5-0.7-0.9-1.3-1.4-2
									c-0.7,0.4-1.5,0.8-2.2,1.2s-1.4,1-2.3,1.2c0-0.5,0.4-0.7,0.6-0.8c1-0.7,2.1-1.3,3.1-2c0.1-0.1,0.2-0.1,0.3-0.2
									c0.1-0.1,0.1-0.3,0.1-0.4c0-0.1-0.2-0.2-0.3-0.2c-0.2,0-0.3,0.1-0.5,0.2c-0.7,0.4-1.4,0.8-2.1,1.2c-0.3,0.1-0.5,0.4-0.9,0.2
									c0.3-0.6,0.3-0.6,0.7-0.9c0.6-0.4,1.2-0.8,1.9-1.2c0.6-0.4,0.6-0.5,0-1.2c-1.6,1.2-3.2,2.3-4.9,3.5
									c-0.1-0.1-0.3-0.3-0.5-0.5c-0.3,0.2-0.5,0.4-0.7,0.6c-0.7,0.5-1.3,1.2-2,1.6c-2.7,1.5-5.3,3.1-8.1,4.5
									c-2.8,1.4-5.3,3.3-7.8,5.2c-0.4,0.3-0.8,0.6-1.2,0.8l-0.1-0.1c0.2-0.2,0.4-0.4,0.6-0.6c1-0.8,1.9-1.6,2.9-2.4
									c0.9-0.7,1.8-1.5,2.8-2c2.7-1.5,5.4-3,8.1-4.4c1.6-0.9,3.2-1.7,4.5-3.1c0.6-0.6,1.3-1,2.1-1c0.5,0,0.8-0.2,1.2-0.5
									c0.5-0.3,0.9-0.7,1.3-1l1.5-1.1c0.4-0.3,0.3-0.6,0.1-0.9c-0.1-0.2-0.3-0.4-0.5-0.6c-0.1-0.2-0.2-0.5-0.2-0.6
									c0.3-0.8-0.3-1.1-0.7-1.8c-0.6,2.1-1.6,3.7-2.9,5.2c1.4-0.7,2.4-1.9,3.8-2.7c0,0.3,0.1,0.5,0,0.6c-0.1,0.2-0.3,0.4-0.5,0.5
									c-1.2,0.8-2.4,1.7-3.6,2.5c-0.2,0.1-0.5,0.2-0.6,0.1c-0.3-0.2-0.5,0-0.7,0.1c-0.7,0.5-1.3,1.1-2,1.5c-2.8,1.7-5.5,3.4-8.3,5
									c-3.4,1.9-6.6,4-9.5,6.6c-1.5,1.3-3.1,2.6-4.7,3.8c-1.5,1.2-3.1,2.3-4.8,3.3c-1,0.6-2.2,1-3.3,1.6c-0.2,0.1-0.5,0.1-0.4,0.5
									c0.3-0.1,0.7-0.3,1-0.4c1.2-0.5,2.4-1,3.7-1.5c0.1-0.1,0.3,0,0.5,0c-0.1,0.2-0.1,0.3-0.2,0.3c-1.1,0.6-2.3,1.3-3.5,2
									c0,0.3,0,0.7,0.1,1.2c1.7-0.7,3.3-1.6,5.1-1.8c-0.2,0.6-0.7,0.6-1.2,0.8c-1.1,0.5-2.2,0.9-3.2,1.4c-0.7,0.4-0.7,0.9-0.1,1.6
									c0.5-0.2,1-0.5,1.5-0.7s0.8-0.7,1.6-0.6c-0.6,1.2-2,1.3-2.8,2.2c0.2,0.3,0.3,0.7,0.5,1.1c0.3-0.3,0.7-0.5,0.9-0.7
									c1.2-1.1,2.3-2.2,3.5-3.2c2-1.8,4.1-3.5,6.4-4.8c1.7-0.9,3.5-1.7,5.2-2.5c0.6-0.3,1.1-0.6,1.6-0.8c0.6-0.3,1.2-0.5,1.8-0.7
									c0.3-0.1,0.7-0.1,1-0.2c0.5-0.2,1-0.4,1.5-0.6c1.6-0.6,3.3-1.1,4.9-1.8c1.4-0.6,2.7-1.3,4-2c0.3-0.1,0.5-0.3,0.8-0.4
									c0,0.1,0.1,0.1,0.1,0.2c-0.3,0.2-0.6,0.4-0.9,0.6c-1.2,0.6-2.4,1.3-3.6,1.8c-3.7,1.5-7.4,2.9-11.1,4.4
									c-2.8,1.1-5.5,2.5-7.9,4.3s-4.6,3.9-6.8,6c-0.3,0.3-0.5,0.6-0.8,0.9c0.3,0,0.4,0,0.6-0.1c0.7-0.5,1.4-0.9,2.2-1.4
									c0.7-0.4,1.3-0.8,2-1.1c0.4-0.2,0.8-0.4,1.3,0.1c-1.1,0.8-2.4,1.3-3.5,2.1c-1.1,0.8-2.3,1.5-3.4,2.2
									c0.2,0.4,0.3,0.8,0.5,1.2c0.4,1,0.7,2,1.2,2.9c0.6,1.2,1,2.5,2,3.5c1,0.8,1.9,1.7,2.8,2.5c0.3,0.2,0.5,0.1,0.9-0.1
									c-1.5-0.7-1.5-2.3-2.4-3.4c-0.5,0.2-0.8,0.4-1.2,0.6c-0.1,0-0.4-0.1-0.5-0.2s0-0.3,0.1-0.4s0.3-0.2,0.5-0.3
									c0.5-0.2,0.7-0.5,0.5-1c0-0.1-0.1-0.2,0-0.3c0-0.1,0.1-0.3,0.2-0.3s0.3,0,0.4,0.1c0.2,0.2,0.3,0.4,0.4,0.6
									c0.7,0.1,1.2-0.6,1.9-0.5c-0.2,0.6-0.7,0.8-1.1,1.1c-0.5,0.4-0.5,0.4-0.3,1c0.2,0.4,0.3,0.8,0.5,1.2
									c0.4,0.9,1.3,1.2,2.1,1.7c0.6,0.3,1.2,0,1.7-0.2c0.8-0.3,1.6-0.6,2.5-0.9c2.2-0.7,4.3-1.7,6.6-2.3c0.9-0.2,1.8-0.7,2.7-1.1
									c0.3-0.1,0.3-0.1,0.9,0c-0.9,0.6-1.7,1-2.6,1.4c-0.9,0.3-1.8,0.7-2.7,1c-0.9,0.4-1.7,0.7-2.6,1.1s-1.8,0.6-2.7,1
									c-0.9,0.4-1.8,0.5-2.6,1c0.7,1.1,1.5,0.8,2.4,0.4c0.2-0.1,0.3-0.2,0.5-0.2c1.5-0.6,2.9-1.3,4.4-1.9c2-0.7,4-1.4,6-2.1
									c0.2-0.1,0.4-0.1,0.6-0.2c0,0.1,0,0.1,0.1,0.2c-1.3,0.9-2.8,1.2-4.3,1.8c-1.5,0.6-3,1.2-4.5,1.9c-1.4,0.6-2.9,1.3-4.3,1.9
									c0.1,0.2,0.1,0.3,0.2,0.4c0.7,0.7,1.4,1.5,2.2,2.2c0.4,0.4,0.7,0.3,1.2,0c0.2-0.1,0.3-0.2,0.5-0.3c1.5-0.6,2.9-1.5,4.1-2.6
									c0.4-0.3,0.9-0.6,1.3-0.8c0.1-0.1,0.3,0,0.6,0.1c-0.1,0.2-0.1,0.4-0.2,0.5c-1.2,1.1-2.4,2.3-3.9,3.1
									c-0.6,0.3-1.2,0.7-1.8,1.1c-0.4,0.3-0.8,0.4-1.3,0.3c-0.7-0.1-1.3-0.5-1.7-1.1c0.4,1.1,1.6,2.4,2.5,2.8
									c0.5,0.2,0.9,0.2,1.2-0.3c1-1.6,2.5-2.8,4-3.9c1.8-1.4,3.7-2.7,5.6-3.9c1.6-1.1,3.4-2,5-3.1c2.1-1.4,4.3-2.6,6.2-4.3
									c0.8-0.7,1.4-1.4,2.2-2c1.2-0.9,2.4-1.8,3.6-2.7c0.2-0.1,0.5-0.2,0.4-0.7c-0.4,0.2-0.7,0.3-1,0.5c-1,0.6-2,1.2-3.1,1.7
									c-1.3,0.6-2.4,1.4-3.6,2.2c-1.2,0.9-2.3,1.8-3.5,2.7c-1.3,0.9-2.7,1.8-4,2.7c-1.2,0.8-2.3,1.7-3.7,2.1
									c-0.1,0-0.2,0.2-0.4,0.2c-0.6,0.3-1.1,0.6-1.7,0.9c-1.1,0.5-2.3,1.1-3.5,1.5c-1.4,0.6-2.9,1.1-4.3,1.6c-0.2,0.1-0.3,0-0.5,0
									c0.1-0.3,0.3-0.4,0.5-0.4c0.3-0.1,0.6-0.1,0.8-0.2c1.2-0.6,2.4-1.2,3.7-1.7c1.5-0.7,3-1.2,4.5-1.9c0.4-0.1,0.7-0.2,1-0.5
									c1.4-0.9,2.8-1.9,4.2-2.9c1.5-1.1,3-2.2,4.5-3.3c0.9-0.7,1.8-1.3,2.7-2c0.9-0.7,2-1.2,3.1-1.7c1.7-0.8,3.3-2,5.1-2.7
									c0.3-0.1,0.5-0.4,0.7-0.6c0.7-0.5,0.9-1.3,1.8-1.7c1.4-0.5,2.6-1.4,3.9-2.1c0.2-0.1,0.3-0.2,0.5-0.3
									c-1.6,0.2-3.1,0.6-4.5,1.2c-2.1,1-4.2,2-6.3,3c-2.5,1.2-5,2.4-7.1,4.2c-0.1,0.1-0.3,0.1-0.6,0.3c0.2-0.3,0.3-0.4,0.3-0.5
									c0.8-1,1.9-1.7,3-2.3c2.7-1.5,5.4-2.9,8.1-4.3c2.2-1.2,4.6-2,7.1-2.4c0.2,0,0.5-0.1,0.7,0c0.6,0.3,1,0.1,1.4-0.3
									c-0.1-1.1-0.2-1.1-1-0.9c0,0.2-0.1,0.4-0.1,0.7c-0.2-0.1-0.5-0.1-0.6-0.2c-0.2-0.3-0.5-0.3-0.8-0.2c-0.5,0.2-1,0.3-1.5,0.5
									c-3.1,1.2-6.2,2.5-9.3,3.8c-0.3,0.1-0.6,0.2-0.8,0.3c0-0.1-0.1-0.1-0.1-0.2c3.9-1.8,7.6-4.1,12-5.1
									c-0.2-0.5-0.4-0.9-0.6-1.3c-0.1-0.3-0.4-0.4-0.7-0.3c-0.7,0.3-1.5,0.4-2.2,0.8c-2.3,1.1-4.6,2.2-6.9,3.4
									c-0.2,0.1-0.4,0.2-0.7,0.3c0.3-0.6,2-1.7,4.7-3c1.7-0.8,3.3-1.9,5.3-2.1c-0.2-0.6-0.4-1.1-0.6-1.7c-3.3,1-6.3,2.2-9,4.1
									c0-0.2,0-0.5,0.2-0.6c0.7-0.5,1.4-1.1,2.2-1.5c1.5-0.7,3-1.4,4.5-2c0.7-0.3,1.3-0.6,1.6-1.3c-0.5-0.8-0.5-0.8-1.4-0.5
									c-2.1,0.7-4,1.8-5.9,2.9c-0.2,0.1-0.4,0.3-0.9,0c1.1-0.8,2.2-1.4,3.3-2.1c1.1-0.7,2.4-1.2,3.6-1.8c-0.3-0.4-0.5-0.2-0.8,0
									c-1.3,0.6-2.5,1.2-3.8,1.8c-0.2,0.1-0.5,0.4-0.8,0.1c0-0.5,0.4-0.5,0.7-0.7c1-0.5,2-1,3-1.5c0.3-0.2,0.6-0.3,0.8-0.5
									c0.1-0.6-0.7-0.9-0.3-1.5c0.2,0.1,0.5,0.2,0.7,0.4c0.8,0.9,1.7,1.9,2.4,2.8c0.4,0.6,0.8,0.9,1.5,0.6c0.2-0.1,0.6,0,0.7,0.1
									c0.4,0.5,0.7,1.1,1,1.7c0.2,0.3,0.1,0.7-0.4,0.8c-0.3-0.5-0.5-1-0.8-1.5c-0.2-0.3-0.4-0.4-0.7-0.2c0.7,1,1.3,2,2,2.9
									c0.3,0.4,0.5,0.7,0.7,1c0.1,0.6,0.2,1.1,0.3,1.6c0.4-0.1,0.8-0.1,1.1-0.3c0.6-0.3,0.7-0.3,1,0.3c0.2,0.4,0.4,0.9,0.7,1.1
									c0.5,0.3,0.7,0.6,0.9,1c0.5,0.7,0.9,1.6,1.6,2.2c1.1,0.9,1.7,2.1,2.1,3.4c0.2,1,0.4,2,0.7,3c0.7,3,0.9,5.9-1,8.6
									c-0.8,1.2-1.5,2.6-3,3.3c-0.2,0.1-0.3,0.3-0.5,0.4c-0.2,0.2-0.4,0.4-0.7,0.5c-1.2,0.6-2.4,1.3-3.9,1.3
									c-0.3,0-0.7-0.1-0.7,0.4c0,0.4,0.4,0.4,0.6,0.4c0.1,0,0.3,0,0.4,0c1.3,0.1,2.6,0.2,3.9,0.3c0.2,0,0.5,0.1,0.8,0.2
									c-0.5,0.4-0.5,0.4-1,0.4c-2.2,0-4.3-0.1-6.5-0.7c-1.3-0.4-2.4-0.9-3.5-1.5c-0.2-0.1-0.4-0.3-0.6-0.4
									c-0.4-0.3-0.3-0.6,0.2-0.9c0.6,0.8,1,1.1,1.8,1.3c0.6,0.2,0.6,0.2,1-0.5c-0.3-0.2-0.6-0.5-0.9-0.6c-1.7-0.8-2.8-2.3-3.8-3.8
									c-0.2-0.3-0.3-0.6,0.1-0.9c0.2-0.1,0.2-0.4,0.3-0.6c0.2-0.9,0.5-1.7,1.3-2.3c0.3-0.2,0.5-0.5,0.7-0.7
									c0.3-0.3,0.7-0.6,0.3-1.1c-0.1-0.1,0-0.3,0-0.3c0.5-0.7,0.2-1.8,0.9-2.4c0.1-0.1,0.1-0.3,0.1-0.3c-0.4-0.6,0-1,0.5-1.3
									c-0.2-0.6-0.3-1.2-0.5-1.8c0.5-0.7,0.5-1.6,0-2.8c-0.3,0.2-0.6,0.3-0.8,0.5c-0.4,0.3-0.5,0.6-0.3,1.1
									c0.2,0.4,0.3,0.8,0.4,1.3c0.1,0.6,0.3,1.3,0,1.9c-0.5,0.9-0.8,1.9-1.6,2.7c-0.4,0.4-0.8,0.7-1.1,1.1
									c-0.2,0.3-0.5,0.6-0.5,0.9c-0.1,0.6-0.1,1.2-0.1,1.7c0,0.3,0.1,0.5,0.1,0.8c0,0.2-0.2,0.4-0.3,0.4c-0.1,0-0.4-0.1-0.4-0.2
									c-0.1-0.2-0.2-0.4-0.2-0.6c-0.1-0.5-0.1-1-0.1-1.5c0-1.1,0.3-2.1,1.3-2.7c0.2-0.1,0.3-0.3,0.4-0.5c0.4-0.6,0.7-1.1,1.1-1.7
									c0.7-0.9,0.5-1.9,0.1-2.8c-0.1-0.4-0.4-0.5-0.8-0.2c-0.5,0.4-0.9,0.8-1.3,1.2c-0.1,0.1-0.1,0.3-0.2,0.5
									c-0.1,2.2-1,4.1-1.9,6c-0.1,0.2-0.3,0.3-0.5,0.5c-0.1,0-0.1-0.1-0.2-0.1c0.1-1,0.8-1.8,1-2.8s0.7-1.9,0.6-3.2
									c-1,0.8-2.1,1.2-2.5,2.3c0,0.1-0.1,0.2-0.2,0.3c-0.9,0.9-1,2.2-1.3,3.3c-0.3,1.6,0.1,3.3,0.4,4.9c0.1,0.3,0.2,0.6,0.4,0.9
									c1.4,2.4,3.2,4.3,5.3,6c0.9,0.8,2,1.5,2.9,2.3c1.4,1.3,3.1,2.2,4.9,3c1,0.5,2.1,0.7,3.2,1.1c3.2,1.1,6.4,1.9,9.8,1.8
									c1.5,0,3,0,4.5-0.1c1.5-0.2,3-0.7,4.4-1.2c3.4-1.4,6.5-3.3,9.4-5.4c1.3-0.9,2.4-2.2,3.7-3.2c1.1-0.9,2.1-1.9,2.9-3.1
									c0.3-0.4,0.6-0.9,1.2-0.9c0.1,0,0.3-0.1,0.4-0.2c0.7-1,1.4-1.9,2.1-2.9c0.4-0.7,0.8-1.4,1.1-2.1c0.6-1.3,1.4-2.5,1.9-3.9
									c0.6-1.5,1.1-3,1.6-4.6c0.2-0.7,0.4-1.4,0.6-2.1c0.1-0.9,0.1-1.9,0.3-2.9c0.3-1.3,0.1-2.6-0.1-3.9c-0.2-1.2-0.3-2.3-0.5-3.5
									c-0.2-0.9-0.3-1.9-0.5-2.8c-0.8-2.5-1.6-4.9-2.4-7.4c-0.7-2.2-1.7-4.2-2.9-6.2c-1.2-2.2-2.7-4.2-4-6.3
									c-0.6-0.9-1.1-1.9-1.8-2.8c-1.4-1.8-2.9-3.5-4.2-5.3c-0.9-1.1-1.7-2.3-2.5-3.5c-0.7-1-1.2-2-1.8-3c-1.2-1.9-2.5-3.8-3.8-5.6
									c-0.7-1-1.3-2-2-2.9c-1.8-2.1-3.7-4.2-5.6-6.2c-0.9-1-1.8-1.9-3.2-2.4c-1.9-0.7-3.6-2.1-5.6-2.7c-0.1,0-0.1,0-0.2-0.1
									c-1.9-1.3-3.9-2.2-6-3c-3.2-1.2-6.4-2.1-9.8-2.2c-1.8-0.1-3.7,0-5.5,0c-0.1,0-0.2,0-0.3,0c-2.1,0.6-4.3,0.7-6.3,1.8
									c-1.9,1-4,1.8-6,2.7c-1,0.5-1.8,1.1-2.3,1.8c0.3-0.1,0.6-0.2,0.8-0.4c0.2-0.1,0.3-0.3,0.5-0.4c1.9-0.9,3.7-2,5.6-2.7
									c2.2-0.9,4.5-1.2,6.8-1.6c1.1-0.2,2.3,0.1,3.3-0.4h0.1c1.3,0.1,2.6,0.1,3.9,0.2c0.1,0,0.2,0.1,0.3,0.1
									c-0.7,0.1-1.4,0.1-2.1,0.1c-0.2,0-0.6,0-0.6,0.1c-0.1,0.7-0.6,0.4-1,0.4c-2.4-0.3-4.8,0.1-7.1,0.6c-1.3,0.3-2.6,0.6-3.8,1.1
									c-2.8,1.1-5.5,2.4-7.8,4.4c-0.3,0.3-0.6,0.2-0.7-0.1c-0.3,0.2-0.6,0.4-0.8,0.6c-2.4,2.1-4.2,4.8-6,7.5
									c-0.8,1.2-1.3,2.6-2.2,3.8c-0.3,0.4-0.5,0.9-0.7,1.4c-0.8,2.5-1.7,5-2.1,7.6c-0.3,2.2-0.5,4.5-0.3,6.8
									c0,0.1,0.1,0.2,0.2,0.6c0.2-0.9,0.4-1.6,0.5-2.3c0.3-1.4,0.7-2.7,1.3-3.9c0.1-0.3,0.2-0.6,0.6-0.7c0,0.1,0.1,0.1,0.1,0.2
									c0,0.2-0.1,0.3-0.2,0.5c-0.9,2.4-1.6,4.9-1.8,7.5c-0.1,1-0.1,2.1,0.5,3c0,0.1,0,0.2,0.1,0.2c-0.2,0.1-0.3,0.2-0.5,0.4
									c0.1,0.6,0.2,1.2,0.4,1.7c0.7,1.3,1.4,2.6,2.2,3.8c0.6,0.9,1.4,1.8,2.1,2.6c1,1.2,2.2,2.2,3.7,2.8c0.6,0.3,1.2,0.3,1.8,0.1
									c0.4-0.1,0.9-0.2,1.3-0.1c0.3,0.1,0.6,0,0.8-0.1c0.7-0.4,1.4-0.8,2-1.2c1.5-0.9,3.1-1.8,4.6-2.7c0.8-0.5,0.7-1.5-0.1-1.9
									c-1.2-0.7-2.5-0.8-3.8-0.4c-1.2,0.4-2.3,1-3.4,1.5c-0.4,0.2-0.8,0.6-1.2,0.9c-0.1,0.1-0.2,0.3-0.3,0.5
									c0.4,0.1,0.7,0.2,1,0.2s0.7,0,0.9,0.4c-0.2,0-0.4,0.1-0.5,0.1c-1.2,0-2.5-0.1-3.7-0.1c-0.6,0-1.2-0.2-1.6-0.7
									c-1-1.2-2-2.4-2.9-3.6c-0.3-0.3-0.4-0.8-0.6-1.2c-0.2-0.7-0.4-1.5-0.6-2.2c-0.1-0.5-0.1-0.9,0-1.4c0-0.1,0.3-0.3,0.5-0.3
									c0.1,0,0.3,0.2,0.3,0.4c0.1,0.4,0,0.8,0.1,1.1c0.4,1.4,0.7,2.8,1.7,3.9c0.8,0.9,1.5,1.8,2.2,2.7c0.3,0.4,0.7,0.6,1.3,0.5
									c-0.4-0.4-0.7-0.7-1-1.1c-1-1.5-1.8-3-2.3-4.7c-0.5-1.8-0.7-3.6-0.4-5.4c0.2-1.3,0.6-2.6,1-3.8c0.2-0.8,0.8-1.4,1.6-1.8
									c2.1-0.9,4.2-0.9,6.3-0.5c1.4,0.3,2.8,0.8,4.1,1.6c0.8,0.5,1.7,1,2.5,1.5c0.2,0.1,0.4,0.4,0.6,0.7c-0.6,0.2-1-0.1-1.3-0.3
									s-0.7-0.4-1-0.5c-0.1,0-0.3,0.1-0.6,0.2c0.2,0.2,0.3,0.3,0.4,0.3c0.5,0.2,1,0.4,1.4,0.9c0.2,0.2,0.5,0.3,0.8,0.1
									c0.2-0.1,0.4-0.3,0.6,0c-0.1,0.3-0.2,0.6-0.3,0.9c0.4,0.3,0.7,0.3,1-0.1c0.3-0.6,0.4-0.6,0.9-0.2c0.5,0.4,1,0.8,1.5,1.2
									c1.7,1.4,3.2,2.9,4.4,4.8c0.2,0.4,0.4,0.7,0.3,1.2c-0.1,0.2,0.1,0.5,0.1,0.7c0.4-0.1,0.7-0.1,0.9-0.2c0.5,0.8,1,1.5,1.4,2.3
									c0.3,0.5,0.4,1.1-0.1,1.6c-0.3,0.3-0.3,0.7-0.1,1c0.3,0.4,0.6,0.8,1,1.1c0.1,0.1,0.3,0.1,0.5,0.1c0-0.4,0-0.7,0-1
									c0.5-0.1,0.7,0,0.9,0.4c0.1,0.2,0.3,0.4,0.4,0.7c0.2,0.3,0.3,0.5,0.7,0.4c0.1,0,0.3,0,0.4,0.1c0,0.4-0.2,0.7-0.1,1
									c0.3,0.5,0.6,1,0.2,1.6c0.3,0.6-0.2,0.8-0.5,1.1c-2,1.7-4.4,2.9-6.8,4c-2.3,1.1-4.6,2-6.9,2.9
									C-380.3,1019.6-381,1019.8-381.8,1020 M-394,997.1c-0.2,0.1-0.6,0.2-0.4,0.6C-394.3,997.4-394.2,997.3-394,997.1
									c0-0.3,0-0.6,0.2-0.9c0.6-1.4,1.2-2.7,1.8-4.1c0.1-0.2,0.1-0.3,0.2-0.7c-1,1.1-2.2,3.9-2.3,5.1
									C-394.3,996.7-394.1,996.9-394,997.1 M-371,1039.2c-1.2,0.8-2.2,1.6-3.2,2.3c-1.8,1.2-3.7,2.4-5.6,3.5
									c-3.3,2-6.6,4.1-9.5,6.6c-1,0.8-1.9,1.7-2.9,2.5c-0.4,0.3-0.4,1-1.1,1s-1.4-0.2-2-0.6c-1.1-0.6-1.7-1.5-2.4-2.5
									c-1-1.4-2-2.8-3.1-4.2c-0.3-0.4-0.7-0.8-1.3-0.8c-0.2,0-0.4-0.1-0.5-0.2c-1-0.9-2.1-1.7-3.1-2.6c-1.3-1.2-2-2.6-2.6-4.2
									c-0.5-1.5-1.2-2.9-1.8-4.3c-0.4-1-0.8-2-1.2-2.9c-0.7-1.4-1-2.9-1.4-4.5c-0.1-0.4-0.2-0.7-0.2-1.1c-0.1-0.6,0.3-0.9,0.9-0.8
									c0.3,0,0.6,0,0.8-0.2c2.3-1,4.3-2.3,6.3-3.8c2.6-1.9,5-4,7.5-6.1c1.1-0.9,2.3-1.7,3.4-2.5c0.7-0.5,1.4-0.9,2.1-1.4
									c0.2-0.1,0.3-0.3,0.5-0.5c-0.2-0.1-0.3-0.2-0.5-0.3c-1.4-0.6-2.7-1.3-3.7-2.5c-1.2-1.4-2.4-2.9-3.5-4.4
									c-0.6-0.7-1-1.6-1.3-2.5c-0.3-0.7-0.6-1.5-0.8-2.3c-0.5-2.6-1-5.2-1-7.9c0-1.8,0.3-3.6,0.5-5.4c0.2-1.7,0.9-3.2,1.2-4.8
									c0.1-0.4,0.4-0.8,0.5-1.2c0.1-0.2,0.2-0.4,0.3-0.6c0.2-1.5,1-2.7,1.8-4c0.2-0.4,0.5-0.7,0.7-1.1c0.7-1.5,1.8-2.8,2.8-4.2
									c0.2-0.3,0.4-0.6,0.6-0.9c0.3-0.4,0.6-0.8,1-1.2c0.6-0.7,1.2-1.3,1.8-1.9c1.5-1.3,2.9-2.6,4.5-3.8c1.1-0.8,2.3-1.4,3.5-2
									c1.2-0.7,2.3-1.4,3.6-1.9c1.2-0.5,2.4-1.1,3.8-1c0.7,0,1.5-0.1,2.2-0.3s1.3-0.2,2-0.2c1.6,0,3.1-0.1,4.6-0.1
									c1.6,0,3.2,0.1,4.8,0.6c0.5,0.2,1.2,0.2,1.7,0.4c1.1,0.3,2.1,0.6,3.2,1c1.3,0.5,2.6,0.9,3.8,1.5c1,0.5,1.9,1.1,2.9,1.6
									c0.5,0.3,1,0.6,1.5,0.7c0.8,0.2,1.6,0.4,2.2,0.9c0.8,0.6,1.7,1.1,2.6,1.6c1.5,0.8,2.7,1.9,3.9,3.2c1.5,1.7,3.1,3.2,4.5,5
									s2.6,3.7,3.9,5.5c1,1.4,1.8,2.9,2.8,4.3c0.9,1.4,1.8,2.9,2.7,4.3c1.1,1.5,2.3,2.9,3.4,4.4c0.5,0.6,1,1.2,1.5,1.8
									c0.5,0.7,1,1.4,1.4,2.1c0.4,0.6,0.9,1.2,1.3,1.9c0.6,0.9,1.1,1.9,1.7,2.9c0.4,0.6,0.7,1.3,1.2,1.8c1.3,1.6,2.1,3.6,2.9,5.5
									c0.7,1.5,1.2,3,1.7,4.5c0.4,1.2,0.7,2.5,1.1,3.8c0.7,1.9,0.9,3.8,1.1,5.8c0.1,1,0.5,2,0.6,3c0.1,0.9,0,1.8,0,2.6
									c0,0.8,0,1.5-0.1,2.3s-0.2,1.6-0.5,2.3c-0.5,1.7-1,3.4-1.7,5c-0.9,2.4-2.1,4.6-3.5,6.8c-1.1,1.7-2.4,3.2-3.9,4.5
									c-0.1,0.1-0.2,0.2-0.2,0.3c-1,1.5-2.4,2.7-3.7,4c-0.7,0.7-1.5,1.2-2.2,1.8c-2.5,2-5.3,3.5-8.2,5c-1.9,1-3.9,1.7-6,2
									c-0.4,0.1-0.9,0-1.4,0c-0.9,0.1-1.9,0.2-2.8,0.2c-3.6,0.1-7.1-0.5-10.5-1.7c-0.6-0.2-1.2-0.4-1.8-0.5
									c-1.7-0.4-3.2-1.4-4.8-2.2c-1.5-0.9-2.8-1.9-4.2-2.9c-0.5-0.3-0.8-0.7-1.2-1.1c-0.8-0.7-1.6-1.4-2.4-2.1
									c-0.6-0.6-1-1.2-1.5-1.8c-0.5-0.6-0.9-1.3-1.3-2c-0.1-0.2-0.2-0.3-0.3-0.5c-0.5-1.5-1-3.1-1.2-4.7c-0.1-0.8,0.1-1.6,0.3-2.4
									C-371.1,1039.9-371.1,1039.6-371,1039.2"/>
							</g>
							<path id="Fill-4_1_" class="st1" d="M-315.4,1014.2c0.2,0.8,0.4,1.6,0.5,2.5c0.3,2.4,0.5,4.8,0.7,7.2c0.1,1.7,0.3,3.3,0.4,5
								c0,0.6,0,1.2,0,1.8c-0.1,1.3-0.1,2.6-0.2,3.9c-0.3,2.8-1,5.5-2.5,7.9c-0.4,0.6-0.9,1.1-1.3,1.7c-1.3,1.6-2.6,3.1-3.8,4.7
								c-1.3,1.8-3.1,3.1-4.8,4.4c-0.9,0.7-1.8,1.6-2.9,2.1c-0.9,0.4-1.7,0.8-2.6,1.2c-1.3,0.6-2.6,1.3-4,1.7
								c-2.4,0.7-4.9,1.4-7.4,1.5c-2.6,0.1-5.2-0.2-7.7-1c-1.7-0.5-3.4-1-5-1.9c-1.1-0.6-2.1-1.2-3.2-1.9c0.8,0.1,1.5,0.4,2.2,0.8
								c1.2,0.7,2.4,1.2,3.7,1.5c1.1,0.3,2.2,0.7,3.4,1c2.1,0.6,4.2,0.6,6.4,0.5c2.7-0.1,5.3-0.9,7.9-1.7c1.2-0.4,2.3-1,3.4-1.6
								c0.6-0.3,1.3-0.5,1.9-0.9c0.9-0.5,1.7-1.1,2.5-1.6c1-0.7,1.9-1.4,2.8-2.2c0.8-0.7,1.6-1.4,2.3-2.3c1.5-1.8,2.9-3.6,4.4-5.4
								c1.4-1.6,2.3-3.5,3-5.5c0.7-1.9,0.8-3.8,0.9-5.8c0.1-1.7,0.1-3.3,0.1-5c0-0.9-0.1-1.9-0.1-2.8c-0.1-1.7-0.1-3.4-0.3-5.1
								c-0.1-1.3-0.4-2.6-0.6-3.9c0-0.3-0.1-0.6-0.1-0.9L-315.4,1014.2z"/>
							<path id="Fill-6_1_" class="st1" d="M-364.4,1016.4c-0.2,0.5-0.7,0.8-1.1,1c-1.9,0.9-3.8,1.8-5.7,2.7c-0.5,0.2-1,0.5-1.5,0.7
								c0.3,0.4,0.1,0.6-0.3,0.8c-1,0.5-2,1-3.1,1.4c-2,0.9-4.1,1.7-6.1,2.6c-1.1,0.5-2.2,1.2-3.2,1.9c-2.3,1.5-4.5,3.2-6.6,5
								c-1,0.9-1.9,2-2.8,3c-1.5,1.7-3.3,3.2-5.2,4.5c-0.2,0.1-0.4,0.2-0.6,0.3c-0.4-0.6-0.4-0.7,0-0.9c1.5-0.8,2.7-2,3.8-3.2
								c1.2-1.2,2.3-2.6,3.6-3.8c1.1-1.1,2.3-2,3.5-2.9c1.8-1.5,3.8-2.7,5.8-3.9c1.3-0.8,2.7-1.3,4-1.9c1.4-0.6,2.8-1.1,4.2-1.7
								c0.5-0.2,1-0.4,1.5-0.6c0.4-0.2,0.7-0.3,0.9-0.7c0.3-0.4,0.9-0.6,1.4-0.9c2.2-1.1,4.4-2.2,6.5-3.3c0.2-0.1,0.5-0.2,0.8-0.3
								C-364.5,1016.2-364.4,1016.3-364.4,1016.4"/>
							<path id="Fill-8_1_" class="st1" d="M-367.4,1019.9c-0.7,0.4-1.3,0.8-2,1.1c-2.4,1.2-4.7,2.6-7,4.2c-0.7,0.5-1.4,1.1-2,1.7
								c-0.9,0.8-1.9,1.5-2.8,2.3c-1.2,1-2.3,2.2-3.5,3.2c-2.4,2.1-5,4-7.9,5.6c-1.5,0.8-3.1,1.7-4.6,2.6c-0.2,0.1-0.4,0.2-0.6,0.3
								c-0.3,0.1-0.5,0-0.6-0.3s-0.1-0.5,0.2-0.7c0.3-0.2,0.7-0.3,1-0.5c1.9-1.1,3.8-2.1,5.7-3.2c2.5-1.4,4.7-3.3,6.9-5.2
								c0.7-0.6,1.4-1.3,2.1-2c0.7-0.6,1.5-1.1,2.2-1.7c0.8-0.6,1.7-1.3,2.5-2c1.5-1.2,3.1-2.1,4.9-2.9c0.4-0.2,0.8-0.5,1.2-0.7
								c0.3-0.1,0.5-0.3,0.8-0.4c0.9-0.4,1.9-0.9,2.8-1.3c0.2-0.1,0.4-0.1,0.6-0.2C-367.5,1019.8-367.4,1019.9-367.4,1019.9"/>
							<path id="Fill-10_1_" class="st1" d="M-321.8,1001.7c-0.1-0.2-0.3-0.4-0.4-0.6c-0.8-1.4-1.6-2.7-2.7-3.9
								c-0.3-0.3-0.5-0.5-0.8-0.8c-1.6-1.6-3.1-3.4-4.4-5.2c-1.4-2-2.6-4.2-3.4-6.5c-0.3-0.9-0.9-1.8-1.4-2.7
								c-0.8-1.4-1.6-2.8-2.7-4c-1.4-1.5-2.8-2.9-4.3-4.4c-0.1-0.2-0.2-0.3-0.5-0.7c0.8,0.1,1.2,0.5,1.6,0.9
								c1.6,1.4,3.1,2.9,4.5,4.5c0.2,0.3,0.4,0.5,0.6,0.8c0.9,1.6,1.8,3.2,2.6,4.9c0.3,0.6,0.6,1.3,0.9,2c0.4,1,0.9,1.9,1.5,2.8
								c0.8,1.1,1.5,2.3,2.3,3.3c0.9,1.2,1.7,2.4,2.8,3.4c0.7,0.6,1.3,1.3,1.9,2.1c0.7,1,1.3,2,1.8,3.1
								C-321.5,1001-321.3,1001.4-321.8,1001.7"/>
							<path id="Fill-12" class="st1" d="M-371.6,963c-0.1,0.1-0.2,0.1-0.3,0.2c-0.9,0.3-1.8,0.6-2.7,0.8c-2.5,0.7-4.8,1.8-7,3.1
								c-1,0.6-1.9,1.1-2.9,1.6c-0.8,0.5-1.7,0.9-2.5,1.5c-1.1,0.9-2,1.9-3,2.8c-1.5,1.6-2.7,3.3-3.6,5.3c-0.6,1.4-1.4,2.8-2.1,4.1
								c-0.1,0.2-0.3,0.4-0.4,0.6c-0.6,0.8-1.2,1.5-1.2,2.7c-0.5-0.5-0.6-0.9-0.5-1.4c0.1-0.3,0.2-0.5,0.3-0.7
								c0.9-1.1,1.4-2.4,2-3.7c0.6-1.2,1.2-2.4,1.9-3.7c0.7-1.4,1.8-2.5,2.8-3.7c0.8-0.8,1.6-1.6,2.5-2.3c2.6-2.2,5.6-3.6,8.7-5.1
								c2.3-1.1,4.7-1.8,7.2-2.4c0.2-0.1,0.4-0.1,0.7-0.1C-371.6,962.9-371.6,963-371.6,963"/>
							<path id="Fill-14" class="st1" d="M-363.2,960c0.5,0,0.8-0.1,1.1,0c1.2,0.3,2.3,0.6,3.4,1.2c0.6,0.3,1.2,0.5,1.8,0.8
								c0.5,0.2,0.9,0.5,1.3,0.7c1.1,0.6,2.2,1.2,3.4,1.5c0.7,0.2,1.5,0.5,2.2,0.8c1.4,0.6,2.9,1.2,4.3,1.7c1,0.3,1.7,1,2.5,1.6
								c1.5,1.2,3,2.5,4.5,3.7c0.2,0.2,0.4,0.4,0.6,0.6l-0.1,0.1c-0.2-0.1-0.4-0.2-0.6-0.3c-1.8-1.4-3.7-2.7-5.5-4.1
								c-0.9-0.7-1.9-1.2-3-1.5c-2-0.7-4.1-1.4-6-2.2c-1.3-0.5-2.5-1.3-3.8-1.9c-1.6-0.7-3.1-1.6-4.8-2
								C-362.3,960.6-362.7,960.5-363.2,960"/>
							<path id="Fill-16_1_" class="st1" d="M-375.7,1032.6c-0.1,0.2-0.2,0.3-0.3,0.3c-2,1.4-3.9,2.9-6,4.3c-2.6,1.7-5.4,3-8.2,4.3
								c-2.2,1-4.5,1.8-7,2.2c-0.3,0-0.5,0.1-0.8,0.1s-0.5,0-0.6-0.4c0-0.4,0.2-0.5,0.5-0.6c0.4,0,0.9-0.1,1.3-0.1
								c1.9-0.1,3.6-0.8,5.3-1.6c2.6-1.1,5.1-2.4,7.5-3.7c1.9-1,3.7-2,5.3-3.5c0.5-0.4,1.1-0.8,1.6-1.2
								C-376.6,1032.7-376.3,1032.4-375.7,1032.6"/>
							<path id="Fill-18_1_" class="st1" d="M-344.3,1057.7c-0.3,0-0.5,0.1-0.8,0.1c-2.6-0.1-5.1-0.4-7.6-1.4
								c-0.7-0.3-1.5-0.4-2.2-0.6c-2.8-0.7-5.5-1.8-8-3.3c-0.4-0.2-0.7-0.6-1-0.9c-0.5-0.7-1.2-1.2-1.8-1.8
								c-0.5-0.6-1.1-1.1-1.6-1.7s-0.5-1.3-0.4-1.9c0-0.2,0.2-0.3,0.4-0.5c0,0.2,0.1,0.5,0.1,0.7c0,0.9,0.4,1.6,1,2.3
								c0.3,0.3,0.6,0.6,0.9,0.8c0.5,0.5,1,1.1,1.6,1.6c0.5,0.5,1.1,1,1.8,1.3c2.1,1.3,4.4,2.2,6.8,2.8c1.4,0.4,2.8,0.6,4.2,0.9
								c0.3,0.1,0.7,0,0.8,0.5c0,0.1,0.3,0.2,0.4,0.2c1.1,0.2,2.3,0.3,3.4,0.4c0.6,0.1,1.2,0.1,1.9,0.2
								C-344.3,1057.6-344.3,1057.6-344.3,1057.7"/>
							<path id="Fill-20_1_" class="st1" d="M-342.6,1002.5c-0.7,0.8-1.8,0.8-2.6,1.3c0.1,0.8,0,0.9-0.7,1.2
								c-1.8,0.8-3.6,1.5-5.3,2.3c-0.6,0.3-1.4,0.5-1.7,1.3c-0.1,0.1-0.4,0.1-0.7,0.1c0-0.7,0.4-0.9,0.8-1.2c1-0.5,2-1.1,3-1.6
								s2.1-0.9,3.2-1.4c0.2-0.1,0.4-0.2,0.5-0.3c0-0.1,0-0.1-0.1-0.2c-0.6,0.2-1.1,0.4-1.7,0.6c-1.1,0.4-2.1,0.7-3.2,1.1
								c-0.4,0.1-0.7,0.4-1.1,0.6c-0.2-0.3-0.2-0.4,0.1-0.6c0.6-0.3,1.1-0.5,1.7-0.7c0.8-0.3,1.7-0.6,2.5-0.9c0.9-0.3,1.9-0.7,2.9-1
								c0.2-0.1,0.6-0.1,0.7-0.3C-343.9,1002.2-343.2,1002.5-342.6,1002.5"/>
							<path id="Fill-22_1_" class="st1" d="M-339.8,1042c-0.1-0.4,0.2-0.5,0.4-0.6c0.9-0.4,1.8-0.9,2.7-1.2c2.5-0.9,5-1.8,7.6-2.7
								c2-0.7,4.1-1.3,6.1-1.8c0.6-0.2,1.2-0.2,1.8-0.1c-0.4,0.2-0.8,0.5-1.3,0.6c-3.5,0.8-6.9,2.1-10.3,3.2
								c-1.6,0.5-3.2,1.1-4.8,1.7c-0.6,0.2-1.2,0.5-1.8,0.8C-339.5,1041.9-339.6,1041.9-339.8,1042"/>
							<path id="Fill-24_1_" class="st1" d="M-325.1,1001.8c0.5-0.1,0.7,0.1,0.8,0.3c0.2,0.2,0.3,0.4,0.4,0.7
								c1.1,1.9,2.7,3.5,3.5,5.5c0.7,1.5,1.3,3,1.9,4.6c0.4,1.2,0.8,2.3,1.1,3.5c0.4,1.8,0.8,3.5,1.1,5.3c0.1,0.3,0,0.5-0.1,0.8
								c-0.1-0.5-0.2-1-0.3-1.5c-0.5-1.9-0.9-3.9-1.5-5.8c-0.3-1-0.7-1.9-1.1-2.9c-0.2-0.5-0.3-0.9-0.5-1.4c-0.8-2-2.1-3.8-3.3-5.6
								c-0.3-0.4-0.4-0.9-0.7-1.3C-324.1,1003.2-324.6,1002.5-325.1,1001.8"/>
							<path id="Fill-26_1_" class="st1" d="M-339.2,1053.8c0.3-0.2,0.5-0.4,0.8-0.5c2.5-1.1,4.9-2.6,7.1-4.5
								c1.3-1.1,2.4-2.4,3.4-3.8c0.5-0.7,1-1.5,1.5-2.3c0.1-0.1,0.2-0.3,0.5-0.6c-0.1,0.3-0.1,0.5-0.1,0.6c-0.8,1.3-1.5,2.7-2.4,4
								c-1,1.4-2.2,2.6-3.6,3.6c-1.4,0.9-2.6,2.1-4.1,2.8c-0.7,0.3-1.4,0.6-2.1,0.9c-0.3,0.1-0.6,0.1-0.9,0.1
								C-339.2,1054-339.2,1053.9-339.2,1053.8"/>
							<path id="Fill-28_1_" class="st1" d="M-340.3,1044.6c0-0.7,0.3-0.9,0.7-1.1c1.6-0.7,3.2-1.4,4.8-2c2.2-0.8,4.4-1.4,6.6-2.1
								c0.4-0.1,0.8-0.2,1.3-0.2c0.1,0,0.3,0.1,0.5,0.2c-0.3,0.4-0.7,0.5-1,0.6c-1.8,0.5-3.5,1-5.3,1.5c-1.8,0.6-3.5,1.2-5.3,1.9
								c-0.5,0.2-1,0.5-1.5,0.8C-339.8,1044.4-340,1044.5-340.3,1044.6"/>
							<path id="Fill-30_1_" class="st1" d="M-340.7,1039.8c0.2-0.1,0.3-0.2,0.5-0.2c1.1-0.4,2.2-0.7,3.3-1.2c1-0.4,2-0.8,3-1.2
								c2.8-1.2,5.6-2.4,8.3-3.6c1.3-0.6,2.7-1.1,4.1-1.6c0.4-0.1,0.8-0.3,1.2,0.2c-1.1,0.6-2.3,0.8-3.4,1.3s-2.3,0.9-3.4,1.4
								c-1.1,0.5-2.2,0.9-3.4,1.4c-1.1,0.5-2.3,0.9-3.4,1.3s-2.3,0.8-3.4,1.2c-1.1,0.4-2.3,0.8-3.4,1.2
								C-340.7,1040-340.7,1039.9-340.7,1039.8"/>
							<path id="Fill-32" class="st1" d="M-361.7,971.5c-2.1,0.6-4.1,1-6,1.6c-2,0.6-3.9,1.4-5.8,2.1c-1.9,0.7-3.7,1.4-5.6,2.2
								c-0.1-0.4,0.1-0.5,0.3-0.6c2.7-1.1,5.4-2.1,8.1-3.2c1.6-0.6,3.3-1.1,4.9-1.6c1.1-0.3,2.3-0.4,3.5-0.6
								C-362.1,971.4-362,971.5-361.7,971.5"/>
							<path id="Fill-34" class="st1" d="M-377.3,979.5c0.2-0.1,0.3-0.3,0.5-0.4c1.5-0.6,3.1-1.3,4.6-1.9c1.3-0.5,2.6-1.1,4-1.7
								c2.2-0.9,4.5-1.7,6.9-2.1c0.1,0,0.2,0,0.5,0c-0.6,0.4-1,0.6-1.5,0.7c-3.1,0.9-6.1,2-9.1,3.3c-1.8,0.8-3.7,1.5-5.6,2.2
								C-377.1,979.6-377.2,979.6-377.3,979.5C-377.3,979.7-377.3,979.6-377.3,979.5"/>
							<path id="Fill-36" class="st1" d="M-359.1,975.8c-1.3,0.7-2.5,0.9-3.7,1.4s-2.3,0.9-3.5,1.3c-1.2,0.5-2.4,1-3.5,1.5
								s-2.3,1.1-3.6,1.7c0.1-0.4,0.2-0.6,0.3-0.6c0.3-0.2,0.6-0.3,0.8-0.5c3.5-1.9,7.1-3.3,10.8-4.5c0.4-0.1,0.7-0.3,1.1-0.4
								C-360,975.6-359.6,975.4-359.1,975.8"/>
							<path id="Fill-38_1_" class="st1" d="M-337.3,1033.9c0.9-0.3,1.8-0.7,2.7-1c1.3-0.4,2.7-0.8,3.9-1.4c0.9-0.4,1.8-0.7,2.7-1.1
								c2-0.9,4-1.8,6-2.6c0.4-0.2,0.8-0.4,1.3,0c-0.1,0.1-0.1,0.3-0.2,0.3C-326.3,1030.2-331.6,1032.7-337.3,1033.9"/>
							<path id="Fill-40" class="st1" d="M-390.2,969.8c0.1-0.2,0.2-0.4,0.4-0.5c0.8-0.7,1.5-1.4,2.3-2c1.5-1.1,3-2.1,4.7-2.8
								c2.2-1,4.3-2.1,6.5-2.8c0.9-0.3,1.7-0.6,2.6-0.8c0.4-0.1,0.7-0.2,1.2,0.2c-0.3,0.1-0.4,0.3-0.6,0.3c-3,0.4-5.6,1.7-8.3,3
								c-2.2,1-4.4,2.3-6.3,3.8c-0.6,0.4-1.1,1-1.7,1.4c-0.2,0.2-0.4,0.3-0.6,0.4C-390.1,969.9-390.2,969.8-390.2,969.8"/>
							<path id="Fill-42_1_" class="st1" d="M-328.4,998.4c-0.2-0.2-0.4-0.3-0.6-0.5c-1.4-1.5-2.7-3.1-3.7-4.9
								c-1.1-1.9-2.2-3.8-3.3-5.6c-0.2-0.4-0.6-0.8-0.8-1.2c-0.1-0.1-0.2-0.3-0.2-0.4c0-0.2,0-0.4,0-0.5c0.2,0.1,0.5,0.1,0.6,0.2
								c0.3,0.5,0.6,1,0.9,1.6c1,1.7,2,3.5,2.9,5.2c0,0,0,0,0,0.1c0.9,2,2.4,3.7,3.8,5.3c0.2,0.2,0.3,0.4,0.5,0.6
								C-328.3,998.3-328.4,998.4-328.4,998.4"/>
							<path id="Fill-44" class="st1" d="M-339.1,986.2c-0.1-0.1-0.2-0.2-0.2-0.2c-1.3-3.3-3.3-5.9-5.9-8c-0.4-0.4-1-0.5-1.5-0.8
								c-0.2-0.1-0.2-0.1-0.4-0.6c0.3,0.1,0.5,0.1,0.7,0.2c1.1,0.5,2,1.2,2.8,2c1.5,1.4,2.7,3.1,3.7,4.8
								C-339.4,984.3-338.9,985.1-339.1,986.2"/>
							<path id="Fill-46" class="st1" d="M-397.8,996c0-0.3-0.1-0.6,0-0.9c0.3-1.2,0.6-2.5,1-3.7c0.5-1.5,1-3,1.6-4.4
								c0.5-1.1,1.2-2.1,1.9-3.2c0.2-0.3,0.6-0.6,1-0.7c-0.3,0.8-0.8,1.2-1.2,1.9c-0.4,0.7-0.8,1.3-1.1,2c-0.4,0.7-0.7,1.5-1,2.2
								s-0.5,1.5-0.8,2.2c-0.2,0.8-0.5,1.5-0.7,2.3c-0.2,0.7-0.3,1.5-0.5,2.2C-397.7,996-397.8,996-397.8,996"/>
							<path id="Fill-48_1_" class="st1" d="M-321.9,1011.7c-0.6-1.4-1.2-2.9-1.9-4.2c-0.7-1.4-1.3-2.8-2.1-4.1s-1.7-2.6-2.7-3.9
								c0.5-0.1,0.8,0.1,1,0.4c0.6,0.7,1.2,1.5,1.7,2.2c1.3,2.2,2.3,4.4,3.2,6.8c0.3,0.8,0.6,1.5,0.9,2.3c0.1,0.2,0.1,0.3,0.1,0.5
								H-321.9z"/>
							<path id="Fill-50" class="st1" d="M-336.1,984.7c-0.1-0.3-0.3-0.5-0.4-0.8c-1.3-2-2.5-4-3.8-6c-0.8-1.2-1.7-2.4-3-3.2
								c-0.1-0.1-0.1-0.2-0.2-0.3c0,0,0-0.1,0-0.3c0.2,0.1,0.4,0.1,0.6,0.2c0.7,0.6,1.5,1.2,2.1,2c1.1,1.4,2,2.9,3,4.3
								c0.5,0.7,1,1.5,1.4,2.2c0.3,0.5,0.6,1.1,0.6,1.7C-335.9,984.6-336,984.7-336.1,984.7"/>
							<path id="Fill-52_1_" class="st1" d="M-333.1,1003.5c-0.3-0.6-0.5-1.1-0.7-1.6c-1.1-2.1-2.3-4.2-3.5-6.3
								c-0.2-0.4-0.6-0.8-0.5-1.5c0.5,0,0.7,0.4,0.8,0.7c0.6,1,1.3,2,1.8,3.1c0.8,1.6,1.4,3.2,2.2,4.8
								C-332.9,1002.9-332.7,1003.2-333.1,1003.5"/>
							<path id="Fill-54" class="st1" d="M-357,978.7c-0.2,0.6-0.6,0.7-1,0.8c-3.4,0.9-6.8,1.9-10.3,2.8c-0.3,0.1-0.6,0.1-1,0.1
								c2-0.8,4-1.5,6.1-2C-361.1,979.8-359.1,979.1-357,978.7"/>
							<path id="Fill-56" class="st1" d="M-365.7,968c-2.3,0.5-4.6,0.8-6.9,1.5c-2.2,0.7-4.4,1.6-6.6,2.5c0-0.4,0.4-0.4,0.7-0.6
								c1.3-0.6,2.5-1.2,3.8-1.7c1.7-0.6,3.4-1.1,5.2-1.6c1-0.3,2.1-0.3,3.1-0.5c0.3,0,0.5,0,0.8,0
								C-365.7,967.9-365.7,967.9-365.7,968"/>
							<path id="Fill-58" class="st1" d="M-396.2,994.5c0.1-0.4,0.2-0.8,0.4-1.2c0.4-1.1,0.9-2.1,1.3-3.1c0.6-1.5,1.3-2.9,2.2-4.2
								c0.3-0.5,0.7-1,1.1-1.5c0.2-0.3,0.5-0.4,0.9-0.6c0,0.1-0.1,0.3-0.1,0.3c-1.5,1.5-2.4,3.4-3.3,5.4c-0.7,1.5-1.3,3-1.9,4.5
								c-0.1,0.1-0.2,0.2-0.3,0.4C-396.1,994.5-396.1,994.5-396.2,994.5"/>
							<path id="Fill-60_1_" class="st1" d="M-328.5,996.2c-1.8-1-6.9-10.6-6.8-12.4c0.4,0,0.5,0.3,0.5,0.6c0.7,3,2.1,5.6,3.7,8.2
								c0.7,1.1,1.5,2.2,2.3,3.3C-328.7,995.9-328.6,996.1-328.5,996.2"/>
							<path id="Fill-62_1_" class="st1" d="M-332.3,1043.5c-0.3,0.1-0.5,0.3-0.7,0.3c-2.1,0.4-4,1.2-6,2.1c-0.1,0-0.2,0.1-0.2,0.1
								c-0.2,0-0.3-0.1-0.5-0.2c0.1-0.2,0.1-0.4,0.3-0.5c1.2-0.5,2.4-1,3.6-1.5c0.5-0.2,1-0.4,1.6-0.6
								C-333.6,1043.1-333,1043.2-332.3,1043.5"/>
							<path id="Fill-64" class="st1" d="M-401.5,1033.7c-0.2,0.7-0.5,1-0.9,1.3c-1.4,1.1-2.8,2.2-4.2,3.4c-0.3,0.2-0.6,0.4-0.8,0.5
								c-0.4-0.4-0.3-0.7,0-0.9c1.6-1.3,3.1-2.8,4.9-3.8C-402.2,1034-402,1033.9-401.5,1033.7"/>
							<path id="Fill-66_1_" class="st1" d="M-338.4,997.5c0.2,0.1,0.4,0.2,0.5,0.4c1.3,2.3,2.7,4.7,4,7c0.2,0.3,0.4,0.6,0.6,1.1
								c-0.1-0.1-0.3-0.1-0.3-0.2c-0.8-1.2-1.6-2.4-2.4-3.7c-0.5-0.8-1-1.6-1.5-2.4C-337.9,999-338.4,998.4-338.4,997.5
								C-338.6,997.7-338.5,997.6-338.4,997.5"/>
							<path id="Fill-68_1_" class="st1" d="M-341.4,1027.5c-0.1-0.2-0.2-0.3-0.2-0.4s0-0.1,0.1-0.1c0.8-0.4,1.7-0.8,2.5-1.1
								c2.1-0.8,4.2-1.6,6.3-2.4c0.1,0.6-0.3,0.7-0.5,0.8c-1,0.4-2,0.8-3,1.2c-1.4,0.5-2.8,1.1-4.2,1.6
								C-340.7,1027.3-341,1027.4-341.4,1027.5"/>
							<path id="Fill-70_1_" class="st1" d="M-327.2,1027.5c-1.3,0.4-2.7,0.9-4,1.2c-1.8,0.5-3.5,1.1-5.2,2
								c-0.1,0.1-0.3,0.2-0.4,0.2s-0.2-0.1-0.3-0.1c0-0.1,0-0.3,0-0.3c0.2-0.2,0.3-0.3,0.5-0.4c1.3-0.6,2.5-1.2,3.8-1.7
								c0.8-0.3,1.7-0.3,2.6-0.5c0.4-0.1,0.7-0.2,1-0.3c0.6-0.2,1.2-0.4,1.8-0.3C-327.2,1027.4-327.2,1027.4-327.2,1027.5"/>
							<path id="Fill-72_1_" class="st1" d="M-343.9,1007c-0.4,0.4-0.9,0.5-1.4,0.6c-1,0.3-2,0.5-3,0.7c-0.9,0.2-1.9,0.5-2.8,0.8
								c-0.3,0.1-0.5,0.3-0.8,0.5c-0.2,0.2-0.4,0.3-0.6,0c-0.2-0.2-0.1-0.5,0.2-0.6c0.9-0.4,1.9-0.8,2.9-1.1
								c1.6-0.5,3.3-0.9,4.9-1.4C-344.2,1006.7-344,1006.7-343.9,1007"/>
							<path id="Fill-74_1_" class="st1" d="M-331.8,1025.6c-0.8,0.5-1.6,0.8-2.5,1c-1.4,0.4-2.7,0.8-4.1,1.2
								c-0.5,0.2-1.1,0.5-1.6,0.7c-0.4-0.5-0.4-0.7,0.1-0.9c2-0.6,4-1.2,6.1-1.8c0.6-0.2,1.3-0.3,2-0.4
								C-331.8,1025.5-331.8,1025.6-331.8,1025.6"/>
							<path id="Fill-76" class="st1" d="M-405.7,1041.2c-0.3-0.3-0.2-0.5,0-0.7c0.5-0.5,1-1,1.6-1.3c1.1-0.7,2.3-1.4,3.5-2
								c0.1-0.1,0.3-0.1,0.4-0.1c0.1,0.5-0.2,0.7-0.5,0.8c-0.6,0.4-1.3,0.8-1.9,1.2c-0.7,0.5-1.4,1-2.1,1.5
								C-405,1040.8-405.3,1041.1-405.7,1041.2"/>
							<path id="Fill-78_1_" class="st1" d="M-373.3,1018.8c0.1-0.1,0.1-0.3,0.3-0.3c2.6-1.2,5-2.9,7.8-3.9l0.1,0.1
								c-0.2,0.2-0.4,0.5-0.6,0.6c-0.5,0.3-1,0.6-1.6,0.8c-1.8,0.9-3.6,1.7-5.4,2.6c-0.1,0.1-0.3,0.1-0.4,0.1
								C-373.2,1018.9-373.2,1018.9-373.3,1018.8"/>
							<path id="Fill-80_1_" class="st1" d="M-341.4,1008.9c-0.1,0.6-0.5,0.8-0.9,0.9c-1.1,0.3-2.3,0.7-3.5,1
								c-1.3,0.4-2.6,0.7-3.9,1c-0.1,0-0.2,0-0.4,0c0.3-0.4,1.7-0.9,2.8-1.2c1-0.2,2-0.5,2.9-0.8
								C-343.4,1009.6-342.5,1009.2-341.4,1008.9"/>
							<path id="Fill-82_1_" class="st1" d="M-340,1012.1c0,0.4-0.3,0.6-0.5,0.7c-0.6,0.3-1.3,0.6-1.9,0.8c-1.6,0.6-3.2,1.2-4.8,1.8
								c-0.1,0-0.3,0-0.5,0c0.2-0.2,0.3-0.4,0.4-0.5c0.3-0.2,0.7-0.4,1.1-0.5c2-0.8,4-1.5,6-2.3
								C-340.2,1012.1-340.1,1012.1-340,1012.1"/>
							<path id="Fill-84" class="st1" d="M-376.4,973c0.1-0.1,0.2-0.2,0.4-0.3c3.3-1.3,6.5-3,9.9-4c0,0.1,0,0.1,0.1,0.2
								c-1.7,0.7-3.4,1.4-5.1,2.1c-1.7,0.7-3.4,1.4-5.1,2.2C-376.3,973.1-376.3,973-376.4,973"/>
							<path id="Fill-86_1_" class="st1" d="M-332.8,1000.4c-1.6-3.1-3.1-6.2-4.8-9.5C-336.8,991.5-333.1,998.7-332.8,1000.4"/>
							<path id="Fill-88_1_" class="st1" d="M-337.8,1050.6c-0.4,0.1-0.7,0.1-0.9,0.1c-0.9,0.1-1.7,0.2-2.6,0.2
								c-0.1,0-0.3,0.1-0.4,0c-0.1,0-0.3-0.1-0.4-0.2s0-0.2,0-0.3l0.1-0.1c1.2-0.3,2.3-0.6,3.8-0.1
								C-338.1,1050.4-338.1,1050.4-337.8,1050.6"/>
							<path id="Fill-90_1_" class="st1" d="M-327,990.9c-2.3-2.3-3.9-4.9-5.6-7.5c0.1,0,0.1-0.1,0.1-0.1c0.9,1.3,1.8,2.5,2.7,3.8
								C-328.8,988.3-327.9,989.6-327,990.9"/>
							<path id="Fill-92" class="st1" d="M-370.1,966.8c-2.5,0.7-5,1.5-7.4,2.2c0.2-0.3,1-0.7,2.2-1.1c0.9-0.3,1.7-0.6,2.6-0.8
								c0.8-0.2,1.7-0.4,2.5-0.5C-370.1,966.6-370.1,966.7-370.1,966.8"/>
							<path id="Fill-94_1_" class="st1" d="M-340.3,1047.7c-0.2-0.5,0.2-0.6,0.5-0.7c0.8-0.3,1.7-0.3,2.8,0.1
								c-0.2,0.1-0.2,0.2-0.3,0.2c-1-0.1-1.9,0.1-2.7,0.4C-340.1,1047.8-340.2,1047.7-340.3,1047.7"/>
							<path id="Fill-96_1_" class="st1" d="M-361.7,1015c-0.2-0.1-0.3-0.1-0.4-0.2c-0.3-0.3-0.6-0.7-0.8-1
								c-0.2-0.2-0.1-0.4,0.1-0.5c0.2-0.2,0.3,0,0.4,0.1c0.2,0.2,0.4,0.4,0.6,0.6c0.1,0.2,0.2,0.4,0.3,0.6
								C-361.5,1014.7-361.6,1014.8-361.7,1015"/>
							<path id="Fill-98_1_" class="st1" d="M-360.3,1018.9c-0.3-0.5-0.5-1-0.8-1.4c0-0.1,0-0.2,0-0.3c0.1-0.1,0.3-0.1,0.3-0.1
								c0.4,0.2,0.5,0.6,0.6,0.9C-359.9,1018.3-359.8,1018.6-360.3,1018.9"/>
							<path id="Fill-100" class="st1" d="M-385.9,1007.4c0.5-0.7,2.5-0.9,3.4-0.5c-0.7,0.1-1.2,0.1-1.8,0.2
								C-384.9,1007.2-385.4,1007.3-385.9,1007.4"/>
							<path id="Fill-102_1_" class="st1" d="M-314.6,1013.9c-0.4-1.6-0.8-3.1-1.2-4.7c0.1,0,0.1,0,0.2-0.1c0.4,1.6,0.8,3.1,1.2,4.7
								C-314.5,1013.9-314.5,1013.9-314.6,1013.9"/>
							<path id="Fill-104" class="st1" d="M-371,963.7c0.3,0,0.6-0.1,0.9-0.1v0.1C-370.4,963.7-370.7,963.8-371,963.7
								C-370.9,963.8-371,963.7-371,963.7"/>
							<path id="Fill-106_1_" class="st1" d="M-350.8,1045.5c-0.4,0.5-0.9,0.3-1.3,0.3c-1.1-0.1-2.1-0.3-3.1-0.5
								c-1.9-0.3-3.8-0.7-5.7-1c-0.2,0-0.5,0-0.7-0.1s-0.3-0.2-0.5-0.3c0.1-0.2,0.2-0.4,0.4-0.5c0.2-0.1,0.4,0,0.6,0
								c2.7,0.7,5.4,1,8.1,1.4c0.6,0.1,1.1,0.2,1.7,0.3C-351.2,1045.3-351,1045.4-350.8,1045.5"/>
							<path id="Fill-108_1_" class="st1" d="M-351.9,1046.9c-0.5,0.3-0.9,0.2-1.3,0.1c-2.2-0.6-4.4-1.2-6.6-1.8
								c-0.2-0.1-0.4-0.1-0.5-0.2s-0.2-0.3-0.3-0.4c0.1-0.1,0.3-0.2,0.4-0.2s0.3,0,0.4,0.1c1.9,0.7,3.8,1.1,5.7,1.6
								C-353.5,1046.4-352.8,1046.6-351.9,1046.9"/>
						</g>
					</g>
				</g>
			</g>
		</g>
	</g>
</g>
</svg>
