<?xml version="1.0" encoding="UTF-8"?>
<svg width="736px" height="795px" viewBox="0 0 736 795" version="1.1" xmlns="http://www.w3.org/2000/svg" xmlns:xlink="http://www.w3.org/1999/xlink">
    <title>Central Minnesota Vegetable Growers Association - Icon</title>
    <g id="Designs" stroke="none" stroke-width="1" fill="none" fill-rule="evenodd">
        <g id="About-the-Market" transform="translate(-650.000000, -2212.000000)" fill="#304939" fill-rule="nonzero">
            <g id="Central-Minnesota-Vegetable-Growers-Association---Icon" transform="translate(650.000000, 2212.000000)">
                <path d="M199.326578,794.242765 C195.54177,783.641479 192.513923,772.282958 191.756962,760.924437 C191,756.381029 314.384748,751.837621 314.384748,747.294212 C314.384748,745.022508 191,730.635048 191,728.363344 C193.270885,710.946946 198.569616,693.530547 206.896195,677.628618 C208.410118,674.599679 432.470765,676.871383 433.227726,673.842444 C435.498611,666.270097 222.792389,654.911576 225.820236,651.882637 C259.88351,613.263666 319.68348,585.245981 409.004954,579.945338 C589.918787,569.344052 663.344067,649.610933 658.802297,735.178457 C658.802297,741.236335 498.326428,729.120579 497.569466,734.421222 C496.812505,738.207396 655.77445,760.167203 654.260527,764.710611 C653.503565,766.982315 647.447872,785.913183 645.933949,788.942122 C645.176987,791.213826 644.420025,792.728296 642.906102,795" id="Path"></path>
                <path d="M443.256498,672 C453.838181,578.354324 434.942319,569.291839 460.640691,561.739769 C485.583229,554.187698 542.270815,535.307522 540.003312,493.771133 C537.735808,452.234745 591.400057,488.484684 623.145105,461.297229 C654.890153,434.109775 654.890153,429.578533 648.087643,382.755695 C641.285132,335.932857 715.356912,376.714038 725.938594,364.630725 C737.276112,351.792205 751.636967,258.146529 690.414374,261.922565 C629.191781,265.6986 639.017629,193.953929 601.981739,239.266353 C564.94585,284.578777 528.665795,239.266353 523.374953,287.599605 C518.084112,335.932857 521.10745,344.995342 483.315726,376.714038 C445.524002,408.432735 429.651477,434.864982 429.651477,434.864982 C429.651477,434.864982 410.755615,415.984806 424.360636,344.240135 C437.965657,272.495464 481.048222,232.469489 454.594015,184.136237 C428.139809,136.558192 407.732278,156.948783 420.581464,113.146773 C433.43065,69.3447635 460.640691,-7.68635699 415.290622,0.620920706 C369.940553,8.9281984 258.832885,18.7458902 289.066264,58.0166575 C319.299643,97.2874248 265.635395,102.573874 265.635395,134.292571 C265.635395,166.011268 256.565381,218.120555 295.11294,239.266353 C333.660498,260.41215 367.67305,399.37025 353.312195,423.536876 C338.95134,448.458709 258.07705,269.474635 243.716195,212.834106 C229.35534,156.193576 208.947809,117.678016 165.865243,126.7405 C122.782678,135.047778 68.362595,156.193576 60.8042502,122.964465 C53.2459054,89.7353542 -24.6050463,183.38103 7.89583647,199.240378 C40.3967192,215.099727 115.980167,254.370494 80.4559468,295.906882 C44.9317261,337.443271 161.330236,362.365104 201.389464,363.120311 C240.692857,363.875518 245.983698,363.875518 256.565381,440.151432 C267.902898,516.427345 303.427119,557.963733 336.683836,551.922077 C369.940553,545.88042 396.39476,568.536632 388.836415,618.380299 C381.278071,668.223965 389.59225,638.015682 389.59225,638.015682 L443.256498,672 Z" id="Path"></path>
            </g>
        </g>
    </g>
</svg>
