<?xml version="1.0" encoding="UTF-8"?>
<svg width="546px" height="215px" viewBox="0 0 546 215" version="1.1" xmlns="http://www.w3.org/2000/svg" xmlns:xlink="http://www.w3.org/1999/xlink">
    <title>Central Minnesota Vegetable Growers Association</title>
    <g id="Designs" stroke="none" stroke-width="1" fill="none" fill-rule="evenodd">
        <g id="About-the-Market" transform="translate(-217.000000, -2212.000000)" fill="#F1C23D" fill-rule="nonzero">
            <g id="Central-Minnesota-Vegetable-Growers-Association" transform="translate(217.000000, 2212.000000)">
                <g id="Group" transform="translate(175.000000, 198.000000)">
                    <g transform="translate(0.000000, 0.290598)" id="Shape">
                        <path d="M6.81412639,0.508547009 L8.55390335,0.508547009 L14.570632,15.9102564 L12.6133829,15.9102564 L11.0185874,11.7692308 L4.34944238,11.7692308 L2.75464684,15.9102564 L0.79739777,15.9102564 L6.81412639,0.508547009 Z M5.07434944,9.95299145 L10.366171,9.95299145 L7.75650558,3.12393162 L5.07434944,9.95299145 Z"></path>
                        <path d="M15.295539,16.4188034 L12.2509294,16.4188034 L10.6561338,12.2777778 L4.71189591,12.2777778 L3.11710037,16.4188034 L0,16.4188034 L6.45167286,0 L8.84386617,0 L15.295539,16.4188034 Z M12.9758364,15.4017094 L13.7732342,15.4017094 L8.19144981,1.01709402 L7.17657993,1.01709402 L1.52230483,15.4017094 L2.39219331,15.4017094 L3.98698885,11.2606838 L11.3085502,11.2606838 L12.9758364,15.4017094 Z M11.0910781,10.4615385 L4.34944238,10.4615385 L7.75650558,1.67094017 L11.0910781,10.4615385 Z M5.79925651,9.44444444 L9.56877323,9.44444444 L7.68401487,4.57692308 L5.79925651,9.44444444 Z"></path>
                    </g>
                    <g transform="translate(20.949814, 0.000000)">
                        <path d="M5.36431227,9.22649573 C3.11710037,8.20940171 1.1598513,7.19230769 1.1598513,4.5042735 C1.1598513,2.68803419 2.68215613,0.435897436 5.58178439,0.435897436 C8.48141264,0.435897436 9.93122677,2.68803419 9.93122677,2.68803419 L8.55390335,3.77777778 C8.55390335,3.77777778 7.46654275,2.17948718 5.58178439,2.17948718 C3.91449814,2.17948718 2.97211896,3.34188034 2.97211896,4.5042735 C2.97211896,6.1025641 4.27695167,6.68376068 6.37918216,7.62820513 C8.69888476,8.71794872 10.2211896,9.66239316 10.2211896,12.2051282 C10.2211896,14.7478632 8.19144981,16.4188034 5.43680297,16.4188034 C1.81226766,16.4188034 0.507434944,13.2222222 0.507434944,13.2222222 L2.02973978,12.2777778 C2.02973978,12.2777778 2.97211896,14.6752137 5.36431227,14.6752137 C6.81412639,14.6752137 8.26394052,13.8034188 8.26394052,12.2777778 C8.33643123,10.6794872 7.10408922,10.025641 5.36431227,9.22649573 Z" id="Path"></path>
                        <path d="M5.50929368,17 C1.52230483,17 0.217472119,13.5854701 0.144981413,13.4401709 L0,13.0042735 L2.46468401,11.5512821 L2.68215613,12.1324786 C2.68215613,12.2051282 3.55204461,14.1666667 5.58178439,14.1666667 C6.74163569,14.1666667 7.9739777,13.5854701 7.9739777,12.2777778 C7.9739777,11.042735 7.03159851,10.534188 5.29182156,9.73504274 C3.26208178,8.79059829 0.79739777,7.62820513 0.79739777,4.57692308 C0.79739777,2.32478632 2.68215613,0 5.7267658,0 C8.84386617,0 10.4386617,2.3974359 10.5111524,2.47008547 L10.8011152,2.83333333 L8.62639405,4.57692308 L8.33643123,4.14102564 C8.33643123,4.14102564 7.39405204,2.76068376 5.79925651,2.76068376 C4.42193309,2.76068376 3.69702602,3.70512821 3.69702602,4.5042735 C3.69702602,5.66666667 4.6394052,6.17521368 6.81412639,7.19230769 C9.06133829,8.20940171 10.9460967,9.2991453 10.9460967,12.2051282 C10.7286245,14.965812 8.55390335,17 5.50929368,17 Z M1.23234201,13.4401709 C1.66728625,14.2393162 2.89962825,15.9102564 5.43680297,15.9102564 C7.9739777,15.9102564 9.71375465,14.3846154 9.71375465,12.2777778 C9.71375465,10.1709402 8.55390335,9.2991453 6.16171004,8.20940171 C3.98698885,7.19230769 2.46468401,6.46581197 2.46468401,4.57692308 C2.46468401,3.1965812 3.55204461,1.74358974 5.58178439,1.74358974 C7.10408922,1.74358974 8.11895911,2.61538462 8.62639405,3.12393162 L9.2063197,2.61538462 C8.69888476,2.03418803 7.46654275,0.944444444 5.58178439,0.944444444 C2.89962825,0.944444444 1.66728625,2.97863248 1.66728625,4.5042735 C1.66728625,6.75641026 3.26208178,7.7008547 5.58178439,8.71794872 L5.58178439,8.71794872 C7.24907063,9.51709402 8.84386617,10.2435897 8.84386617,12.2051282 C8.84386617,14.1666667 7.10408922,15.1111111 5.43680297,15.1111111 C3.4070632,15.1111111 2.3197026,13.7307692 1.88475836,12.9316239 L1.23234201,13.4401709 Z" id="Shape"></path>
                    </g>
                    <g transform="translate(38.565056, 0.000000)">
                        <path d="M5.36431227,9.22649573 C3.11710037,8.20940171 1.1598513,7.19230769 1.1598513,4.5042735 C1.1598513,2.68803419 2.68215613,0.435897436 5.58178439,0.435897436 C8.48141264,0.435897436 9.93122677,2.68803419 9.93122677,2.68803419 L8.55390335,3.77777778 C8.55390335,3.77777778 7.46654275,2.17948718 5.58178439,2.17948718 C3.91449814,2.17948718 2.97211896,3.34188034 2.97211896,4.5042735 C2.97211896,6.1025641 4.27695167,6.68376068 6.37918216,7.62820513 C8.69888476,8.71794872 10.2211896,9.66239316 10.2211896,12.2051282 C10.2211896,14.7478632 8.19144981,16.4188034 5.43680297,16.4188034 C1.81226766,16.4188034 0.507434944,13.2222222 0.507434944,13.2222222 L2.02973978,12.2777778 C2.02973978,12.2777778 2.97211896,14.6752137 5.36431227,14.6752137 C6.81412639,14.6752137 8.26394052,13.8034188 8.26394052,12.2777778 C8.33643123,10.6794872 7.10408922,10.025641 5.36431227,9.22649573 Z" id="Path"></path>
                        <path d="M5.50929368,17 C1.52230483,17 0.217472119,13.5854701 0.144981413,13.4401709 L0,13.0042735 L2.46468401,11.5512821 L2.68215613,12.1324786 C2.68215613,12.2051282 3.55204461,14.1666667 5.58178439,14.1666667 C6.74163569,14.1666667 7.9739777,13.5854701 7.9739777,12.2777778 C7.9739777,11.042735 7.03159851,10.534188 5.29182156,9.73504274 C3.26208178,8.79059829 0.79739777,7.62820513 0.79739777,4.57692308 C0.79739777,2.32478632 2.68215613,0 5.7267658,0 C8.84386617,0 10.4386617,2.3974359 10.5111524,2.47008547 L10.8011152,2.83333333 L8.62639405,4.57692308 L8.33643123,4.14102564 C8.33643123,4.14102564 7.39405204,2.76068376 5.79925651,2.76068376 C4.42193309,2.76068376 3.69702602,3.70512821 3.69702602,4.5042735 C3.69702602,5.66666667 4.6394052,6.17521368 6.81412639,7.19230769 C9.06133829,8.20940171 10.9460967,9.2991453 10.9460967,12.2051282 C10.8011152,14.965812 8.55390335,17 5.50929368,17 Z M1.23234201,13.4401709 C1.66728625,14.2393162 2.89962825,15.9102564 5.43680297,15.9102564 C7.9739777,15.9102564 9.71375465,14.3846154 9.71375465,12.2777778 C9.71375465,10.1709402 8.55390335,9.2991453 6.16171004,8.20940171 C3.98698885,7.19230769 2.46468401,6.46581197 2.46468401,4.57692308 C2.46468401,3.1965812 3.55204461,1.74358974 5.58178439,1.74358974 C7.10408922,1.74358974 8.11895911,2.61538462 8.62639405,3.12393162 L9.2063197,2.61538462 C8.69888476,2.03418803 7.46654275,0.944444444 5.58178439,0.944444444 C2.89962825,0.944444444 1.66728625,2.97863248 1.66728625,4.5042735 C1.66728625,6.75641026 3.26208178,7.7008547 5.58178439,8.71794872 L5.58178439,8.71794872 C7.24907063,9.51709402 8.84386617,10.2435897 8.84386617,12.2051282 C8.84386617,14.1666667 7.10408922,15.1111111 5.43680297,15.1111111 C3.4070632,15.1111111 2.3197026,13.7307692 1.88475836,12.9316239 L1.23234201,13.4401709 Z" id="Shape"></path>
                    </g>
                    <g transform="translate(55.962825, 0.000000)" id="Shape">
                        <path d="M15.7304833,8.5 C15.7304833,12.9316239 12.5408922,16.491453 8.11895911,16.491453 C3.69702602,16.491453 0.507434944,13.0042735 0.507434944,8.5 C0.507434944,3.9957265 3.69702602,0.508547009 8.11895911,0.508547009 C12.5408922,0.508547009 15.7304833,3.9957265 15.7304833,8.5 Z M13.7732342,8.5 C13.7732342,5.23076923 11.5260223,2.32478632 8.11895911,2.32478632 C4.71189591,2.32478632 2.46468401,5.23076923 2.46468401,8.5 C2.46468401,11.7692308 4.71189591,14.6752137 8.11895911,14.6752137 C11.5260223,14.6752137 13.7732342,11.7692308 13.7732342,8.5 Z"></path>
                        <path d="M8.11895911,17 C3.4795539,17 0,13.3675214 0,8.5 C0,3.63247863 3.4795539,0 8.11895911,0 C12.7583643,0 16.2379182,3.63247863 16.2379182,8.5 C16.2379182,13.2948718 12.7583643,17 8.11895911,17 Z M8.11895911,1.01709402 C4.05947955,1.01709402 1.01486989,4.21367521 1.01486989,8.5 C1.01486989,12.7863248 4.05947955,15.982906 8.11895911,15.982906 C12.1784387,15.982906 15.2230483,12.7863248 15.2230483,8.5 C15.2230483,4.21367521 12.1784387,1.01709402 8.11895911,1.01709402 Z M8.11895911,15.1837607 C4.71189591,15.1837607 1.95724907,12.2051282 1.95724907,8.42735043 C1.95724907,4.64957265 4.6394052,1.67094017 8.11895911,1.67094017 C11.598513,1.67094017 14.2806691,4.64957265 14.2806691,8.42735043 C14.2806691,12.2777778 11.598513,15.1837607 8.11895911,15.1837607 Z M8.11895911,2.76068376 C4.92936803,2.76068376 3.04460967,5.66666667 3.04460967,8.42735043 C3.04460967,11.2606838 4.92936803,14.0940171 8.11895911,14.0940171 C11.3085502,14.0940171 13.1933086,11.1880342 13.1933086,8.42735043 C13.2657993,5.66666667 11.3085502,2.76068376 8.11895911,2.76068376 Z"></path>
                    </g>
                    <g transform="translate(78.579926, 0.000000)">
                        <path d="M12.3234201,4.06837607 C12.3234201,4.06837607 10.8736059,2.25213675 8.11895911,2.25213675 C4.78438662,2.25213675 2.46468401,5.15811966 2.46468401,8.42735043 C2.46468401,11.6965812 4.78438662,14.6025641 8.11895911,14.6025641 C10.8736059,14.6025641 12.5408922,12.5683761 12.5408922,12.5683761 L13.7732342,13.8760684 C13.7732342,13.8760684 11.6710037,16.4188034 8.11895911,16.4188034 C3.69702602,16.4188034 0.507434944,12.9316239 0.507434944,8.42735043 C0.507434944,3.92307692 3.69702602,0.435897436 8.11895911,0.435897436 C11.7434944,0.435897436 13.6282528,2.76068376 13.6282528,2.76068376 L12.3234201,4.06837607 Z" id="Path"></path>
                        <path d="M8.11895911,17 C3.4795539,17 0,13.3675214 0,8.5 C0,3.63247863 3.4795539,0 8.11895911,0 C11.8884758,0 13.9182156,2.47008547 14.063197,2.54273504 L14.3531599,2.90598291 L12.3234201,4.86752137 L11.9609665,4.43162393 C11.8884758,4.35897436 10.6561338,2.83333333 8.11895911,2.83333333 C4.92936803,2.83333333 3.04460967,5.73931624 3.04460967,8.5 C3.04460967,11.3333333 4.92936803,14.1666667 8.11895911,14.1666667 C10.5836431,14.1666667 12.105948,12.3504274 12.1784387,12.2777778 L12.5408922,11.8418803 L14.4981413,13.8760684 L14.2081784,14.2393162 C14.1356877,14.3846154 11.8884758,17 8.11895911,17 Z M8.11895911,1.01709402 C4.05947955,1.01709402 1.01486989,4.21367521 1.01486989,8.5 C1.01486989,12.7863248 4.05947955,15.982906 8.11895911,15.982906 C10.6561338,15.982906 12.3959108,14.6025641 13.1208178,13.9487179 L12.6133829,13.4401709 C11.9609665,14.0940171 10.366171,15.2564103 8.19144981,15.2564103 C4.78438662,15.2564103 2.02973978,12.2777778 2.02973978,8.5 C2.02973978,4.72222222 4.71189591,1.74358974 8.19144981,1.74358974 C10.366171,1.74358974 11.8159851,2.76068376 12.4684015,3.34188034 L12.9758364,2.83333333 C12.2509294,2.25213675 10.5836431,1.01709402 8.11895911,1.01709402 Z" id="Shape"></path>
                    </g>
                    <g transform="translate(100.109665, 0.290598)">
                        <polygon id="Path" points="0.507434944 0.508547009 2.3197026 0.508547009 2.3197026 15.9102564 0.507434944 15.9102564"></polygon>
                        <path d="M2.89962825,16.4188034 L0,16.4188034 L0,0 L2.89962825,0 L2.89962825,16.4188034 Z M1.01486989,15.4017094 L1.81226766,15.4017094 L1.81226766,1.01709402 L1.01486989,1.01709402 L1.01486989,15.4017094 Z" id="Shape"></path>
                    </g>
                    <g transform="translate(109.678439, 0.290598)" id="Shape">
                        <path d="M6.81412639,0.508547009 L8.55390335,0.508547009 L14.570632,15.9102564 L12.6133829,15.9102564 L11.0185874,11.7692308 L4.34944238,11.7692308 L2.75464684,15.9102564 L0.79739777,15.9102564 L6.81412639,0.508547009 Z M5.07434944,9.95299145 L10.366171,9.95299145 L7.75650558,3.12393162 L5.07434944,9.95299145 Z"></path>
                        <path d="M15.295539,16.4188034 L12.2509294,16.4188034 L10.6561338,12.2777778 L4.71189591,12.2777778 L3.11710037,16.4188034 L0,16.4188034 L6.45167286,0 L8.84386617,0 L15.295539,16.4188034 Z M12.9758364,15.4017094 L13.7732342,15.4017094 L8.19144981,1.01709402 L7.17657993,1.01709402 L1.52230483,15.4017094 L2.39219331,15.4017094 L3.98698885,11.2606838 L11.3085502,11.2606838 L12.9758364,15.4017094 Z M11.0910781,10.4615385 L4.34944238,10.4615385 L7.75650558,1.67094017 L11.0910781,10.4615385 Z M5.79925651,9.44444444 L9.56877323,9.44444444 L7.68401487,4.57692308 L5.79925651,9.44444444 Z"></path>
                    </g>
                    <g transform="translate(129.105948, 0.290598)">
                        <polygon id="Path" points="5.00185874 2.25213675 0.579925651 2.25213675 0.579925651 0.508547009 11.2360595 0.508547009 11.2360595 2.25213675 6.81412639 2.25213675 6.81412639 15.9102564 5.00185874 15.9102564 5.00185874 2.25213675"></polygon>
                        <path d="M7.32156134,16.4188034 L4.42193309,16.4188034 L4.42193309,2.76068376 L0,2.76068376 L0,0 L11.7434944,0 L11.7434944,2.76068376 L7.32156134,2.76068376 L7.32156134,16.4188034 L7.32156134,16.4188034 Z M5.50929368,15.4017094 L6.30669145,15.4017094 L6.30669145,1.74358974 L10.7286245,1.74358974 L10.7286245,1.01709402 L1.08736059,1.01709402 L1.08736059,1.74358974 L5.50929368,1.74358974 L5.50929368,15.4017094 L5.50929368,15.4017094 Z" id="Shape"></path>
                    </g>
                    <g transform="translate(147.953532, 0.290598)">
                        <polygon id="Path" points="0.507434944 0.508547009 2.3197026 0.508547009 2.3197026 15.9102564 0.507434944 15.9102564"></polygon>
                        <path d="M2.89962825,16.4188034 L0,16.4188034 L0,0 L2.89962825,0 L2.89962825,16.4188034 Z M1.01486989,15.4017094 L1.81226766,15.4017094 L1.81226766,1.01709402 L1.01486989,1.01709402 L1.01486989,15.4017094 Z" id="Shape"></path>
                    </g>
                    <g transform="translate(158.464684, 0.000000)" id="Shape">
                        <path d="M15.7304833,8.5 C15.7304833,12.9316239 12.5408922,16.491453 8.11895911,16.491453 C3.69702602,16.491453 0.507434944,13.0042735 0.507434944,8.5 C0.507434944,3.9957265 3.69702602,0.508547009 8.11895911,0.508547009 C12.5408922,0.508547009 15.7304833,3.9957265 15.7304833,8.5 Z M13.7007435,8.5 C13.7007435,5.23076923 11.4535316,2.32478632 8.0464684,2.32478632 C4.6394052,2.32478632 2.39219331,5.23076923 2.39219331,8.5 C2.39219331,11.7692308 4.6394052,14.6752137 8.0464684,14.6752137 C11.4535316,14.6752137 13.7007435,11.7692308 13.7007435,8.5 Z"></path>
                        <path d="M8.11895911,17 C3.4795539,17 0,13.3675214 0,8.5 C0,3.63247863 3.4795539,0 8.11895911,0 C12.7583643,0 16.2379182,3.63247863 16.2379182,8.5 C16.2379182,13.2948718 12.7583643,17 8.11895911,17 Z M8.11895911,1.01709402 C4.05947955,1.01709402 1.01486989,4.21367521 1.01486989,8.5 C1.01486989,12.7863248 4.05947955,15.982906 8.11895911,15.982906 C12.1784387,15.982906 15.2230483,12.7863248 15.2230483,8.5 C15.2230483,4.21367521 12.1784387,1.01709402 8.11895911,1.01709402 Z M8.11895911,15.1837607 C4.71189591,15.1837607 1.95724907,12.2051282 1.95724907,8.42735043 C1.95724907,4.64957265 4.6394052,1.67094017 8.11895911,1.67094017 C11.5260223,1.67094017 14.2806691,4.64957265 14.2806691,8.42735043 C14.2806691,12.2777778 11.5260223,15.1837607 8.11895911,15.1837607 Z M8.11895911,2.76068376 C4.92936803,2.76068376 3.04460967,5.66666667 3.04460967,8.42735043 C3.04460967,11.2606838 4.92936803,14.0940171 8.11895911,14.0940171 C11.3085502,14.0940171 13.1933086,11.1880342 13.1933086,8.42735043 C13.1933086,5.66666667 11.3085502,2.76068376 8.11895911,2.76068376 Z"></path>
                    </g>
                    <g transform="translate(181.951673, 0.290598)">
                        <polygon id="Path" points="2.46468401 0.508547009 10.7286245 12.8589744 10.7286245 0.508547009 12.5408922 0.508547009 12.5408922 15.9102564 10.6561338 15.9102564 2.39219331 3.55982906 2.39219331 15.9102564 0.579925651 15.9102564 0.579925651 0.508547009"></polygon>
                        <path d="M13.0483271,16.4188034 L10.366171,16.4188034 L2.89962825,5.3034188 L2.89962825,16.4188034 L0,16.4188034 L0,0 L2.68215613,0 L10.1486989,11.1153846 L10.1486989,0 L13.0483271,0 L13.0483271,16.4188034 L13.0483271,16.4188034 Z M10.9460967,15.4017094 L12.0334572,15.4017094 L12.0334572,1.01709402 L11.2360595,1.01709402 L11.2360595,14.5299145 L2.17472119,1.01709402 L1.08736059,1.01709402 L1.08736059,15.4017094 L1.88475836,15.4017094 L1.88475836,1.88888889 L10.9460967,15.4017094 Z" id="Shape"></path>
                    </g>
                </g>
                <g id="Group" transform="translate(0.000000, 127.000000)">
                    <polygon id="Path" points="12.8036566 37.9171779 18.3012719 0.504601227 24.9562798 0.504601227 17.8672496 46.351227 7.08903021 46.351227 0 0.504601227 7.30604134 0.504601227"></polygon>
                    <polygon id="Path" points="43.4745628 19.8236196 53.3847377 19.8236196 53.3847377 26.3834356 43.4745628 26.3834356 43.4745628 39.791411 55.9888712 39.791411 55.9888712 46.351227 36.2408585 46.351227 36.2408585 0.504601227 55.9888712 0.504601227 55.9888712 7.06441718 43.4745628 7.06441718"></polygon>
                    <path d="M79.209062,20.8328221 L89.336248,20.8328221 L89.336248,35.3941718 C89.336248,39.142638 88.3958665,41.9539877 86.5874404,43.9723926 C84.7790143,45.9907975 82.1025437,46.9279141 78.5580286,46.9279141 C75.0135135,46.9279141 72.3370429,45.9187117 70.5286169,43.9723926 C68.7201908,41.9539877 67.7798092,39.142638 67.7798092,35.3941718 L67.7798092,11.5337423 C67.7798092,7.78527607 68.7201908,4.97392638 70.5286169,2.95552147 C72.3370429,0.937116564 75.0135135,2.04880421e-14 78.5580286,2.04880421e-14 C82.1025437,2.04880421e-14 84.7790143,1.00920245 86.5874404,2.95552147 C88.3958665,4.97392638 89.336248,7.78527607 89.336248,11.5337423 L89.336248,16.0030675 L82.4642289,16.0030675 L82.4642289,11.101227 C82.4642289,9.44325153 82.1025437,8.2898773 81.4515103,7.5690184 C80.8004769,6.9202454 79.8600954,6.55981595 78.7027027,6.55981595 C77.54531,6.55981595 76.6772655,6.9202454 75.9538951,7.5690184 C75.3028617,8.21779141 74.9411765,9.44325153 74.9411765,11.101227 L74.9411765,35.898773 C74.9411765,37.5567485 75.3028617,38.7101227 75.9538951,39.3588957 C76.6049285,40.0076687 77.54531,40.3680982 78.7027027,40.3680982 C79.8600954,40.3680982 80.7281399,40.0076687 81.4515103,39.3588957 C82.1025437,38.7101227 82.4642289,37.5567485 82.4642289,35.898773 L82.4642289,27.4647239 L79.209062,27.4647239 L79.209062,20.8328221 Z" id="Path"></path>
                    <polygon id="Path" points="109.084261 19.8236196 118.994436 19.8236196 118.994436 26.3834356 109.084261 26.3834356 109.084261 39.791411 121.598569 39.791411 121.598569 46.351227 101.850556 46.351227 101.850556 0.504601227 121.598569 0.504601227 121.598569 7.06441718 109.084261 7.06441718"></polygon>
                    <polygon id="Path" points="131.870429 0.504601227 154.222576 0.504601227 154.222576 7.06441718 146.627186 7.06441718 146.627186 46.4233129 139.393482 46.4233129 139.393482 7.06441718 131.798092 7.06441718 131.798092 0.504601227"></polygon>
                    <path d="M186.195548,46.4233129 L178.889507,46.4233129 L177.659777,38.1334356 L168.762321,38.1334356 L167.532591,46.4233129 L160.877583,46.4233129 L168.255962,0.576687117 L178.81717,0.576687117 L186.195548,46.4233129 Z M169.702703,31.8619632 L176.647059,31.8619632 L173.174881,8.65030675 L169.702703,31.8619632 Z" id="Shape"></path>
                    <path d="M208.330684,0.504601227 C212.09221,0.504601227 214.841017,1.3696319 216.504769,3.09969325 C218.168521,4.8297546 219.036566,7.49693252 219.036566,11.0291411 L219.036566,12.6871166 C219.036566,15.0659509 218.674881,17.0122699 217.95151,18.5260736 C217.22814,20.0398773 215.99841,21.1932515 214.406995,21.9141104 C216.360095,22.6349693 217.806836,23.8604294 218.602544,25.5184049 C219.398251,27.1763804 219.832273,29.2668712 219.832273,31.7177914 L219.832273,35.4662577 C219.832273,38.9984663 218.891892,41.7377301 217.083466,43.5398773 C215.27504,45.4141104 212.526232,46.351227 208.837043,46.351227 L197.480127,46.351227 L197.480127,0.504601227 L208.330684,0.504601227 L208.330684,0.504601227 Z M204.713831,7.06441718 L204.713831,19.1748466 L207.534976,19.1748466 C208.90938,19.1748466 209.922099,18.8144172 210.717806,18.0935583 C211.513514,17.3726994 211.875199,16.1472393 211.875199,14.2730061 L211.875199,11.75 C211.875199,10.0920245 211.585851,8.86656442 211.007154,8.14570552 C210.428458,7.42484663 209.488076,7.06441718 208.18601,7.06441718 L204.713831,7.06441718 Z M204.713831,25.7346626 L204.713831,39.791411 L208.837043,39.791411 C210.066773,39.791411 211.007154,39.4309816 211.658188,38.7822086 C212.309221,38.1334356 212.598569,36.9800613 212.598569,35.25 L212.598569,31.2852761 C212.598569,29.1226994 212.236884,27.6809816 211.513514,26.8880368 C210.790143,26.095092 209.560413,25.7346626 207.896661,25.7346626 L204.713831,25.7346626 Z" id="Shape"></path>
                    <polygon id="Path" points="232.057234 0.504601227 239.290938 0.504601227 239.290938 39.8634969 251.22655 39.8634969 251.22655 46.4233129 232.057234 46.4233129"></polygon>
                    <polygon id="Path" points="269.455485 19.8236196 279.36566 19.8236196 279.36566 26.3834356 269.455485 26.3834356 269.455485 39.791411 281.969793 39.791411 281.969793 46.351227 262.221781 46.351227 262.221781 0.504601227 281.969793 0.504601227 281.969793 7.06441718 269.455485 7.06441718"></polygon>
                    <path d="M323.274245,20.8328221 L333.401431,20.8328221 L333.401431,35.3941718 C333.401431,39.142638 332.461049,41.9539877 330.652623,43.9723926 C328.844197,45.9907975 326.167727,46.9279141 322.623211,46.9279141 C319.078696,46.9279141 316.402226,45.9187117 314.5938,43.9723926 C312.785374,41.9539877 311.844992,39.142638 311.844992,35.3941718 L311.844992,11.5337423 C311.844992,7.78527607 312.785374,4.97392638 314.5938,2.95552147 C316.402226,0.937116564 319.078696,2.04880421e-14 322.623211,2.04880421e-14 C326.167727,2.04880421e-14 328.844197,1.00920245 330.652623,2.95552147 C332.461049,4.97392638 333.401431,7.78527607 333.401431,11.5337423 L333.401431,16.0030675 L326.529412,16.0030675 L326.529412,11.101227 C326.529412,9.44325153 326.167727,8.2898773 325.516693,7.5690184 C324.86566,6.9202454 323.925278,6.55981595 322.767886,6.55981595 C321.610493,6.55981595 320.742448,6.9202454 320.019078,7.5690184 C319.368045,8.21779141 319.006359,9.44325153 319.006359,11.101227 L319.006359,35.898773 C319.006359,37.5567485 319.368045,38.7101227 320.019078,39.3588957 C320.670111,40.0076687 321.610493,40.3680982 322.767886,40.3680982 C323.925278,40.3680982 324.793323,40.0076687 325.516693,39.3588957 C326.167727,38.7101227 326.529412,37.5567485 326.529412,35.898773 L326.529412,27.4647239 L323.274245,27.4647239 L323.274245,20.8328221 Z" id="Path"></path>
                    <path d="M361.106518,46.4233129 C361.034181,46.1349693 360.961844,45.8466258 360.81717,45.5582822 C360.744833,45.2699387 360.672496,44.9815951 360.600159,44.5490798 C360.527822,44.1886503 360.455485,43.6840491 360.455485,43.0352761 C360.455485,42.458589 360.455485,41.6656442 360.455485,40.7285276 L360.455485,33.5199387 C360.455485,31.357362 360.0938,29.8435583 359.370429,28.9785276 C358.647059,28.1134969 357.417329,27.6809816 355.753577,27.6809816 L353.221781,27.6809816 L353.221781,46.351227 L345.988076,46.351227 L345.988076,0.504601227 L356.91097,0.504601227 C360.672496,0.504601227 363.421304,1.3696319 365.085056,3.09969325 C366.748808,4.8297546 367.616852,7.49693252 367.616852,11.0291411 L367.616852,14.6334356 C367.616852,19.3190184 366.025437,22.4907975 362.914944,23.9325153 C364.72337,24.6533742 366.025437,25.8788344 366.676471,27.5368098 C367.327504,29.1947853 367.689189,31.2852761 367.689189,33.6641104 L367.689189,40.7285276 C367.689189,41.8819018 367.761526,42.8911043 367.833863,43.6840491 C367.9062,44.5490798 368.123211,45.4141104 368.484897,46.2791411 L361.106518,46.2791411 L361.106518,46.4233129 Z M353.149444,7.06441718 L353.149444,21.1211656 L355.970588,21.1211656 C357.344992,21.1211656 358.357711,20.7607362 359.153418,20.0398773 C359.949126,19.3190184 360.310811,18.0935583 360.310811,16.2193252 L360.310811,11.6779141 C360.310811,10.0199387 360.021463,8.79447853 359.442766,8.07361963 C358.86407,7.35276074 357.923688,6.99233129 356.621622,6.99233129 L353.149444,6.99233129 L353.149444,7.06441718 Z" id="Shape"></path>
                    <path d="M379.697138,11.5337423 C379.697138,7.78527607 380.63752,4.97392638 382.518283,2.95552147 C384.399046,0.937116564 387.147854,0 390.692369,0 C394.236884,0 396.985692,1.00920245 398.866455,2.95552147 C400.747218,4.97392638 401.687599,7.78527607 401.687599,11.5337423 L401.687599,35.3941718 C401.687599,39.142638 400.747218,41.9539877 398.866455,43.9723926 C396.985692,45.9907975 394.236884,46.9279141 390.692369,46.9279141 C387.147854,46.9279141 384.399046,45.9187117 382.518283,43.9723926 C380.63752,41.9539877 379.697138,39.142638 379.697138,35.3941718 L379.697138,11.5337423 Z M386.930843,35.8266871 C386.930843,37.4846626 387.292528,38.6380368 387.943561,39.3588957 C388.594595,40.0076687 389.534976,40.3680982 390.692369,40.3680982 C391.849762,40.3680982 392.717806,40.0076687 393.441176,39.3588957 C394.09221,38.7101227 394.453895,37.4846626 394.453895,35.8266871 L394.453895,11.0291411 C394.453895,9.37116564 394.09221,8.21779141 393.441176,7.49693252 C392.790143,6.84815951 391.849762,6.48773006 390.692369,6.48773006 C389.534976,6.48773006 388.666932,6.84815951 387.943561,7.49693252 C387.292528,8.14570552 386.930843,9.37116564 386.930843,11.0291411 L386.930843,35.8266871 Z" id="Shape"></path>
                    <polygon id="Path" points="430.260731 21.9141104 427.656598 46.351227 417.746423 46.351227 412.610493 0.504601227 419.627186 0.504601227 423.533386 36.6917178 427.005564 0.504601227 433.949921 0.504601227 437.566773 36.9800613 441.328299 0.504601227 447.621622 0.504601227 442.485692 46.351227 432.864865 46.351227"></polygon>
                    <polygon id="Path" points="466.356916 19.8236196 476.267091 19.8236196 476.267091 26.3834356 466.356916 26.3834356 466.356916 39.791411 478.871224 39.791411 478.871224 46.351227 459.123211 46.351227 459.123211 0.504601227 478.871224 0.504601227 478.871224 7.06441718 466.356916 7.06441718"></polygon>
                    <path d="M506.3593,46.4233129 C506.286963,46.1349693 506.214626,45.8466258 506.069952,45.5582822 C505.997615,45.2699387 505.925278,44.9815951 505.852941,44.5490798 C505.780604,44.1886503 505.708267,43.6840491 505.708267,43.0352761 C505.708267,42.458589 505.708267,41.6656442 505.708267,40.7285276 L505.708267,33.5199387 C505.708267,31.357362 505.346582,29.8435583 504.623211,28.9785276 C503.899841,28.1134969 502.670111,27.6809816 501.006359,27.6809816 L498.474563,27.6809816 L498.474563,46.351227 L491.240859,46.351227 L491.240859,0.504601227 L502.163752,0.504601227 C505.925278,0.504601227 508.674086,1.3696319 510.337838,3.09969325 C512.00159,4.8297546 512.869634,7.49693252 512.869634,11.0291411 L512.869634,14.6334356 C512.869634,19.3190184 511.278219,22.4907975 508.167727,23.9325153 C509.976153,24.6533742 511.278219,25.8788344 511.929253,27.5368098 C512.580286,29.1947853 512.941971,31.2852761 512.941971,33.6641104 L512.941971,40.7285276 C512.941971,41.8819018 513.014308,42.8911043 513.086645,43.6840491 C513.158983,44.5490798 513.375994,45.4141104 513.737679,46.2791411 L506.3593,46.2791411 L506.3593,46.4233129 Z M498.474563,7.06441718 L498.474563,21.1211656 L501.295707,21.1211656 C502.670111,21.1211656 503.68283,20.7607362 504.478537,20.0398773 C505.274245,19.3190184 505.63593,18.0935583 505.63593,16.2193252 L505.63593,11.6779141 C505.63593,10.0199387 505.346582,8.79447853 504.767886,8.07361963 C504.189189,7.35276074 503.248808,6.99233129 501.946741,6.99233129 L498.474563,6.99233129 L498.474563,7.06441718 Z" id="Shape"></path>
                    <path d="M524.660572,11.5337423 C524.660572,7.78527607 525.528617,4.97392638 527.337043,2.95552147 C529.145469,0.937116564 531.749603,4.09760841e-14 535.294118,4.09760841e-14 C538.838633,4.09760841e-14 541.515103,1.00920245 543.251192,2.95552147 C545.059618,4.97392638 545.927663,7.78527607 545.927663,11.5337423 L545.927663,12.9754601 L539.055644,12.9754601 L539.055644,11.101227 C539.055644,9.44325153 538.766296,8.2898773 538.115262,7.5690184 C537.464229,6.9202454 536.596184,6.55981595 535.438792,6.55981595 C534.281399,6.55981595 533.413355,6.9202454 532.762321,7.5690184 C532.111288,8.21779141 531.82194,9.44325153 531.82194,11.101227 C531.82194,12.6871166 532.183625,14.0567485 532.906995,15.2822086 C533.630366,16.5076687 534.49841,17.5889571 535.511129,18.6702454 C536.596184,19.7515337 537.68124,20.8328221 538.91097,21.9141104 C540.1407,22.9953988 541.225755,24.148773 542.310811,25.446319 C543.395866,26.743865 544.263911,28.1855828 544.914944,29.7714724 C545.638315,31.357362 546,33.303681 546,35.4662577 C546,39.2147239 545.059618,42.0260736 543.251192,44.0444785 C541.442766,46.0628834 538.766296,47 535.221781,47 C531.677266,47 529.000795,45.9907975 527.192369,44.0444785 C525.383943,42.0260736 524.443561,39.2147239 524.443561,35.4662577 L524.443561,32.5828221 L531.31558,32.5828221 L531.31558,35.8266871 C531.31558,37.4846626 531.677266,38.6380368 532.328299,39.2868098 C532.979332,39.9355828 533.919714,40.2960123 535.077107,40.2960123 C536.234499,40.2960123 537.102544,39.9355828 537.825914,39.2868098 C538.476948,38.6380368 538.838633,37.4846626 538.838633,35.8266871 C538.838633,34.2407975 538.476948,32.8711656 537.753577,31.6457055 C537.030207,30.4202454 536.162162,29.3389571 535.149444,28.2576687 C534.064388,27.1763804 532.979332,26.095092 531.749603,25.0138037 C530.519873,23.9325153 529.434817,22.7791411 528.349762,21.4815951 C527.264706,20.1840491 526.396661,18.7423313 525.745628,17.1564417 C524.949921,15.642638 524.660572,13.696319 524.660572,11.5337423 Z" id="Path"></path>
                </g>
                <g id="Group" transform="translate(136.000000, 0.000000)">
                    <g transform="translate(-0.000000, 66.676647)">
                        <path d="M7.19887343,2.18135158 C7.19887343,2.18135158 4.87746621,2.32677502 3.28149875,4.58083832 C1.32281141,7.34388366 2.41097104,10.9067579 5.09509814,12.7972626 C7.77922523,14.6877673 11.478968,14.4696322 13.4376553,11.7792985 C15.0336228,9.52523524 14.308183,6.98032506 14.308183,6.98032506 L16.0492385,6.68947819 C16.0492385,6.68947819 16.9197662,9.88879384 14.8159909,12.7972626 C12.2769517,16.4328486 7.56159331,17.0145423 3.93439453,14.4696322 C0.307195747,11.924722 -0.780963887,7.27117194 1.83061923,3.63558597 C3.93439453,0.654405475 6.90869753,0.508982036 6.90869753,0.508982036 L7.19887343,2.18135158 Z" id="Path"></path>
                        <path d="M8.79484089,16.578272 C7.05378548,16.578272 5.31273006,15.9965783 3.7167626,14.9059025 C1.83061923,13.5970915 0.524827674,11.7065868 0.162107796,9.59794696 C-0.273156057,7.41659538 0.162107796,5.2352438 1.54044333,3.34473909 C3.7167626,0.218135158 6.90869753,0 7.05378548,0 L7.56159331,0 L7.99685716,2.76304534 L7.41650536,2.76304534 C7.34396138,2.76304534 5.31273006,2.90846878 3.86185055,4.94439692 C2.04825116,7.56201882 3.28149875,10.8340462 5.53036199,12.433704 C7.77922523,14.0333618 11.2613361,14.1787853 13.1474794,11.5611634 C14.5983589,9.52523524 13.9454632,7.19846022 13.9454632,7.19846022 L13.8003752,6.61676647 L16.6295903,6.18049615 L16.7746782,6.61676647 C16.8472222,6.76218991 17.6452059,10.0342173 15.4688866,13.1608212 C13.7278312,15.3421728 11.2613361,16.578272 8.79484089,16.578272 Z M6.54597765,1.09067579 C5.67544994,1.30881095 3.7167626,1.8905047 2.26588309,3.92643285 C1.10517948,5.52609068 0.742459601,7.4893071 1.10517948,9.30710009 C1.46789936,11.1248931 2.62860297,12.7972626 4.2971144,14.0333618 C7.77922523,16.5055603 12.1318638,15.8511548 14.453271,12.5064157 C15.9041505,10.3977759 15.8316065,8.21642429 15.6865186,7.27117194 L14.9610788,7.41659538 C15.1061668,8.36184773 15.1787107,10.3250642 13.8729192,12.1428571 C11.9142318,14.9786142 7.92431318,15.4875962 4.87746621,13.3062447 C1.83061923,11.1248931 0.960091528,7.19846022 2.91877887,4.36270317 C4.15202645,2.54491018 5.82053789,1.96321642 6.6910656,1.81779299 L6.54597765,1.09067579 Z" id="Shape"></path>
                    </g>
                    <g transform="translate(10.608440, 51.261762)">
                        <polygon id="Path" points="6.89167768 10.3250642 11.2443162 5.52609068 12.5501078 6.68947819 8.19746924 11.4884517 12.1148439 15.0513259 16.9027463 9.7433704 18.2085379 10.9067579 12.1873879 17.5962361 0.797983732 7.27117194 6.74658973 0.654405475 8.05238129 1.81779299 3.33702288 7.05303678"></polygon>
                        <path d="M12.1873879,18.396065 L0,7.34388366 L6.67404575,0 L8.70527707,1.8905047 L3.98991866,7.1257485 L6.89167768,9.59794696 L11.2443162,4.79897348 L13.2755475,6.68947819 L8.922909,11.4884517 L12.0422999,14.3242087 L16.8302023,9.01625321 L18.8614337,10.9067579 L12.1873879,18.396065 Z M1.45087951,7.27117194 L12.1148439,16.9418306 L17.4830981,10.9794696 L16.9752903,10.4704876 L12.1873879,15.7784431 L7.54457346,11.5611634 L11.897212,6.76218991 L11.3894042,6.25320787 L7.03676563,11.0521814 L2.6841271,7.05303678 L7.39948551,1.81779299 L6.89167768,1.30881095 L1.45087951,7.27117194 Z" id="Shape"></path>
                    </g>
                    <g transform="translate(23.883988, 36.210436)">
                        <polygon id="Path" points="2.17631927 7.27117194 16.4674825 11.2703165 8.48764514 1.8905047 9.86598068 0.654405475 19.8770493 12.3609923 18.4261698 13.5970915 4.13500661 9.59794696 12.1148439 18.9777588 10.7365084 20.213858 0.725439756 8.50727117"></polygon>
                        <path d="M10.6639644,20.9409752 L0,8.43455945 L2.03123132,6.68947819 L14.944059,10.3250642 L7.68966141,1.8905047 L9.86598068,0 L20.5299451,12.5064157 L18.4987138,14.251497 L5.58588612,10.615911 L12.8402837,19.0504705 L10.6639644,20.9409752 Z M1.45087951,8.57998289 L10.8090524,19.4867408 L11.4619481,18.9777588 L2.6841271,8.65269461 L18.3536258,13.0153978 L19.2241535,12.2882806 L9.86598068,1.38152267 L9.2130849,1.8905047 L17.9909059,12.1428571 L2.32140722,7.78015398 L1.45087951,8.57998289 Z" id="Shape"></path>
                    </g>
                    <g transform="translate(40.424014, 24.721985)">
                        <polygon id="Path" points="5.36825419 5.5988024 1.66851144 8.07100086 0.725439756 6.61676647 9.64834875 0.727117194 10.5914204 2.18135158 6.89167768 4.65355004 14.4362511 16.06929 12.9128277 17.0872541"></polygon>
                        <path d="M12.7677397,17.7416595 L5.22316624,6.32591959 L1.52342349,8.79811805 L0,6.47134303 L9.79343671,0 L11.3168602,2.32677502 L7.61711744,4.79897348 L15.1616909,16.2147134 L12.7677397,17.7416595 Z M5.51334215,4.8716852 L13.0579156,16.2874251 L13.7108114,15.8511548 L6.16623793,4.43541488 L9.86598068,1.96321642 L9.43071683,1.38152267 L1.37833554,6.76218991 L1.81359939,7.34388366 L5.51334215,4.8716852 Z" id="Shape"></path>
                    </g>
                    <g transform="translate(57.326761, 17.762434)" id="Shape">
                        <path d="M0.65289578,3.03311744 L4.20755058,1.21532445 C6.96422166,-0.166198216 9.57580478,0.488207259 10.8815963,2.96040572 C12.5501078,6.23243309 9.86598068,8.34107296 9.5032608,8.63191983 L16.2498505,12.4129292 L14.2911632,13.4308933 L7.76220539,9.72259563 L6.45641383,10.3770011 L9.28562888,15.9758035 L7.61711744,16.8483441 L0.65289578,3.03311744 Z M9.2130849,3.76023463 C8.41510117,2.23328852 6.96422166,1.79701821 5.07807829,2.74227056 L3.04684697,3.76023463 L5.58588612,8.77734327 L7.61711744,7.7593792 C9.5032608,6.81412685 10.0110686,5.28718074 9.2130849,3.76023463 Z"></path>
                        <path d="M7.47202949,17.5027496 L0,2.81498228 L3.98991866,0.779054137 C5.44079817,0.0519369424 6.89167768,-0.166198216 8.19746924,0.124648662 C9.57580478,0.488207259 10.5914204,1.36074789 11.3168602,2.66955884 C12.7677397,5.5053159 11.3168602,7.54124404 10.3737885,8.41378468 L17.3380102,12.3402175 L14.2911632,13.9398754 L7.76220539,10.2315777 L7.18185358,10.5224245 L10.0110686,16.1212269 L7.47202949,17.5027496 Z M1.37833554,3.2512526 L7.90729334,16.0485152 L8.6327331,15.6849566 L5.80351805,10.0861542 L7.76220539,9.06819015 L14.2911632,12.7764878 L15.1616909,12.3402175 L8.56018912,8.63191983 L9.2130849,8.19564952 C9.5032608,7.97751436 11.897212,6.15972137 10.3737885,3.17854088 C9.86598068,2.08786509 8.99545297,1.43345961 7.90729334,1.14261273 C6.81913371,0.851765856 5.58588612,1.06990101 4.42518251,1.65159477 L1.37833554,3.2512526 Z M5.44079817,9.43174875 L2.39395119,3.54209947 L4.86044636,2.30600024 C6.89167768,1.28803617 8.70527707,1.72430649 9.64834875,3.54209947 L9.64834875,3.54209947 C10.5914204,5.35989246 9.86598068,7.17768545 7.83474936,8.19564952 L5.44079817,9.43174875 Z M3.77228673,3.97836979 L5.87606202,8.05022608 L7.39948551,7.25039716 C8.922909,6.45056825 9.43071683,5.28718074 8.77782105,3.97836979 L8.77782105,3.97836979 C8.12492527,2.66955884 6.89167768,2.37871196 5.36825419,3.17854088 L3.77228673,3.97836979 Z"></path>
                    </g>
                    <g transform="translate(78.654689, 9.888794)" id="Shape">
                        <path d="M0.943071683,1.16338751 L2.53903915,0.581693755 L13.4206355,13.0153978 L11.6070361,13.6698033 L8.70527707,10.3250642 L2.46649517,12.5791275 L2.39395119,17.0145423 L0.507807829,17.6689478 L0.943071683,1.16338751 Z M2.53903915,10.6886228 L7.47202949,8.87082977 L2.6841271,3.34473909 L2.53903915,10.6886228 Z"></path>
                        <path d="M0,18.4687767 L0.435263854,0.799828914 L2.6841271,0 L14.2911632,13.2335329 L11.4619481,14.251497 L8.56018912,10.9067579 L2.974303,12.9426861 L2.90175902,17.3781009 L0,18.4687767 Z M1.45087951,1.52694611 L1.08815963,17.0145423 L1.88614337,16.7236955 L1.95868734,12.2882806 L8.85036502,9.7433704 L11.752124,13.0881095 L12.5501078,12.7972626 L2.39395119,1.23609923 L1.45087951,1.52694611 Z M1.95868734,11.4157399 L2.10377529,1.96321642 L8.27001322,9.08896493 L1.95868734,11.4157399 Z M3.11939095,4.65355004 L3.04684697,9.88879384 L6.60150178,8.57998289 L3.11939095,4.65355004 Z"></path>
                    </g>
                    <g transform="translate(94.977084, 4.944397)">
                        <polygon id="Path" points="0.65289578 1.01796407 2.46649517 0.581693755 5.58588612 13.8879384 12.3324759 12.2882806 12.7677397 14.0333618 4.28009456 16.06929"></polygon>
                        <path d="M3.77228673,16.6509837 L0,0.654405475 L2.82921505,2.5832392e-15 L5.948606,13.3062447 L12.6951957,11.7065868 L13.3480915,14.3969204 L3.77228673,16.6509837 Z M1.23324759,1.38152267 L4.49772649,15.4148845 L12.0422999,13.6698033 L11.897212,12.9426861 L5.15062227,14.5423439 L2.03123132,1.23609923 L1.23324759,1.38152267 Z" id="Shape"></path>
                    </g>
                    <g transform="translate(125.373010, 0.000000)">
                        <polygon id="Path" points="2.39395119 0.872540633 7.90729334 9.3798118 12.9853716 0.654405475 14.798971 0.581693755 15.1616909 15.9965783 13.3480915 16.06929 13.0579156 3.99914457 8.05238129 12.7245509 2.61158312 4.28999145 2.90175902 16.3601369 1.08815963 16.4328486 0.725439756 1.01796407"></polygon>
                        <path d="M0.435263854,16.8691189 L0,0.436270317 L2.6841271,0.363558597 L7.90729334,8.36184773 L12.6951957,0.0727117194 L15.3067789,0 L15.7420427,16.4328486 L12.8402837,16.5055603 L12.5501078,5.74422583 L7.97983732,13.5970915 L3.04684697,6.03507271 L3.33702288,16.7964072 L0.435263854,16.8691189 Z M1.01561566,1.45423439 L1.37833554,15.8511548 L2.17631927,15.8511548 L1.81359939,2.47219846 L7.83474936,11.7065868 L13.3480915,2.18135158 L13.7108114,15.560308 L14.5087951,15.560308 L14.1460752,1.16338751 L13.2030036,1.16338751 L7.90729334,10.3977759 L2.10377529,1.45423439 L1.01561566,1.45423439 Z" id="Shape"></path>
                    </g>
                    <g transform="translate(149.094890, 0.727117)">
                        <polygon id="Path" points="1.95868734 0.508982036 3.77228673 0.654405475 2.46649517 15.9965783 0.65289578 15.8511548"></polygon>
                        <path d="M2.90175902,16.578272 L0,16.3601369 L1.45087951,0 L4.35263854,0.218135158 L2.90175902,16.578272 Z M1.16070361,15.4148845 L1.95868734,15.4875962 L3.19193493,1.16338751 L2.39395119,1.09067579 L1.16070361,15.4148845 Z" id="Shape"></path>
                    </g>
                    <g transform="translate(160.049030, 2.108640)">
                        <polygon id="Path" points="5.51334215 0.945252352 11.2443162 14.6150556 13.6382674 2.47219846 15.4518668 2.83575706 12.4050198 18.0325064 10.5188765 17.6689478 4.78790239 3.99914457 2.39395119 16.1420017 0.580351805 15.7784431 3.62719878 0.581693755"></polygon>
                        <path d="M12.8402837,18.6142002 L10.1561566,18.1052181 L5.00553432,5.74422583 L2.82921505,16.7236955 L0,16.1420017 L3.19193493,0 L5.87606202,0.508982036 L11.0266843,12.8699743 L13.2030036,1.8905047 L16.0322186,2.47219846 L12.8402837,18.6142002 Z M10.9541403,17.1599658 L12.0422999,17.3781009 L14.798971,3.27202737 L14.0009873,3.12660393 L11.3894042,16.3601369 L5.15062227,1.30881095 L3.98991866,1.16338751 L1.23324759,15.2694611 L2.03123132,15.4148845 L4.64281444,2.18135158 L10.9541403,17.1599658 Z" id="Shape"></path>
                    </g>
                    <g transform="translate(180.433887, 7.198460)">
                        <polygon id="Path" points="7.39948551 1.30881095 11.1717722 15.7057314 15.2342349 4.07185629 16.9752903 4.65355004 11.969756 19.1958939 10.1561566 18.5414885 6.38386985 4.14456801 2.32140722 15.7784431 0.580351805 15.1967494 5.58588612 0.654405475"></polygon>
                        <path d="M12.2599319,19.8502994 L9.72089273,18.9777588 L6.31132588,5.96236099 L2.6841271,16.5055603 L0,15.560308 L5.36825419,0 L7.90729334,0.872540633 L11.3168602,13.8879384 L14.944059,3.34473909 L17.6281861,4.28999145 L12.2599319,19.8502994 Z M10.5188765,18.1052181 L11.6070361,18.4687767 L16.3223945,4.8716852 L15.5244108,4.58083832 L11.0992283,17.3781009 L6.96422166,1.67236955 L5.87606202,1.30881095 L1.16070361,14.9059025 L1.95868734,15.1967494 L6.38386985,2.39948674 L10.5188765,18.1052181 Z" id="Shape"></path>
                    </g>
                    <g transform="translate(199.803129, 15.414885)">
                        <polygon id="Path" points="6.2387819 7.41659538 12.0422999 10.3250642 11.2443162 11.924722 5.44079817 9.01625321 3.11939095 13.742515 9.57580478 16.9418306 8.77782105 18.5414885 0.725439756 14.5423439 7.54457346 0.727117194 15.5244108 4.65355004 14.726427 6.25320787 8.41510117 3.12660393"></polygon>
                        <path d="M8.99545297,19.1958939 L0,14.760479 L7.25439756,0 L16.1047626,4.43541488 L14.871515,6.90761334 L8.56018912,3.78100941 L6.89167768,7.19846022 L12.6951957,10.106929 L11.4619481,12.5791275 L5.6584301,9.67065868 L3.77228673,13.4516681 L10.2287006,16.6509837 L8.99545297,19.1958939 Z M1.37833554,14.251497 L8.48764514,17.8143713 L8.77782105,17.1599658 L2.32140722,13.9606501 L5.07807829,8.28913601 L10.8815963,11.1976048 L11.3894042,10.5431993 L5.58588612,7.63473054 L8.19746924,2.32677502 L14.5087951,5.45337896 L14.798971,4.79897348 L7.76220539,1.30881095 L1.37833554,14.251497 Z" id="Shape"></path>
                    </g>
                    <g transform="translate(216.131452, 25.818740)">
                        <path d="M6.74066098,8.57390332 C5.43486941,6.46526346 4.34670978,4.50204704 5.72504532,2.32069545 C6.668117,0.793749345 9.20715615,-0.296926446 11.6736513,1.30273138 C14.1401465,2.90238921 14.1401465,5.59272283 14.1401465,5.59272283 L12.3990911,5.81085798 C12.3990911,5.81085798 12.3990911,3.84764156 10.7305796,2.82967749 C9.27970012,1.88442514 7.90136458,2.39340717 7.32101278,3.33865952 C6.45048507,4.64747047 7.2484688,5.8835697 8.48171639,7.84678613 C9.86005193,10.0281377 10.5854917,11.7005073 9.20715615,13.7364354 C7.82882061,15.8450753 5.21723749,16.1359221 2.96837424,14.6816878 C-0.0784727303,12.7184713 0.57442305,9.30102052 0.57442305,9.30102052 L2.38802244,9.37373224 C2.38802244,9.37373224 1.88021461,11.8459307 3.91144593,13.2274534 C5.14469351,14.0272823 6.81320495,14.099994 7.61118868,12.791183 C8.48171639,11.4096604 7.75627663,10.1735611 6.74066098,8.57390332 Z" id="Path"></path>
                        <path d="M5.87013327,16.1359221 C4.85451761,16.1359221 3.693814,15.7723635 2.67819834,15.1179581 C-0.658824535,12.9366065 0.0666152209,9.37373224 0.0666152209,9.2283088 L0.139159197,8.79203848 L2.96837424,8.8647502 L2.82328629,9.44644396 C2.82328629,9.51915567 2.38802244,11.6277955 4.12907785,12.7184713 C4.63688568,13.0820299 5.28978146,13.2274534 5.79758929,13.2274534 C6.3779411,13.1547416 6.81320495,12.9366065 7.10338085,12.4276245 C7.75627663,11.4096604 7.2484688,10.464408 6.23285315,8.79203848 C5.07214954,6.90153378 3.54872605,4.57475875 5.21723749,2.02984857 C6.45048507,0.13934387 9.27970012,-0.805908482 11.8187393,0.866461064 C14.4303224,2.61154233 14.5028664,5.44729939 14.5028664,5.59272283 L14.5028664,6.02899314 L11.6736513,6.31984002 L11.6736513,5.73814627 C11.6736513,5.73814627 11.6011073,4.06577672 10.2953158,3.19323609 C9.78750795,2.82967749 9.20715615,2.68425405 8.62680434,2.82967749 C8.19154049,2.90238921 7.75627663,3.19323609 7.53864471,3.55679468 C6.88574893,4.57475875 7.46610073,5.52001111 8.69934832,7.48322753 C10.0051399,9.59186739 11.0207555,11.5550838 9.42478807,13.9545706 C8.77189229,15.4088049 7.39355676,16.1359221 5.87013327,16.1359221 Z M1.0096869,9.88271427 C0.937142928,10.7552549 1.08223088,12.9366065 3.18600617,14.3181292 C5.28978146,15.6996518 7.61118868,15.3360932 8.77189229,13.591012 C9.9325959,11.8459307 9.42478807,10.464408 8.04645254,8.21034473 C6.74066098,6.17441658 5.87013327,4.72018219 6.88574893,3.12052437 C7.2484688,2.53883061 7.90136458,2.10256029 8.62680434,1.95713686 C9.20715615,1.81171342 10.0776839,1.81171342 11.0207555,2.46611889 C12.2540031,3.26594781 12.689267,4.57475875 12.8343549,5.30187595 L13.5597947,5.22916423 C13.4147067,4.42933532 12.9794429,2.90238921 11.3834754,1.88442514 C9.13461217,0.430190748 6.9582929,1.44815482 6.16030917,2.68425405 C4.92706159,4.57475875 5.79758929,6.2471283 7.17592483,8.35576816 L7.17592483,8.35576816 C8.19154049,9.95542599 9.13461217,11.4096604 8.04645254,13.0820299 C7.53864471,13.8091471 6.81320495,14.3181292 5.94267724,14.3181292 C5.14469351,14.3908409 4.34670978,14.1727057 3.62127002,13.6637237 C1.95275859,12.5730479 1.73512666,10.8279666 1.80767064,9.88271427 L1.0096869,9.88271427 Z" id="Shape"></path>
                    </g>
                    <g transform="translate(231.526637, 37.696339)" id="Shape">
                        <path d="M14.1968283,13.3472881 C11.2950693,16.7647389 6.65225487,17.3464327 3.24268802,14.5106756 C-0.166878836,11.6022069 -0.311966787,6.8759451 2.58979224,3.53120601 C5.49155126,0.113755198 10.1343657,-0.467938557 13.5439326,2.3678185 C16.8809554,5.27628728 17.0260434,10.002549 14.1968283,13.3472881 Z M12.6734048,12.1111889 C14.7771801,9.63899044 14.9948121,5.93069275 12.3832289,3.74934117 C9.8441898,1.56798959 6.21699102,2.3678185 4.11321572,4.84001696 C2.00944043,7.31221542 1.79180851,11.0205131 4.40339163,13.2018647 C6.94243077,15.3832163 10.5696296,14.5833874 12.6734048,12.1111889 Z"></path>
                        <path d="M8.03059041,16.8374507 C6.14444704,16.8374507 4.33084765,16.1830452 2.87996814,14.8742342 C-0.674686665,11.8930537 -0.964862567,6.80323338 2.15452838,3.16764741 C3.67795187,1.42256615 5.63663921,0.331890356 7.7404145,0.0410434784 C9.91673377,-0.17709168 12.093053,0.477313795 13.7615645,1.93154818 C17.3162193,4.91272868 17.6063952,10.002549 14.4870042,13.638135 L14.4870042,13.638135 C12.9635807,15.3832163 11.0048934,16.4738921 8.90111811,16.7647389 C8.68348619,16.8374507 8.32076631,16.8374507 8.03059041,16.8374507 Z M8.68348619,1.05900755 C8.46585426,1.05900755 8.17567836,1.05900755 7.88550246,1.13171927 C5.99935909,1.34985443 4.25830368,2.29510678 2.95251211,3.89476461 C0.195841042,7.16679198 0.486016945,11.5294951 3.53286392,14.147117 C5.05628741,15.455928 6.94243077,16.0376218 8.82857414,15.8194866 C10.7147175,15.6013514 12.4557729,14.6560991 13.7615645,13.0564413 C16.5182356,9.78441388 16.2280596,5.42171072 13.1812127,2.80408882 C11.8754211,1.64070131 10.2794536,1.05900755 8.68348619,1.05900755 Z M7.81295848,14.946946 C6.43462294,14.946946 5.12883138,14.4379639 4.04067175,13.5654233 C1.42908863,11.31136 1.28400068,7.31221542 3.67795187,4.47645836 C6.14444704,1.56798959 10.0618217,1.13171927 12.6734048,3.31307085 C13.9791964,4.40374664 14.7046362,6.00340447 14.7771801,7.74848574 C14.7771801,9.42085528 14.1968283,11.0932248 13.0361247,12.4020358 C11.8754211,13.7108467 10.3519976,14.6560991 8.75603016,14.8742342 C8.46585426,14.946946 8.10313438,14.946946 7.81295848,14.946946 Z M8.97366209,2.94951226 C7.30515065,2.94951226 5.63663921,3.82205289 4.4759356,5.13086384 C2.66233621,7.2395037 2.22707236,10.7296662 4.69356753,12.7655944 C5.78172716,13.7108467 7.1600627,14.0744053 8.61094221,13.8562702 C9.98927775,13.638135 11.2950693,12.9110178 12.310685,11.7476303 L12.310685,11.7476303 C13.2537566,10.5842428 13.8341085,9.20272013 13.8341085,7.74848574 C13.8341085,6.29425135 13.1812127,4.9854404 12.093053,4.04018805 C11.0774374,3.31307085 10.0618217,2.94951226 8.97366209,2.94951226 Z"></path>
                    </g>
                    <g transform="translate(247.174345, 50.025663)">
                        <polygon id="Path" points="10.7365084 5.16253208 7.76220539 1.8905047 9.06799695 0.727117194 16.2498505 8.65269461 14.944059 9.81608212 11.969756 6.54405475 1.95868734 15.7784431 0.725439756 14.3969204"></polygon>
                        <path d="M1.95868734,16.5055603 L0,14.3969204 L10.0110686,5.16253208 L7.03676563,1.8905047 L9.06799695,0 L16.9752903,8.65269461 L14.944059,10.5431993 L11.969756,7.27117194 L1.95868734,16.5055603 Z M1.45087951,14.4696322 L2.03123132,15.0513259 L12.0422999,5.81693755 L15.0166029,9.08896493 L15.5244108,8.57998289 L8.99545297,1.45423439 L8.48764514,1.96321642 L11.4619481,5.2352438 L1.45087951,14.4696322 Z" id="Shape"></path>
                    </g>
                    <g transform="translate(254.501286, 68.203593)" id="Shape">
                        <path d="M16.8302023,0.508982036 L17.845818,1.8905047 L8.922909,15.8511548 L7.76220539,14.251497 L10.1561566,10.4704876 L6.2387819,5.08982036 L1.95868734,6.25320787 L0.797983732,4.65355004 L16.8302023,0.508982036 Z M8.12492527,4.65355004 L11.2443162,8.94354149 L15.2342349,2.76304534 L8.12492527,4.65355004 Z"></path>
                        <path d="M8.99545297,16.7964072 L7.18185358,14.3242087 L9.57580478,10.5431993 L6.09369395,5.74422583 L1.81359939,6.90761334 L0,4.43541488 L17.0478343,0 L18.4987138,1.96321642 L8.99545297,16.7964072 Z M8.41510117,14.251497 L8.922909,14.9059025 L17.2654662,1.8905047 L16.6851144,1.09067579 L1.74105541,5.01710864 L2.24886324,5.74422583 L6.5289578,4.58083832 L10.8815963,10.5431993 L8.41510117,14.251497 Z M11.2443162,9.88879384 L7.25439756,4.36270317 L16.3223945,1.96321642 L11.2443162,9.88879384 Z M8.99545297,4.94439692 L11.2443162,7.99828914 L14.0735313,3.56287425 L8.99545297,4.94439692 Z"></path>
                    </g>
                </g>
                <g id="Group" transform="translate(131.000000, 89.000000)">
                    <ellipse id="Oval" cx="2.53584229" cy="2.5" rx="2.53584229" ry="2.5"></ellipse>
                    <ellipse id="Oval" cx="280.464158" cy="2.5" rx="2.53584229" ry="2.5"></ellipse>
                </g>
                <g id="Group" transform="translate(237.000000, 33.000000)">
                    <path d="M19.6896506,79 C19.3272271,77.9107916 19.0372883,76.8215831 18.8923189,75.6597608 C18.8198342,75.2240774 31.0697477,74.7157801 31.0697477,74.3527106 C31.0697477,74.0622551 18.8198342,72.682591 18.8198342,72.4647493 C19.0372883,70.7220158 19.5446812,68.9792823 20.4144975,67.3817766 C20.5594669,67.091321 42.8122684,67.3091627 42.8847531,66.9460932 C43.1022071,66.1473404 22.0091608,65.0581319 22.2990996,64.7676763 C25.7058803,60.9917537 31.6496253,58.1598118 40.4927581,57.6515145 C58.4689625,56.6349199 65.7174321,64.5498346 65.2825239,73.1182744 C65.2825239,73.6991856 49.3358909,72.4647493 49.2634062,73.0456605 C49.1909215,73.4813439 64.9201004,75.6597608 64.8476157,76.0228303 C64.775131,76.2406719 64.1952535,78.1286332 64.0502841,78.4190888 C63.9777994,78.6369305 63.9053147,78.7821583 63.7603453,79" id="Path"></path>
                    <path d="M43.8995388,66.8734793 C44.9143245,57.5062867 43.1022071,56.6349199 45.6391715,55.908781 C48.1761358,55.182642 53.7574574,53.2946807 53.5400033,49.1556886 C53.3225492,45.0166965 58.6139319,48.6473914 61.8032585,45.8880633 C64.9925851,43.1287352 64.9925851,42.7656658 64.2677382,38.0457625 C63.6153759,33.3258592 70.9363301,37.4648513 72.0236006,36.2304151 C73.110871,34.9959789 74.5605649,25.6287862 68.4718505,25.9918557 C62.3831361,26.3549252 63.3254371,19.1661495 59.7012024,23.7408249 C56.0044829,28.3155004 52.4527328,23.7408249 51.94534,28.5333421 C51.4379471,33.3258592 51.6554012,34.2698399 47.9586817,37.4648513 C44.1894776,40.6598628 42.5948143,43.273963 42.5948143,43.273963 C42.5948143,43.273963 40.7102122,41.3860017 42.0874214,34.2698399 C43.4646306,27.1536781 47.7412276,23.0872999 45.1317786,18.3673966 C42.5223296,13.5748795 40.4202734,15.6806825 41.7974826,11.2512348 C43.1746918,6.82178711 45.7841409,-0.802672001 41.2900898,0.0686947542 C36.7960387,0.940061509 25.7058803,1.73881437 28.6777528,5.73257866 C31.6496253,9.72634296 26.3582425,10.2346402 26.3582425,13.3570378 C26.3582425,16.4794353 25.4884262,21.7076358 29.330115,23.8134388 C33.1718039,25.9192418 36.5785846,39.7158821 35.1288907,42.1847546 C33.6791968,44.6536271 25.6333956,26.7906086 24.1837017,21.1267247 C22.7340078,15.4628408 20.776921,11.6869182 16.500324,12.485671 C12.2237269,13.3570378 6.8598595,15.3902269 6.06252785,12.1226015 C5.2651962,8.8549762 -2.4181815,18.1495549 0.771145093,19.7470606 C4.03295638,21.3445664 11.49888,25.2657168 8.01961462,29.4047088 C4.54034925,33.5437009 16.0654158,36.0125734 19.9795893,36.0851873 C23.8937629,36.1578012 24.4011558,36.1578012 25.4884262,43.7822603 C26.5756966,51.4067194 30.1999314,55.5457115 33.4617427,54.9648003 C36.723554,54.3838892 39.4054877,56.5623061 38.608156,61.5726649 C37.8108244,66.5104098 38.6806407,63.5332401 38.6806407,63.5332401 L43.8995388,66.8734793 Z" id="Path"></path>
                </g>
            </g>
        </g>
    </g>
</svg>