<?xml version="1.0" encoding="UTF-8"?>
<svg width="39px" height="40px" viewBox="0 0 39 40" version="1.1" xmlns="http://www.w3.org/2000/svg" xmlns:xlink="http://www.w3.org/1999/xlink">
    <title>Close</title>
    <g id="Designs" stroke="none" stroke-width="1" fill="none" fill-rule="evenodd">
        <g id="MPLS-Home---Mobile-Nav" transform="translate(-261.000000, -27.000000)" fill="#F1C23D">
            <g id="Close" transform="translate(261.262000, 27.543467)">
                <path d="M4.068,38.6245328 C5.22,38.6245328 6.168,38.1685328 6.9,37.3165328 L5.964,36.2125328 C5.484,36.7285328 4.896,37.0885328 4.128,37.0885328 C2.724,37.0885328 1.812,35.9245328 1.812,33.9925328 C1.812,32.0845328 2.82,30.9325328 4.164,30.9325328 C4.836,30.9325328 5.352,31.2445328 5.808,31.6765328 L6.732,30.5485328 C6.156,29.9485328 5.256,29.4085328 4.128,29.4085328 C1.884,29.4085328 -2.84217094e-14,31.1245328 -2.84217094e-14,34.0525328 C-2.84217094e-14,37.0165328 1.824,38.6245328 4.068,38.6245328 Z M13.976,38.4565328 L13.976,36.9685328 L10.364,36.9685328 L10.364,29.5645328 L8.588,29.5645328 L8.588,38.4565328 L13.976,38.4565328 Z M18.856,38.6245328 C21.208,38.6245328 22.828,36.8605328 22.828,33.9805328 C22.828,31.1005328 21.208,29.4085328 18.856,29.4085328 C16.504,29.4085328 14.884,31.0885328 14.884,33.9805328 C14.884,36.8605328 16.504,38.6245328 18.856,38.6245328 Z M18.856,37.0885328 C17.536,37.0885328 16.696,35.8765328 16.696,33.9805328 C16.696,32.0725328 17.536,30.9325328 18.856,30.9325328 C20.176,30.9325328 21.016,32.0725328 21.016,33.9805328 C21.016,35.8765328 20.176,37.0885328 18.856,37.0885328 Z M27.48,38.6245328 C29.532,38.6245328 30.744,37.3885328 30.744,35.9365328 C30.744,34.6525328 30.036,33.9685328 28.956,33.5245328 L27.792,33.0325328 C27.036,32.7325328 26.412,32.5045328 26.412,31.8685328 C26.412,31.2805328 26.904,30.9325328 27.684,30.9325328 C28.416,30.9325328 29.004,31.1965328 29.568,31.6645328 L30.468,30.5485328 C29.748,29.8165328 28.716,29.4085328 27.684,29.4085328 C25.884,29.4085328 24.612,30.5245328 24.612,31.9765328 C24.612,33.2725328 25.512,33.9925328 26.412,34.3645328 L27.6,34.8685328 C28.392,35.2045328 28.932,35.4085328 28.932,36.0685328 C28.932,36.6925328 28.44,37.0885328 27.516,37.0885328 C26.736,37.0885328 25.896,36.6925328 25.26,36.1045328 L24.24,37.3285328 C25.104,38.1565328 26.292,38.6245328 27.48,38.6245328 Z M38.156,38.4565328 L38.156,36.9685328 L34.352,36.9685328 L34.352,34.5925328 L37.472,34.5925328 L37.472,33.1045328 L34.352,33.1045328 L34.352,31.0525328 L38.024,31.0525328 L38.024,29.5645328 L32.576,29.5645328 L32.576,38.4565328 L38.156,38.4565328 Z" id="CLOSE" fill-rule="nonzero"></path>
                <g id="Nav-Copy" transform="translate(7.781467, 0.000000)">
                    <path d="M-1.65216281,10.3478372 L25.5711574,10.2984301 C26.4699903,10.2967988 27.1999609,11.0241245 27.2015921,11.9229575 C27.2015957,11.9249266 27.2015957,11.9268957 27.2015921,11.9288649 C27.1999532,12.8319238 26.4682874,13.5635896 25.5652285,13.5652285 L-1.65809166,13.6146356 C-2.55692465,13.6162669 -3.28689517,12.8889412 -3.28852644,11.9901082 C-3.28853002,11.9881391 -3.28853002,11.98617 -3.28852644,11.9842008 C-3.2868875,11.0811419 -2.55522174,10.3494761 -1.65216281,10.3478372 Z" id="Rectangle-Copy" transform="translate(11.956533, 11.956533) rotate(45.000000) translate(-11.956533, -11.956533) "></path>
                    <path d="M-1.65216281,10.3478372 L25.5711574,10.2984301 C26.4699903,10.2967988 27.1999609,11.0241245 27.2015921,11.9229575 C27.2015957,11.9249266 27.2015957,11.9268957 27.2015921,11.9288649 C27.1999532,12.8319238 26.4682874,13.5635896 25.5652285,13.5652285 L-1.65809166,13.6146356 C-2.55692465,13.6162669 -3.28689517,12.8889412 -3.28852644,11.9901082 C-3.28853002,11.9881391 -3.28853002,11.98617 -3.28852644,11.9842008 C-3.2868875,11.0811419 -2.55522174,10.3494761 -1.65216281,10.3478372 Z" id="Rectangle-Copy-3" transform="translate(11.956533, 11.956533) scale(-1, 1) rotate(45.000000) translate(-11.956533, -11.956533) "></path>
                </g>
            </g>
        </g>
    </g>
</svg>