<?xml version="1.0" encoding="UTF-8"?>
<svg width="437px" height="354px" viewBox="0 0 437 354" version="1.1" xmlns="http://www.w3.org/2000/svg" xmlns:xlink="http://www.w3.org/1999/xlink">
    <title>Friends of the Minneapolis Farmers Market</title>
    <g id="Designs" stroke="none" stroke-width="1" fill="none" fill-rule="evenodd">
        <g id="About-the-Market" transform="translate(-140.000000, -3126.000000)" fill="#395442" fill-rule="nonzero">
            <g id="Friends-of-the-Minneapolis-Farmers-Market" transform="translate(140.000000, 3126.000000)">
                <path d="M325.208867,229.067186 L251.208867,227.022395 L291.08867,274.49075 L275.340887,283.473223 L241.366502,226.730282 L228.316256,226.365141 L249.677833,288.512171 L227.514286,295.011685 L220.661084,226.219085 L226.785222,226.292113 L216.797044,226 L210.527094,226.146056 L203.819704,293.478092 L181.437438,289.461538 L203.163547,226.292113 L190.404926,226.657254 L156.722167,282.962025 L140.974384,273.979552 L180.416749,226.949367 L166.272906,227.314508 L127.195074,257.621227 L118.592118,248.78481 L153.514286,227.825706 L113.342857,228.92113 L107,233.375852 C127.4867,273.541383 169.189163,301 217.307389,301 C266.519212,301 309.023645,272.226874 329,230.600779 L325.208867,229.067186 Z M306.982266,259.885102 L265.935961,228.044791 L278.11133,228.117819 L315.366502,250.537488 L306.982266,259.885102 Z" id="Shape"></path>
                <path d="M218.219223,301 C194.689269,301 171.816985,294.447927 152.013825,281.998989 C132.722186,269.914055 117.15734,252.733064 107,232.494439 L114.015142,229 C123.514812,248.001011 138.129691,264.017189 156.179065,275.374115 C174.739961,287.022245 196.150757,293.210313 218.219223,293.210313 C240.14154,293.210313 261.406188,287.095046 279.894009,275.592518 C297.870309,264.381193 312.412113,248.510617 321.984858,229.728008 L329,233.295248 C318.769585,253.31547 303.20474,270.278059 284.05925,282.217391 C264.402238,294.520728 241.603028,301 218.219223,301 Z" id="Path"></path>
                <path d="M54.6730769,134 L47,132.030484 C47.2192308,131.301034 47.3653846,130.644529 47.5846154,129.915079 C57.5961538,93.2966794 79.8115385,60.2525857 110.065385,36.9101796 C141.269231,12.7653783 178.684615,0 218.292308,0 C257.9,0 295.315385,12.7653783 326.519231,36.9101796 C356.773077,60.2525857 378.915385,93.3696244 389,129.988024 L381.326923,132.10343 C371.753846,97.0898204 350.561538,65.5775721 321.696154,43.2563963 C291.880769,20.2057703 256.146154,8.0239521 218.365385,8.0239521 C180.584615,8.0239521 144.85,20.2057703 115.034615,43.2563963 C86.0230769,65.5046271 64.8307692,97.0168753 55.2576923,132.030484 C55.0384615,132.68699 54.8923077,133.343495 54.6730769,134 Z" id="Path"></path>
                <path d="M218.463415,354 C181.365854,354 145.878049,342.684049 115.804878,321.293252 C86.3902439,300.340491 64.2926829,271.503067 52,237.774233 L59.4634146,235.073006 C71.2439024,267.268712 92.3170732,294.865031 120.414634,314.868712 C149.170732,335.310429 183.04878,346.115337 218.463415,346.115337 C253.878049,346.115337 287.829268,335.310429 316.585366,314.868712 C344.682927,294.865031 365.829268,267.268712 377.536585,235 L385,237.701227 C372.707317,271.503067 350.609756,300.413497 321.195122,321.366258 C291.121951,342.684049 255.560976,354 218.463415,354 Z" id="Path"></path>
                <path d="M382.983193,136 C382.680672,134.708861 382.302521,133.493671 382,132.202532 L389.941176,130 C390.319328,131.291139 390.621849,132.658228 391,133.949367 L382.983193,136 Z" id="Path"></path>
                <g id="Group" transform="translate(109.000000, 24.000000)">
                    <g transform="translate(-0.000000, 42.594717)">
                        <polygon id="Path" points="6.30184874 9.77658465 10.5519328 5.2586175 11.7976471 6.44365806 7.54756303 10.9616252 12.4571429 15.7017875 11.2114286 17.0349581 0.512941176 6.66585317 6.30184874 0.518455247 7.54756303 1.70349581 3.00436975 6.5177231"></polygon>
                        <path d="M11.2114286,17.4052833 L0,6.59178813 L6.22857143,0 L7.91394958,1.62943077 L3.3707563,6.44365806 L6.30184874,9.2581294 L10.5519328,4.74016225 L12.2373109,6.36959303 L7.98722689,10.8875602 L12.8968067,15.6277224 L11.2114286,17.4052833 Z M0.952605042,6.59178813 L11.2114286,16.5165029 L12.017479,15.7017875 L7.10789916,10.9616252 L11.3579832,6.44365806 L10.6252101,5.70300771 L6.37512605,10.2209749 L2.49142857,6.44365806 L7.03462185,1.62943077 L6.30184874,0.888780423 L0.952605042,6.59178813 Z" id="Shape"></path>
                    </g>
                    <g transform="translate(12.823529, 32.342921)" id="Shape">
                        <path d="M0.512941176,4.10439754 L3.51731092,1.66025138 C5.78890756,-0.191374499 8.50016807,-0.117309463 10.1122689,1.95651152 C12.3105882,4.69691783 10.2588235,7.28919406 9.96571429,7.5854542 L17.0736134,9.80740526 L15.3882353,11.1405759 L8.42689076,8.91862483 L7.32773109,9.80740526 L11.1381513,14.5475675 L9.74588235,15.658543 L0.512941176,4.10439754 Z M8.72,3.06748705 C7.69411765,1.80838145 6.15529412,1.66025138 4.61647059,2.91935698 L2.93109244,4.32659265 L6.30184874,8.54829966 L7.98722689,7.14106399 C9.59932773,5.88195839 9.74588235,4.40065769 8.72,3.06748705 Z"></path>
                        <path d="M9.81915966,16.2510633 L0,4.10439754 L3.22420168,1.43805628 C5.71563025,-0.561699675 8.50016807,-0.487634639 10.3321008,1.73431642 C12.3105882,4.17846258 11.1381513,6.47447867 10.4786555,7.43732413 L17.7331092,9.73334022 L15.4615126,11.5849661 L8.50016807,9.36301505 L7.84067227,9.88147029 L11.6510924,14.6216325 L9.81915966,16.2510633 Z M0.952605042,4.17846258 L9.89243697,15.2882179 L10.7717647,14.5475675 L6.96134454,9.80740526 L8.42689076,8.62236469 L15.3882353,10.8443157 L16.4141176,9.95553533 L9.3794958,7.73358427 L9.74588235,7.36325909 C9.96571429,7.06699895 11.9442017,4.77098286 9.89243697,2.17870663 C8.35361345,0.253015713 5.86218487,0.178950678 3.73714286,1.95651152 L0.952605042,4.17846258 Z M6.30184874,8.99268987 L2.49142857,4.25252761 L4.46991597,2.62309684 C5.27596639,1.95651152 6.15529412,1.66025138 6.96134454,1.66025138 C7.76739496,1.73431642 8.50016807,2.10464159 9.08638655,2.84529195 C9.67260504,3.5859423 9.89243697,4.32659265 9.74588235,5.14130804 C9.59932773,5.95602343 9.15966387,6.69667378 8.35361345,7.36325909 L6.30184874,8.99268987 Z M3.44403361,4.40065769 L6.44840336,8.10390945 L7.91394958,6.91886888 C8.57344538,6.3263486 9.01310924,5.73382832 9.08638655,5.067243 C9.15966387,4.47472272 9.01310924,3.88220244 8.50016807,3.28968216 L8.50016807,3.28968216 C8.0605042,2.69716188 7.47428571,2.40090173 6.88806723,2.40090173 C6.22857143,2.40090173 5.56907563,2.62309684 4.90957983,3.21561712 L3.44403361,4.40065769 Z"></path>
                    </g>
                    <g transform="translate(27.845378, 23.708133)">
                        <polygon id="Path" points="0.439663866 1.40723567 1.90521008 0.444390211 10.0389916 13.0354462 8.57344538 13.9982917"></polygon>
                        <path d="M8.50016807,14.4426819 L0,1.33317063 L2.05176471,0 L10.5519328,13.1095112 L8.50016807,14.4426819 Z M0.879327731,1.4813007 L8.64672269,13.4798364 L9.59932773,12.8873161 L1.83193277,0.888780423 L0.879327731,1.4813007 Z" id="Shape"></path>
                    </g>
                    <g transform="translate(38.250756, 14.227808)">
                        <polygon id="Path" points="4.98285714 9.33219444 10.5519328 6.44365806 11.3579832 7.9990238 5.78890756 10.8875602 8.13378151 15.4795924 14.2890756 12.2947958 15.0951261 13.8501616 7.32773109 17.8496735 0.512941176 4.51796715 8.13378151 0.592520282 8.93983193 2.14788602 2.93109244 5.2586175"></polygon>
                        <path d="M7.10789916,18.2199987 L0,4.29577204 L8.20705882,0 L9.30621849,2.14788602 L3.29747899,5.2586175 L5.12941176,8.88780423 L10.6984874,5.99926785 L11.7976471,8.14715387 L6.22857143,11.0356902 L8.20705882,14.9611371 L14.3623529,11.7763406 L15.4615126,13.9242266 L7.10789916,18.2199987 Z M0.952605042,4.59203218 L7.4010084,17.3312182 L14.5821849,13.6279665 L14.142521,12.665121 L7.98722689,15.8499175 L5.3492437,10.6653651 L10.9183193,7.7768287 L10.4786555,6.81398324 L4.90957983,9.70251961 L2.49142857,4.88829232 L8.50016807,1.77756085 L8.0605042,0.814715387 L0.952605042,4.59203218 Z" id="Shape"></path>
                    </g>
                    <g transform="translate(55.177815, 6.302849)">
                        <polygon id="Path" points="2.12504202 3.70325176 13.5563025 12.3688609 9.67260504 1.03691049 11.3579832 0.444390211 16.267563 14.5908119 14.5089076 15.1833322 3.07764706 6.5177231 6.96134454 17.8496735 5.27596639 18.4421938 0.366386555 4.29577204"></polygon>
                        <path d="M5.12941176,18.886584 L0,4.07357694 L2.19831933,3.25886155 L12.8968067,11.4060154 L9.23294118,0.814715387 L11.5778151,0 L16.7072269,14.813007 L14.5089076,15.6277224 L3.81042017,7.48056856 L7.47428571,18.0718686 L5.12941176,18.886584 Z M0.80605042,4.51796715 L5.49579832,18.0718686 L6.52168067,17.7015434 L2.34487395,5.62894268 L14.5089076,14.8870721 L15.7546218,14.4426819 L11.0648739,0.888780423 L10.0389916,1.2591056 L14.2157983,13.3317063 L2.05176471,4.07357694 L0.80605042,4.51796715 Z" id="Shape"></path>
                    </g>
                    <g transform="translate(76.501513, 2.639997)" id="Shape">
                        <path d="M13.1166387,6.55138902 C13.9226891,10.773096 11.7976471,14.4763478 7.25445378,15.2910632 L3.07764706,16.1057786 L0.366386555,1.36683656 L4.54319328,0.552121172 C9.08638655,-0.336659251 12.3838655,2.32968202 13.1166387,6.55138902 Z M11.2847059,6.9217142 C10.6984874,3.81098272 8.35361345,1.58903166 4.76302521,2.25561698 L2.41815126,2.70000719 L4.54319328,14.1060226 L6.88806723,13.6616324 C10.4786555,12.9950471 11.8709244,10.0324457 11.2847059,6.9217142 Z"></path>
                        <path d="M2.85781513,16.4761037 L0,1.07057642 L4.54319328,0.181795996 C6.81478992,-0.262594216 8.86655462,0.10773096 10.4786555,1.29277152 C12.017479,2.40374705 13.1166387,4.1813079 13.4830252,6.40325895 L13.4830252,6.40325895 C13.9226891,8.62521001 13.5563025,10.624966 12.5304202,12.3284618 C11.4312605,14.0319576 9.67260504,15.1429331 7.4010084,15.5873233 L2.85781513,16.4761037 Z M0.732773109,1.6630967 L3.3707563,15.7354534 L7.25445378,14.994803 C9.30621849,14.6244779 10.9915966,13.5875674 11.9442017,12.0322016 C12.8968067,10.5509009 13.189916,8.69927505 12.8235294,6.62545406 L12.8235294,6.62545406 C12.4571429,4.55163307 11.5045378,2.9222023 10.0389916,1.88529181 C8.57344538,0.848381313 6.66823529,0.478056136 4.61647059,0.848381313 L0.732773109,1.6630967 Z M4.32336134,14.4763478 L2.05176471,2.40374705 L4.6897479,1.88529181 C6.44840336,1.51496663 8.0605042,1.88529181 9.30621849,2.84813726 C10.4786555,3.73691769 11.2847059,5.14415336 11.5778151,6.84764917 L11.5778151,6.84764917 C12.2373109,10.4768359 10.4053782,13.2913072 6.96134454,13.9578925 L4.32336134,14.4763478 Z M2.78453782,2.99626733 L4.76302521,13.7356974 L6.74151261,13.3653723 C9.81915966,12.772852 11.4312605,10.2546408 10.845042,6.99577924 L10.845042,6.99577924 C10.5519328,5.51447853 9.81915966,4.25537293 8.86655462,3.44065755 C7.76739496,2.62594216 6.37512605,2.32968202 4.76302521,2.62594216 L2.78453782,2.99626733 Z"></path>
                    </g>
                    <g transform="translate(97.312269, 0.000000)">
                        <path d="M4.83630252,8.8951257 C2.63798319,8.00634527 0.659495798,7.11756485 0.512941176,4.52528862 C0.439663866,2.74772777 1.75865546,0.525776715 4.61647059,0.377646644 C7.4010084,0.229516574 8.93983193,2.30333756 8.93983193,2.30333756 L7.69411765,3.48837812 C7.69411765,3.48837812 6.59495798,2.00707742 4.76302521,2.08114245 C3.15092437,2.15520749 2.34487395,3.34024805 2.34487395,4.45122358 C2.41815126,6.00658932 3.73714286,6.52504457 5.78890756,7.33975996 C8.13378151,8.30260541 9.59932773,9.19138584 9.67260504,11.561467 C9.81915966,14.0056131 7.91394958,15.7091089 5.27596639,15.857239 C1.75865546,16.0794341 0.366386555,12.9687026 0.366386555,12.9687026 L1.83193277,12.0058572 C1.83193277,12.0058572 2.85781513,14.3018733 5.20268908,14.1537432 C6.59495798,14.0796782 7.91394958,13.1908977 7.84067227,11.635532 C7.84067227,10.0801663 6.52168067,9.56171101 4.83630252,8.8951257 Z" id="Path"></path>
                        <path d="M5.05613445,16.2275642 C1.61210084,16.2275642 0.219831933,13.1908977 0.146554622,13.1168327 L0,12.8946376 L1.97848739,11.561467 L2.12504202,11.9317921 C2.19831933,12.0058572 3.07764706,14.0056131 5.20268908,13.8574831 C6.37512605,13.783418 7.62084034,13.1168327 7.54756303,11.709597 C7.47428571,10.3764264 6.44840336,9.93203619 4.6897479,9.19138584 L4.6897479,9.19138584 C2.7112605,8.37667045 0.293109244,7.41382499 0.146554622,4.52528862 C0.0732773109,2.74772777 1.3189916,0.155451539 4.54319328,0.00732146825 C7.47428571,-0.140808602 9.08638655,2.00707742 9.15966387,2.08114245 L9.30621849,2.30333756 L7.54756303,3.93276834 L7.32773109,3.63650819 C7.32773109,3.63650819 6.30184874,2.30333756 4.61647059,2.3774026 C3.81042017,2.45146763 3.29747899,2.74772777 3.00436975,3.04398791 C2.7112605,3.41431309 2.49142857,3.8587033 2.56470588,4.37715855 C2.63798319,5.63626415 3.66386555,6.08065436 5.78890756,6.96943478 C7.98722689,7.8582152 9.74588235,8.74699562 9.89243697,11.4874019 C10.0389916,14.0056131 8.0605042,16.0053691 5.20268908,16.1534991 C5.20268908,16.2275642 5.12941176,16.2275642 5.05613445,16.2275642 Z M0.879327731,13.1168327 C1.24571429,13.783418 2.63798319,15.7091089 5.3492437,15.5609789 C7.84067227,15.4128488 9.52605042,13.783418 9.45277311,11.561467 C9.30621849,9.41358094 8.13378151,8.59886555 5.71563025,7.6360201 C3.66386555,6.82130471 2.12504202,6.22878443 2.05176471,4.45122358 C2.05176471,3.78463826 2.27159664,3.11805295 2.7112605,2.67366274 C3.07764706,2.30333756 3.66386555,1.78488231 4.76302521,1.78488231 C6.30184874,1.71081728 7.32773109,2.5995977 7.76739496,3.04398791 L8.57344538,2.30333756 C8.0605042,1.78488231 6.74151261,0.59984175 4.6897479,0.673906785 C1.97848739,0.822036856 0.879327731,2.96992288 0.952605042,4.52528862 C1.09915966,6.82130471 2.7112605,7.6360201 5.05613445,8.59886555 L5.05613445,8.59886555 C6.74151261,9.26545087 8.20705882,9.85797115 8.28033613,11.709597 C8.35361345,13.4871579 6.88806723,14.4500033 5.3492437,14.5981334 C3.3707563,14.7462635 2.27159664,13.2649628 1.83193277,12.5983775 L0.879327731,13.1168327 Z" id="Shape"></path>
                    </g>
                    <g transform="translate(126.112367, 1.889975)" id="Shape">
                        <path d="M14.946457,9.37523159 C14.2136839,13.6710036 10.6230957,16.485475 6.37301165,15.7448246 C2.12292761,15.0041743 -0.295223649,11.0787274 0.437549461,6.85702039 C1.17032257,2.56124835 4.76091081,-0.253222987 9.01099484,0.487427366 C13.2610789,1.22807772 15.6792301,5.15352458 14.946457,9.37523159 Z M13.0412469,9.07897145 C13.5541881,5.89417494 11.9420873,2.70937842 8.7178856,2.19092318 C5.49368391,1.59840289 2.85570072,4.04254906 2.34275954,7.22734557 C1.82981837,10.4121421 3.44191921,13.5969386 6.66612089,14.1153938 C9.89032257,14.6338491 12.5283058,12.1897029 13.0412469,9.07897145 Z"></path>
                        <path d="M7.69200324,16.2632799 C7.25233938,16.2632799 6.81267551,16.1892148 6.29973433,16.1151498 C1.97637299,15.3744994 -0.661610203,11.3749875 0.144440217,6.78295536 C0.510826772,4.63506934 1.60998644,2.70937842 3.22208728,1.52433786 C4.90746543,0.26523226 6.95923013,-0.253222987 9.08427215,0.117102189 C11.2093142,0.487427366 12.9679696,1.67246793 14.1404066,3.37596374 C15.2395663,5.07945955 15.6792301,7.22734557 15.3128436,9.37523159 L15.3128436,9.37523159 C14.946457,11.5231176 13.8472974,13.4488085 12.2351965,14.6338491 C10.8429276,15.7448246 9.30410408,16.2632799 7.69200324,16.2632799 Z M7.69200324,0.709622471 C6.22645702,0.709622471 4.83418812,1.15401268 3.66175114,2.04279311 C2.19620492,3.15376863 1.17032257,4.93132948 0.803936015,6.93108543 C0.0711629061,11.0787274 2.48931417,14.7819792 6.44628896,15.4485645 C8.35149904,15.8188897 10.2567091,15.3744994 11.7955327,14.1894589 C13.2610789,13.0784834 14.2869612,11.3009225 14.6533478,9.30116656 C15.0197343,7.30141061 14.6533478,5.30165466 13.6274654,3.74628892 C12.6015831,2.19092318 10.9894822,1.07994765 9.01099484,0.783687506 C8.57133097,0.709622471 8.13166711,0.709622471 7.69200324,0.709622471 Z M7.54544862,14.485719 C7.25233938,14.485719 6.88595282,14.485719 6.59284358,14.411654 C3.44191921,13.8191337 1.3901545,10.6343372 1.97637299,7.15328054 C2.26948223,5.52384976 3.07553265,4.04254906 4.32124694,3.0797036 C5.56696123,2.04279311 7.17906207,1.59840289 8.79116291,1.89466303 C11.9420873,2.48718332 13.993852,5.67197983 13.4076335,9.15303649 L13.4076335,9.15303649 C12.821415,12.337833 10.4032637,14.485719 7.54544862,14.485719 Z M7.83855786,2.41311828 C6.7393982,2.41311828 5.64023854,2.78344346 4.76091081,3.52409381 C3.66175114,4.41287423 2.92897803,5.74604487 2.7091461,7.22734557 C2.19620492,9.96775187 3.58847383,13.1525484 6.7393982,13.7450687 C9.89032257,14.2635239 12.2351965,11.7453127 12.7481377,9.00490642 C13.1878016,6.26450011 11.86881,3.0797036 8.7178856,2.48718332 C8.35149904,2.41311828 8.13166711,2.41311828 7.83855786,2.41311828 Z"></path>
                    </g>
                    <g transform="translate(146.627899, 6.154719)">
                        <polygon id="Path" points="4.76302521 7.03617835 10.6252101 8.96186926 10.1122689 10.5913 4.25008403 8.66560912 2.12504202 15.1833322 0.439663866 14.5908119 5.05613445 0.296260141 13.0433613 2.88853637 12.5304202 4.51796715 6.22857143 2.44414616"></polygon>
                        <path d="M2.34487395,15.6277224 L0,14.8870721 L4.76302521,0 L13.3364706,2.81447134 L12.6036975,5.11048743 L6.30184874,3.03666644 L5.05613445,6.88804828 L10.9183193,8.81373919 L10.1855462,11.1097553 L4.32336134,9.18406437 L2.34487395,15.6277224 Z M0.80605042,14.3686168 L1.90521008,14.738942 L4.0302521,8.22121891 L9.89243697,10.1469098 L10.1855462,9.18406437 L4.32336134,7.25837345 L6.0087395,2.14788602 L12.3105882,4.22170701 L12.6036975,3.25886155 L5.27596639,0.814715387 L0.80605042,14.3686168 Z" id="Shape"></path>
                    </g>
                    <g transform="translate(174.326723, 16.968215)">
                        <polygon id="Path" points="6.96134454 4.14764197 3.29747899 1.99975595 4.17680672 0.518455247 13.1166387 5.70300771 12.2373109 7.18430842 8.57344538 5.0364224 2.05176471 16.5905679 0.512941176 15.7017875"></polygon>
                        <path d="M2.12504202,17.0349581 L0,15.7758525 L6.52168067,4.22170701 L2.85781513,2.07382099 L4.0302521,0 L13.5563025,5.48081261 L12.3838655,7.55463359 L8.72,5.40674757 L2.12504202,17.0349581 Z M0.879327731,15.5536574 L1.83193277,16.1461777 L8.35361345,4.59203218 L12.017479,6.73991821 L12.5304202,5.85113778 L4.17680672,1.03691049 L3.66386555,1.92569092 L7.32773109,4.07357694 L0.879327731,15.5536574 Z" id="Shape"></path>
                    </g>
                    <g transform="translate(185.538151, 27.337319)">
                        <polygon id="Path" points="16.7072269 6.07333289 18.0994958 7.18430842 9.08638655 19.1087791 7.69411765 17.9978036 11.7976471 12.591056 5.86218487 7.9990238 1.75865546 13.4057714 0.366386555 12.2947958 9.3794958 0.370325176 10.7717647 1.4813007 6.88806723 6.59178813 12.8235294 11.1838203"></polygon>
                        <path d="M9.15966387,19.5531693 L7.25445378,18.0718686 L11.3579832,12.665121 L6.0087395,8.51747905 L1.90521008,13.9242266 L0,12.4429259 L9.45277311,-1.05252746e-14 L11.3579832,1.4813007 L7.47428571,6.59178813 L12.8235294,10.7394301 L16.7072269,5.62894268 L18.612437,7.11024338 L9.15966387,19.5531693 Z M8.13378151,17.9237385 L9.01310924,18.5903238 L17.6598319,7.18430842 L16.7805042,6.5177231 L12.8968067,11.6282105 L6.44840336,6.66585317 L10.3321008,1.55536574 L9.45277311,0.888780423 L0.80605042,12.2207308 L1.68537815,12.8873161 L5.78890756,7.48056856 L12.2373109,12.4429259 L8.13378151,17.9237385 Z" id="Shape"></path>
                    </g>
                    <g transform="translate(200.486723, 41.113416)">
                        <polygon id="Path" points="7.76739496 6.29552799 12.1640336 10.8134951 10.9915966 11.9985357 6.59495798 7.48056856 3.00436975 11.1097553 7.91394958 16.0721126 6.74151261 17.2571532 0.586218487 11.0356902 11.1381513 0.444390211 17.1468908 6.59178813 15.9744538 7.7768287 11.2114286 2.88853637"></polygon>
                        <path d="M6.59495798,17.7756085 L0,11.0356902 L10.9915966,0 L17.5132773,6.59178813 L15.8278992,8.29528395 L11.0648739,3.40699162 L8.20705882,6.29552799 L12.6036975,10.8134951 L10.9183193,12.516991 L6.52168067,7.9990238 L3.3707563,11.1097553 L8.28033613,16.0721126 L6.59495798,17.7756085 Z M0.952605042,11.0356902 L6.59495798,16.812763 L7.32773109,16.0721126 L2.41815126,11.1097553 L6.52168067,7.03617835 L10.9183193,11.5541455 L11.6510924,10.8134951 L7.25445378,6.29552799 L11.0648739,2.5182112 L15.8278992,7.40650352 L16.5606723,6.66585317 L10.9915966,0.962845458 L0.952605042,11.0356902 Z" id="Shape"></path>
                    </g>
                </g>
                <g id="Group" transform="translate(111.000000, 268.000000)">
                    <g transform="translate(0.000000, 1.082974)">
                        <polygon id="Path" points="8.3264894 5.63146552 11.9784584 10.5409483 10.5907102 11.5517241 6.93874116 6.64224138 1.53382699 10.6131466 0.511275665 9.16918103 12.4166947 0.505387931 17.3833726 7.14762931 15.9956244 8.15840517 12.1245372 2.88793103"></polygon>
                        <path d="M10.5176708,11.9849138 L6.86570178,7.07543103 L1.46078761,11.0463362 L0,9.09698276 L12.4897341,0 L17.8216089,7.14762931 L15.922585,8.51939655 L12.0514978,3.24892241 L8.83776506,5.63146552 L12.4897341,10.5409483 L10.5176708,11.9849138 Z M7.01178055,6.20905172 L10.6637496,11.1185345 L11.4671828,10.5409483 L7.81521373,5.63146552 L12.1245372,2.52693966 L15.9956244,7.79741379 L16.7990576,7.21982759 L12.270616,1.08297414 L0.949511949,9.24137931 L1.60686637,10.1077586 L7.01178055,6.20905172 Z" id="Shape"></path>
                    </g>
                    <g transform="translate(9.129923, 15.811422)" id="Shape">
                        <path d="M15.3382699,0.360991379 L16.5069,1.51616379 L9.93335577,15.8114224 L8.61864692,14.5118534 L10.4446314,10.6853448 L5.98922922,6.13685345 L2.04510266,7.79741379 L0.730393807,6.42564655 L15.3382699,0.360991379 Z M7.59609559,5.41487069 L11.1019859,9.02478448 L14.0235611,2.67133621 L7.59609559,5.41487069 Z"></path>
                        <path d="M9.93335577,16.3890086 L8.10737126,14.5840517 L9.93335577,10.7575431 L5.77011107,6.5700431 L1.82598452,8.23060345 L0,6.35344828 L15.3382699,0 L16.7990576,1.51616379 L9.93335577,16.3890086 Z M8.98384382,14.4396552 L9.78727701,15.2338362 L16.0686637,1.58836207 L15.2652306,0.721982759 L1.24166947,6.49784483 L2.04510266,7.36422414 L5.98922922,5.70366379 L10.736789,10.5409483 L8.98384382,14.4396552 Z M11.2480646,9.60237069 L7.01178055,5.34267241 L14.7539549,2.09375 L11.2480646,9.60237069 Z M8.18041064,5.55926724 L11.0289465,8.44719828 L13.439246,3.32112069 L8.18041064,5.55926724 Z"></path>
                    </g>
                    <g transform="translate(25.198586, 25.269397)" id="Shape">
                        <path d="M9.42208011,0.360991379 L12.4897341,2.67133621 C14.8269943,4.40409483 15.3382699,7.00323276 13.7314036,9.09698276 C11.6132615,11.8405172 8.6916863,10.46875 8.25345002,10.2521552 L7.74217435,17.6163793 L6.0622686,16.3168103 L6.57354426,9.16918103 L5.47795355,8.375 L1.82598452,13.1400862 L0.438236284,12.0571121 L9.42208011,0.360991379 Z M12.3436553,8.01400862 C13.3662067,6.71443966 13.1470885,5.27047414 11.5402221,4.04310345 L9.78727701,2.74353448 L6.50050488,6.93103448 L8.25345002,8.23060345 C9.86031639,9.45797414 11.3941434,9.31357759 12.3436553,8.01400862 Z"></path>
                        <path d="M8.10737126,18.1939655 L5.77011107,16.4612069 L6.28138674,9.31357759 L5.62403231,8.80818966 L1.97206328,13.5732759 L0,12.1293103 L9.42208011,0 L12.7088522,2.52693966 C13.9505217,3.46551724 14.6809155,4.54849138 14.973073,5.84806034 C15.1921912,7.07543103 14.9000337,8.375 14.0966005,9.45797414 C12.1975766,11.9127155 9.71423763,11.262931 8.6916863,10.9019397 L8.10737126,18.1939655 Z M6.50050488,16.1002155 L7.59609559,16.8943966 L8.10737126,9.67456897 L8.54560754,9.89116379 C8.83776506,10.0355603 11.5402221,11.4073276 13.5853248,8.80818966 C14.3157186,7.86961207 14.6078761,6.78663793 14.388758,5.77586207 C14.1696399,4.69288793 13.5122854,3.68211207 12.4166947,2.88793103 L9.64119825,0.794181034 L1.02255133,11.9127155 L1.8990239,12.5625 L5.55099293,7.79741379 L7.01178055,8.95258621 L6.50050488,16.1002155 Z M10.3715921,9.38577586 C9.64119825,9.38577586 8.83776506,9.09698276 8.10737126,8.51939655 L6.13530798,7.00323276 L9.78727701,2.23814655 L11.7593403,3.75431034 C13.439246,4.98168103 13.7314036,6.71443966 12.6358129,8.15840517 L12.6358129,8.15840517 C12.0514978,8.88038793 11.3941434,9.31357759 10.5907102,9.31357759 C10.5176708,9.38577586 10.4446314,9.38577586 10.3715921,9.38577586 Z M7.01178055,6.93103448 L8.47256816,8.01400862 C9.20296197,8.51939655 9.86031639,8.80818966 10.5176708,8.73599138 C11.1019859,8.6637931 11.6863009,8.375 12.1245372,7.79741379 C13.0010098,6.64224138 12.7818916,5.34267241 11.3941434,4.33189655 L9.93335577,3.24892241 L7.01178055,6.93103448 Z"></path>
                    </g>
                    <g transform="translate(40.536856, 34.582974)">
                        <polygon id="Path" points="8.91080444 1.29956897 9.49511949 10.9019397 17.8946483 6.06465517 19.4284753 6.85883621 12.4166947 19.7823276 10.8828677 18.9159483 16.3608213 8.80818966 8.03433187 13.6454741 7.45001683 4.11530172 1.97206328 14.2230603 0.438236284 13.356681 7.45001683 0.433189655"></polygon>
                        <path d="M12.4897341,20.2155172 L10.3715921,19.0603448 L15.4843487,9.67456897 L7.66913497,14.1508621 L7.15785931,5.27047414 L2.11814204,14.65625 L0,13.5010776 L7.30393807,0 L9.34904073,1.08297414 L9.93335577,10.3243534 L18.040727,5.63146552 L20.0127903,6.64224138 L12.4897341,20.2155172 Z M11.2480646,18.7715517 L12.1975766,19.2769397 L18.9171996,6.93103448 L17.8946483,6.35344828 L9.20296197,11.3351293 L8.61864692,1.37176724 L7.52305621,0.794181034 L0.803433187,13.1400862 L1.75294514,13.6454741 L7.59609559,2.81573276 L8.18041064,12.9234914 L17.0912151,7.79741379 L11.2480646,18.7715517 Z" id="Shape"></path>
                    </g>
                    <g transform="translate(62.156513, 44.040948)">
                        <polygon id="Path" points="4.82059912 6.93103448 10.736789 8.95258621 10.1524739 10.5409483 4.23628408 8.51939655 2.6294177 13.2122845 9.12992258 15.450431 8.54560754 17.0387931 0.365196903 14.2230603 5.18579603 0.360991379 13.2931673 3.10452586 12.7088522 4.69288793 6.28138674 2.52693966"></polygon>
                        <path d="M8.83776506,17.3997845 L0,14.4396552 L5.03971727,0 L13.7314036,2.96012931 L13.0010098,5.12607759 L6.57354426,2.96012931 L5.25883541,6.71443966 L11.1750252,8.73599138 L10.4446314,10.9019397 L4.5284416,8.88038793 L3.06765399,12.9956897 L9.56815887,15.2338362 L8.83776506,17.3997845 Z M0.803433187,14.0064655 L8.39952878,16.6056034 L8.76472568,15.6670259 L2.2642208,13.4288793 L4.09020532,8.0862069 L10.0063952,10.1077586 L10.3715921,9.16918103 L4.45540222,7.14762931 L6.20834736,2.16594828 L12.6358129,4.33189655 L13.0010098,3.39331897 L5.55099293,0.86637931 L0.803433187,14.0064655 Z" id="Shape"></path>
                    </g>
                    <g transform="translate(79.685964, 48.733836)" id="Shape">
                        <path d="M3.21373275,0.360991379 L7.01178055,1.08297414 C9.93335577,1.66056034 11.5402221,3.68211207 11.0289465,6.28125 C10.3715921,9.67456897 7.08481993,9.74676724 6.64658364,9.67456897 L9.49511949,16.4612069 L7.37697745,16.0280172 L4.60148098,9.38577586 L3.28677213,9.09698276 L2.11814204,14.9450431 L0.365196903,14.5840517 L3.21373275,0.360991379 Z M9.27600135,5.92025862 C9.56815887,4.33189655 8.6916863,3.10452586 6.7926624,2.74353448 L4.67452036,2.31034483 L3.65196903,7.50862069 L5.77011107,7.94181034 C7.66913497,8.30280172 8.91080444,7.50862069 9.27600135,5.92025862 Z"></path>
                        <path d="M10.0063952,16.8943966 L7.15785931,16.3168103 L4.38236284,9.67456897 L3.50589027,9.53017241 L2.33726018,15.3782328 L0,15.0172414 L2.92157523,0 L7.01178055,0.794181034 C8.54560754,1.08297414 9.71423763,1.73275862 10.5176708,2.74353448 C11.321104,3.75431034 11.6132615,4.98168103 11.321104,6.35344828 C10.736789,9.38577586 8.25345002,9.96336207 7.15785931,10.0355603 L10.0063952,16.8943966 Z M7.66913497,15.8114224 L8.98384382,16.0280172 L6.13530798,9.31357759 L6.64658364,9.31357759 C6.7926624,9.31357759 10.0063952,9.38577586 10.6637496,6.13685345 C10.8828677,4.98168103 10.6637496,3.8987069 10.0063952,3.03232759 C9.34904073,2.16594828 8.25345002,1.58836207 6.93874116,1.29956897 L3.50589027,0.649784483 L0.803433187,14.3674569 L1.8990239,14.5840517 L3.06765399,8.73599138 L4.89363851,9.09698276 L7.66913497,15.8114224 Z M6.57354426,8.375 C6.28138674,8.375 5.98922922,8.375 5.62403231,8.30280172 L3.14069337,7.79741379 L4.30932346,1.94935345 L6.7926624,2.45474138 C8.83776506,2.81573276 9.93335577,4.1875 9.56815887,5.9924569 L9.56815887,5.9924569 C9.27600135,7.50862069 8.18041064,8.375 6.57354426,8.375 Z M3.94412656,7.29202586 L5.77011107,7.65301724 C7.45001683,7.94181034 8.61864692,7.36422414 8.91080444,5.84806034 L8.91080444,5.84806034 C9.20296197,4.40409483 8.39952878,3.39331897 6.64658364,3.03232759 L4.82059912,2.67133621 L3.94412656,7.29202586 Z"></path>
                    </g>
                    <g transform="translate(97.434534, 51.111365)">
                        <path d="M5.18579603,8.74100589 C3.06765399,7.65803175 1.24166947,6.57505761 1.38774823,4.12031623 C1.46078761,2.38755761 2.99461461,0.36600589 5.84315045,0.510402442 C8.61864692,0.654798993 9.93335577,2.82074727 9.93335577,2.82074727 L8.54560754,3.83152313 C8.54560754,3.83152313 7.59609559,2.24316106 5.77011107,2.17096279 C4.1632447,2.09876451 3.21373275,3.18173865 3.14069337,4.19251451 C3.06765399,5.7086783 4.30932346,6.35846279 6.28138674,7.36923865 C8.47256816,8.52441106 9.86031639,9.53518692 9.71423763,11.8455318 C9.56815887,14.2280749 7.52305621,15.7442386 4.89363851,15.5998421 C1.38774823,15.4554455 0.365196903,12.2787214 0.365196903,12.2787214 L1.8990239,11.4845404 C1.8990239,11.4845404 2.70245709,13.7948852 5.03971727,13.9392818 C6.4274655,14.01148 7.81521373,13.2894973 7.96129249,11.7733335 C7.96129249,10.1849714 6.7926624,9.53518692 5.18579603,8.74100589 Z" id="Path"></path>
                        <path d="M5.25883541,15.8886352 C5.11275665,15.8886352 5.03971727,15.8886352 4.89363851,15.8886352 C1.16863009,15.6720404 0.0730393807,12.423118 0.0730393807,12.3509197 L0,12.0621266 L2.11814204,10.9791524 L2.2642208,11.3401438 C2.2642208,11.4123421 2.99461461,13.4338938 5.11275665,13.5060921 C5.77011107,13.5782904 6.4274655,13.3616955 6.86570178,13.0729024 C7.37697745,12.7119111 7.66913497,12.2787214 7.66913497,11.6289369 C7.74217435,10.329368 6.7926624,9.82398003 5.11275665,8.95760072 L5.11275665,8.95760072 C3.28677213,8.01902313 0.949511949,6.79165244 1.09559071,3.97591968 C1.16863009,2.96514382 1.60686637,1.95436796 2.41029956,1.2323852 C3.06765399,0.654798993 4.1632447,-0.0671837653 5.91618984,0.00501451058 C8.83776506,0.149411062 10.2255133,2.38755761 10.2985527,2.53195417 L10.4446314,2.82074727 L8.54560754,4.19251451 L8.3264894,3.90372141 C8.3264894,3.90372141 7.45001683,2.45975589 5.77011107,2.38755761 C4.38236284,2.31535934 3.57892965,3.25393692 3.50589027,4.12031623 C3.43285089,5.34768692 4.45540222,5.92527313 6.50050488,6.93604899 C8.54560754,8.01902313 10.2985527,9.10199727 10.1524739,11.7733335 C10.0794345,13.0007042 9.49511949,14.0836783 8.54560754,14.8056611 C7.59609559,15.5276438 6.4274655,15.8886352 5.25883541,15.8886352 Z M0.803433187,12.423118 C1.09559071,13.1451007 2.2642208,15.0944542 4.96667789,15.2388507 C6.13530798,15.311049 7.23089869,15.0222559 8.10737126,14.3724714 C8.91080444,13.7226869 9.42208011,12.8563076 9.42208011,11.7733335 C9.49511949,9.67958348 8.47256816,8.74100589 6.13530798,7.58583348 C4.1632447,6.57505761 2.70245709,5.85307486 2.84853585,4.12031623 C2.92157523,2.89294555 3.94412656,1.66557486 5.77011107,1.73777313 C7.30393807,1.80997141 8.25345002,2.74854899 8.61864692,3.25393692 L9.49511949,2.60415244 C9.0568832,2.02656623 7.88825311,0.799195545 5.84315045,0.654798993 C4.30932346,0.582600717 3.35981151,1.16018692 2.84853585,1.66557486 C2.19118142,2.24316106 1.75294514,3.10954037 1.75294514,3.97591968 C1.60686637,6.21406623 3.21373275,7.15264382 5.40491417,8.30781623 L5.40491417,8.30781623 C7.01178055,9.17419555 8.39952878,9.8961783 8.3264894,11.6289369 C8.25345002,12.423118 7.88825311,13.0729024 7.23089869,13.5782904 C6.64658364,13.9392818 5.91618984,14.1558766 5.11275665,14.1558766 C3.14069337,14.0836783 2.19118142,12.5675145 1.82598452,11.8455318 L0.803433187,12.423118 Z" id="Shape"></path>
                    </g>
                    <g transform="translate(125.627735, 47.939655)">
                        <polygon id="Path" points="2.11814204 2.67133621 8.76472568 9.67456897 12.1245372 0.649784483 13.8044429 0.288793103 16.7260182 14.65625 14.973073 15.0172414 12.6358129 3.75431034 9.34904073 12.7068966 2.77549647 5.77586207 5.03971727 16.9665948 3.28677213 17.3275862 0.365196903 2.96012931"></polygon>
                        <path d="M3.06765399,17.7607759 L0,2.74353448 L2.2642208,2.31034483 L8.6916863,9.09698276 L11.9054191,0.433189655 L14.0966005,0 L17.1642545,15.0172414 L14.7539549,15.5226293 L12.6358129,5.12607759 L9.56815887,13.5010776 L3.43285089,7.00323276 L5.55099293,17.3997845 L3.06765399,17.7607759 Z M0.803433187,3.32112069 L3.57892965,17.0387931 L4.67452036,16.8221983 L2.19118142,4.83728448 L9.20296197,12.2737069 L12.7088522,2.74353448 L15.1921912,14.8006466 L16.2877819,14.5840517 L13.5122854,0.86637931 L12.3436553,1.08297414 L8.91080444,10.3965517 L2.04510266,3.10452586 L0.803433187,3.32112069 Z" id="Shape"></path>
                    </g>
                    <g transform="translate(150.607203, 43.463362)" id="Shape">
                        <path d="M0.438236284,0.938577586 L1.97206328,0.360991379 L12.7088522,11.9127155 L10.9559071,12.5625 L8.03433187,9.45797414 L2.04510266,11.768319 L2.04510266,16.0280172 L0.292157523,16.6778017 L0.438236284,0.938577586 Z M2.11814204,9.96336207 L6.86570178,8.15840517 L2.11814204,2.96012931 L2.11814204,9.96336207 Z"></path>
                        <path d="M0,17.1831897 L0.0730393807,0.721982759 L2.04510266,0 L13.2931673,12.1293103 L10.8828677,13.0678879 L7.96129249,9.96336207 L2.41029956,12.0571121 L2.41029956,16.3168103 L0,17.1831897 Z M0.730393807,1.15517241 L0.657354426,16.1724138 L1.75294514,15.7392241 L1.75294514,11.4795259 L8.10737126,9.02478448 L11.0289465,12.1293103 L12.1245372,11.6961207 L1.82598452,0.649784483 L0.730393807,1.15517241 Z M1.82598452,10.46875 L1.82598452,2.16594828 L7.45001683,8.30280172 L1.82598452,10.46875 Z M2.41029956,3.82650862 L2.41029956,9.45797414 L6.28138674,8.01400862 L2.41029956,3.82650862 Z"></path>
                    </g>
                    <g transform="translate(163.316055, 35.839042)" id="Shape">
                        <path d="M0.511275665,2.93143202 L3.87108718,1.05427685 C6.4274655,-0.389688667 9.0568832,0.115699264 10.3715921,2.35384582 C12.1245372,5.3861734 9.64119825,7.4799234 9.34904073,7.76871651 L15.9956244,11.0898372 L14.1696399,12.1006131 L7.66913497,8.85169064 L6.50050488,9.50147513 L9.49511949,14.699751 L7.96129249,15.5661303 L0.511275665,2.93143202 Z M8.76472568,3.2924234 C7.96129249,1.92065616 6.50050488,1.48746651 4.74755974,2.49824237 L2.84853585,3.58121651 L5.47795355,8.20190616 L7.37697745,7.11893202 C9.12992258,6.10815616 9.56815887,4.66419064 8.76472568,3.2924234 Z"></path>
                        <path d="M7.66913497,16.1437165 L0,2.85923375 L3.65196903,0.837682023 C6.4274655,-0.678481771 9.20296197,-0.100895564 10.5907102,2.28164754 C12.1245372,4.95298375 10.5907102,6.97453547 9.86031639,7.76871651 L16.6529788,11.1620355 L14.0966005,12.606001 L7.59609559,9.35707857 L6.86570178,9.79026823 L9.86031639,14.9885441 L7.66913497,16.1437165 Z M0.949511949,3.07582857 L7.96129249,15.2051389 L8.91080444,14.6275527 L5.91618984,9.42927685 L7.52305621,8.49069926 L14.0235611,11.7396217 L15.1921912,11.0898372 L8.61864692,7.84091478 L9.0568832,7.55212168 C9.12992258,7.4799234 11.6863009,5.45837168 10.0063952,2.57044064 C8.83776506,0.476690643 6.35442612,-0.0286972878 4.01716594,1.34306995 L0.949511949,3.07582857 Z M5.40491417,8.56289754 L2.41029956,3.36462168 L4.60148098,2.13725099 C6.4274655,1.12647513 8.10737126,1.48746651 9.0568832,3.07582857 L9.0568832,3.07582857 C10.0063952,4.66419064 9.42208011,6.32475099 7.59609559,7.33552685 L5.40491417,8.56289754 Z M3.28677213,3.65341478 L5.62403231,7.69651823 L7.23089869,6.75794064 C8.76472568,5.89156133 9.20296197,4.66419064 8.47256816,3.36462168 L8.47256816,3.36462168 C7.74217435,2.06505271 6.4274655,1.84845788 4.89363851,2.71483719 L3.28677213,3.65341478 Z"></path>
                    </g>
                    <g transform="translate(177.266577, 23.608836)">
                        <polygon id="Path" points="6.13530798 11.0463362 6.57354426 1.94935345 8.3264894 0.577586207 7.81521373 10.0355603 17.9676876 11.6961207 16.0686637 13.1400862 6.57354426 11.6239224 10.8828677 17.1109914 9.49511949 18.1939655 0.438236284 6.64224138 1.82598452 5.55926724"></polygon>
                        <path d="M9.49511949,18.6993534 L0,6.64224138 L1.8990239,5.19827586 L5.84315045,10.1799569 L6.28138674,1.87715517 L8.76472568,0 L8.25345002,9.89116379 L18.8441602,11.6239224 L16.2147425,13.6454741 L7.37697745,12.2015086 L11.3941434,17.3275862 L9.49511949,18.6993534 Z M0.949511949,6.71443966 L9.64119825,17.7607759 L10.5176708,17.1109914 L1.82598452,6.06465517 L0.949511949,6.71443966 Z M6.50050488,11.262931 L16.0686637,12.8512931 L17.2372938,11.9127155 L7.52305621,10.3243534 L8.03433187,1.29956897 L6.93874116,2.16594828 L6.50050488,11.262931 Z" id="Shape"></path>
                    </g>
                    <g transform="translate(190.486705, 12.851293)">
                        <polygon id="Path" points="6.20834736 9.67456897 10.5907102 5.19827586 11.8323797 6.35344828 7.45001683 10.8297414 11.1019859 14.2952586 15.922585 9.38577586 17.1642545 10.5409483 11.1019859 16.6778017 0.438236284 6.49784483 6.35442612 0.433189655 7.59609559 1.58836207 2.92157523 6.42564655"></polygon>
                        <path d="M11.1019859,17.1831897 L-4.15180811e-14,6.5700431 L6.4274655,0 L8.10737126,1.58836207 L3.43285089,6.42564655 L6.35442612,9.16918103 L10.736789,4.69288793 L12.4166947,6.28125 L8.03433187,10.7575431 L11.1750252,13.7898707 L15.9956244,8.88038793 L17.6755301,10.46875 L11.1019859,17.1831897 Z M0.876472568,6.5700431 L11.0289465,16.3168103 L16.5799394,10.6131466 L15.8495456,9.89116379 L11.0289465,14.8006466 L6.93874116,10.9019397 L11.321104,6.42564655 L10.5907102,5.70366379 L6.20834736,10.1799569 L2.33726018,6.49784483 L7.01178055,1.66056034 L6.28138674,0.938577586 L0.876472568,6.5700431 Z" id="Shape"></path>
                    </g>
                    <g transform="translate(200.493100, 0.000000)">
                        <polygon id="Path" points="4.30932346 6.28125 1.82598452 9.67456897 0.438236284 8.6637931 6.50050488 0.505387931 7.88825311 1.51616379 5.40491417 4.90948276 15.9956244 12.5625 14.973073 14.0064655"></polygon>
                        <path d="M14.973073,14.3674569 L4.38236284,6.71443966 L1.8990239,10.1077586 L0,8.73599138 L6.50050488,0 L8.39952878,1.37176724 L5.91618984,4.76508621 L16.5069,12.4181034 L14.973073,14.3674569 Z M4.23628408,5.77586207 L14.8269943,13.4288793 L15.4843487,12.5625 L4.89363851,4.90948276 L7.37697745,1.51616379 L6.57354426,0.938577586 L0.876472568,8.59159483 L1.67990576,9.16918103 L4.23628408,5.77586207 Z" id="Shape"></path>
                    </g>
                </g>
                <path d="M326.699115,135 C318.230088,113.363148 303.701327,94.9534884 284.646018,81.6779964 C265.152655,68.1091234 242.227876,60.921288 218.426991,60.921288 C194.626106,60.921288 171.774336,68.1091234 152.353982,81.6046512 C133.298673,94.8067979 118.769912,113.216458 110.300885,134.706619 L103,131.772809 C112.053097,108.815742 127.603982,89.2325581 147.900442,75.0769231 C168.707965,60.627907 193.09292,53 218.426991,53 C243.834071,53 268.292035,60.7012522 289.099558,75.2236136 C309.469027,89.3792487 324.946903,109.109123 334,132.139535 L326.699115,135 Z" id="Path"></path>
                <g id="Group" transform="translate(0.000000, 131.000000)">
                    <polyline id="Path" points="59.907156 109.216517 70.2334506 137.926945 11.2783643 117.763896 4.54064019 115.426151 6.07859896 108.485971"></polyline>
                    <polyline id="Path" points="430.628457 108.559026 432.166415 115.499206 425.428691 117.836951 366.473605 138 376.799899 109.289571"></polyline>
                    <path d="M437,3.36050821 C437,3.36050821 294.702195,0 218.463382,0 C142.224568,0 0,3.43356273 0,3.43356273 C0,3.43356273 10.4727669,32.4362096 10.4727669,59.2472208 C10.4727669,86.0582319 4.76034858,115.645315 4.76034858,115.645315 C4.76034858,115.645315 118.71577,101.107464 218.609854,101.107464 C318.503938,101.107464 432.239651,115.645315 432.239651,115.645315 C432.239651,115.645315 426.527233,88.8343039 426.527233,59.2472208 C426.527233,29.5870831 437,3.36050821 437,3.36050821 Z M218.536618,93.1445209 C118.642534,93.1445209 14.1345735,107.682372 14.1345735,107.682372 C14.1345735,107.682372 17.6499078,85.2546321 17.6499078,58.5166755 C17.6499078,31.7787189 9.3742249,9.93541556 9.3742249,9.93541556 C9.3742249,9.93541556 142.224568,6.57490736 218.463382,6.57490736 C294.702195,6.57490736 427.625775,9.93541556 427.625775,9.93541556 C427.625775,9.93541556 419.276856,28.9295924 419.276856,58.5166755 C419.276856,88.1037586 422.79219,107.682372 422.79219,107.682372 C422.79219,107.682372 318.430702,93.1445209 218.536618,93.1445209 Z" id="Shape"></path>
                </g>
                <g id="Group" transform="translate(125.000000, 61.000000)">
                    <g transform="translate(128.867053, 36.954413)" id="Path">
                        <path d="M0.0997110598,37.2453928 C-0.560938582,33.3171678 2.22847102,37.8273521 3.5497703,33.8263822 C4.21041994,31.8622696 6.63280196,30.1891368 8.02750676,28.5160039 C10.4498888,25.6789525 10.8169164,25.1697381 12.9456763,22.9873909 C14.1201646,21.7507274 18.1574679,15.785645 18.9649286,14.4034918 C20.5064444,11.7846751 21.5341217,8.58389913 21.8277437,6.69253152 C23.149043,6.83802134 24.5437478,7.12900097 26.0118581,7.63821532 C33.4992207,10.1842871 33.5726262,16.9495635 33.5726262,16.9495635 C33.5726262,16.9495635 38.7110123,12.657614 46.8590246,15.3491756 C57.7230409,18.913676 58.2368795,28.443259 56.1815251,37.1726479 L0.0997110598,37.2453928 Z"></path>
                        <path d="M35.9950083,17.8225024 C35.6279807,17.4587779 35.4811696,16.9495635 35.7013862,16.4403492 C37.4631186,11.2754607 38.8578234,7.71096023 40.7663668,5.6013579 C43.4089653,2.69156159 46.5654025,3.34626576 48.6941625,4.00096993 C49.4282176,4.21920466 49.7952452,5.01939864 49.5750287,5.74684772 C49.3548121,6.4742968 48.5473514,6.83802134 47.8132963,6.61978661 C45.0972922,5.74684772 43.8493984,6.25606208 42.8217212,7.4199806 C41.2802054,9.16585839 39.8855006,12.5848691 38.2705792,17.3132881 C38.0503627,18.0407371 37.242902,18.4044617 36.5088469,18.186227 C36.2886303,18.0407371 36.1418193,17.9679922 35.9950083,17.8225024 Z"></path>
                        <path d="M33.8662483,0 C33.8662483,0 23.4426651,19.3501455 34.673709,17.5315228 C45.9047529,15.7129001 33.8662483,0 33.8662483,0 Z"></path>
                    </g>
                    <path d="M79.1978241,60.6692532 L80.5191234,62.7061106 C80.1520958,57.3229874 79.1978241,51.7216295 76.8488476,48.8118332 C72.3711112,43.2104753 67.7465637,45.5383123 64.2230989,52.9582929 C64.2230989,52.9582929 64.1496934,53.685742 64.1496934,54.4131911 C64.1496934,54.4131911 65.9114258,54.4131911 69.067863,55.0678952 C72.2243001,55.7225994 73.8392215,56.6682832 75.5275483,57.5412221" id="Path"></path>
                    <g transform="translate(115.239932, 16.438338)" id="Path">
                        <path d="M28.5547456,16.296871 C41.4007109,22.7711678 29.6558284,40.3754355 10.8640163,56.7430398 L-4.17262048e-14,56.8885296 C0.587244126,52.3783453 2.7894096,45.6858138 5.35860265,39.211517 C5.50541368,38.9205373 12.9193708,41.6120989 13.0661818,41.2483744 C13.2129928,40.8846498 6.01925229,37.4656392 6.16606332,37.1019146 C6.67990193,35.7925063 7.26714606,34.4103531 7.85439018,33.1736896 C8.07460673,32.6644753 17.7641348,36.0834859 17.9843514,35.5742716 C18.2045679,35.1378021 8.8820674,30.7731077 9.02887844,30.4093831 C9.68952808,28.954485 10.2767722,27.6450766 10.8640163,26.4084132 C11.2310439,25.6082192 22.3886823,29.9001688 22.7557099,29.1727197 C23.0493319,28.6635053 12.4789377,23.2076372 12.6991542,22.6984229 C13.3598039,21.5345044 13.8736425,20.5888206 14.2406701,20.0796062 C14.3874811,19.9341164 14.6811031,18.7701979 15.4151583,19.0611775 C17.8375403,20.0068613 22.8291154,23.9350863 23.2695485,23.4986169 C23.7833871,22.9166576 16.8832686,17.0243201 17.3971072,16.6605955 C20.7003554,14.1872687 24.2972257,14.1145238 28.5547456,16.296871 Z"></path>
                        <path d="M45.9518529,6.40356353 C48.2274238,11.0592376 36.7027579,16.1513812 33.9133483,16.6605955 C31.0505332,17.1698099 28.187718,14.7692279 27.8206905,11.2047274 C27.4536629,7.64022696 31.1239387,-0.143478181 33.1792931,0.00201163453 C35.3080531,0.14750145 33.0324821,8.07669641 33.0324821,8.07669641 C33.0324821,8.07669641 36.9963799,0.802205621 39.6389785,1.96612415 C42.2815771,3.13004267 36.9229744,9.45884966 36.9229744,9.45884966 C36.9229744,9.45884966 44.4837425,3.4210223 45.9518529,6.40356353 Z"></path>
                    </g>
                    <g transform="translate(0.000000, 26.611676)" id="Path">
                        <path d="M2.85608776,45.1875476 C-1.18121561,35.8034544 -2.42910938,24.7462285 9.31577314,18.781146 C16.3627027,15.2166455 21.2808722,19.9450645 21.2808722,19.9450645 C21.2808722,19.9450645 21.7947108,13.3252779 29.4288845,9.4697978 C34.7140816,6.77823621 39.191818,7.14196075 42.9354994,9.25156308 C43.449338,11.5066552 44.6972317,14.5619414 45.9451255,15.9440946 C47.1930193,17.5444826 49.3217792,19.5085951 52.3314054,18.9993807 C54.8271929,18.5629113 55.6346536,20.1632993 55.7080591,21.981922 C55.6346536,23.509565 55.1942205,26.1283817 54.6803819,28.3107289 C53.2856771,28.5289637 49.0281572,29.4746475 46.8993972,30.7840558 C45.5046924,31.6569947 42.2748497,32.7481683 39.4854401,38.4222711 C39.045007,39.6589346 38.6779794,40.6773633 38.6045739,42.4232411"></path>
                        <path d="M23.5564432,18.781146 C23.0426046,18.781146 22.6021715,18.4901664 22.3085494,18.0536969 C19.8127619,13.252533 18.1978405,9.68803253 18.0510295,6.85098112 C17.830813,2.995501 20.4734115,1.17687831 22.4553605,0.158449596 C23.1160101,-0.205274943 23.9234708,0.0857046881 24.2904984,0.740408859 C24.6575259,1.39511303 24.3639039,2.19530702 23.7032542,2.55903156 C21.1340612,3.8684399 20.6936281,5.10510333 20.7670336,6.7054913 C20.9138446,9.03332835 22.4553605,12.452339 24.7309314,16.8170335 C25.097959,17.4717377 24.804337,18.2719317 24.1436873,18.6356562 C23.9968763,18.7084011 23.7766597,18.781146 23.5564432,18.781146 Z"></path>
                        <path d="M9.24236763,7.86940983 C9.24236763,7.86940983 15.9222696,28.7471984 22.4553605,19.58134 C28.9884514,10.3427367 9.24236763,7.86940983 9.24236763,7.86940983 Z"></path>
                    </g>
                    <g transform="translate(23.244762, 1.018429)" id="Path">
                        <path d="M35.619734,54.9224054 C52.9434357,53.9039767 58.7424714,62.4878758 56.687117,70.6353055 C56.6137115,70.8535403 41.4921752,72.0902037 41.4187697,72.3084384 C41.3453642,72.5266731 56.3934949,71.6537342 56.3200894,71.871969 C56.0264673,72.599418 55.7328453,73.3268671 55.3658177,73.9815713 L17.5619771,73.0358875 C17.121544,71.7992241 16.9013274,70.5625606 16.9013274,69.2531523 C16.9013274,68.8894277 27.5451272,69.5441319 27.5451272,69.2531523 C27.5451272,69.0349176 16.974733,67.7982541 16.974733,67.5800194 C17.1949495,65.8341416 17.7821936,64.0882638 18.8098709,62.4878758 C18.9566819,62.2696411 37.6750884,63.14258 37.7484939,62.9243453 C37.8953049,62.2696411 19.690737,61.3239573 19.9109536,61.0329777 C22.7737687,57.7594568 27.9121548,55.3588749 35.619734,54.9224054 Z"></path>
                        <path d="M0.531897436,16.3676043 C-2.9181618,20.4413191 11.3959138,24.2967992 15.2864061,24.3695441 C19.1768984,24.442289 19.6173315,24.442289 20.7184143,31.8622696 C21.819497,39.3549952 25.3429618,43.3559651 28.64621,42.8467507 C31.9494582,42.2647915 34.5920567,44.4471387 33.7845961,49.3210475 C33.0505409,54.1949564 32.1696747,56.5955383 32.1696747,56.5955383 L38.9963877,55.3588749 C40.0240649,46.1930165 38.335738,44.5926285 40.8315256,43.8651794 C43.3273131,43.1377304 48.9061323,41.2463628 48.6125102,37.2453928 C48.3922937,33.171678 53.6774908,36.7361785 56.833928,34.0446169 C59.9903652,31.3530553 59.9903652,30.9893307 59.3297155,26.3336566 C58.6690659,21.6779825 65.936212,25.7516974 67.0372947,24.5150339 C68.1383774,23.2783705 69.5330822,14.1125121 63.5138299,14.4762367 C57.4945776,14.8399612 58.4488494,7.78370514 54.7785736,12.2938894 C51.1082978,16.7313288 47.584833,12.2938894 47.0709944,17.0223084 C46.5571558,21.6779825 46.8507779,22.6236663 43.1070966,25.7516974 C39.3634153,28.8797284 37.7484939,31.4985451 37.7484939,31.4985451 C37.7484939,31.4985451 35.913356,29.6799224 37.2346553,22.6236663 C38.5559546,15.5674103 42.8134745,11.6391853 40.2442815,6.98351115 C37.6016829,2.32783705 35.619734,4.36469447 36.9410332,1.03376732e-14"></path>
                    </g>
                    <path d="M80.0786903,52.3763337 L81.5468006,60.9602328 C81.5468006,60.9602328 86.3915647,50.4122211 87.9330805,47.356935 C89.4745963,44.3016489 94.3927659,35.1357905 95.7874707,32.1532493 C97.1821755,29.1707081 100.338613,22.6236663 100.999262,21.0232784 C101.659912,19.4228904 105.036566,11.7846751 105.256782,10.9117362 C105.550404,10.0387973 105.550404,8.58389913 105.476999,6.11057226 C105.403593,3.63724539 104.742944,1.03376732e-14 104.742944,1.03376732e-14 L103.641861,1.03376732e-14 C103.641861,1.03376732e-14 102.540778,4.51018429 102.02694,6.32880698 C101.513101,8.14742968 99.531152,15.3491756 99.1641244,16.585839 C98.7970968,17.8225024 97.402392,21.6052376 96.8151479,23.2783705 C96.2279038,24.9515034 95.6406597,25.8244423 95.6406597,25.8244423 C95.6406597,25.8244423 95.7140652,26.7701261 95.4938486,27.5703201 C95.2736321,28.3705141 94.3927659,30.6983511 92.6310335,33.6081474 C90.8693011,36.5179437 87.2724309,41.7555771 85.8043205,43.42871 C84.3362102,45.1018429 83.3819385,47.1387003 83.0149109,47.7206596 C82.5744778,48.3026188 80.0786903,52.3763337 80.0786903,52.3763337 Z" id="Path"></path>
                    <path d="M80.73934,6.32880698 C80.73934,6.32880698 87.2724309,8.94762367 90.5756791,11.6391853 C93.3650887,13.9670223 94.9066045,17.8225024 95.0534155,19.1319108 C95.2002266,21.1687682 94.3927659,22.6236663 94.3193604,23.8603298 C94.2459549,25.6789525 94.5395769,26.842871 93.4384942,29.1707081 C92.3374114,31.4258002 89.6948129,35.7177498 87.9330805,38.1910766 C86.2447536,40.6644035 84.7032378,42.5557711 84.7032378,42.5557711 C84.7032378,42.5557711 83.3819385,36.8089234 83.161722,35.1357905 C82.9415054,33.3899127 83.0883165,34.5538312 83.0883165,34.5538312 C83.0883165,34.5538312 83.9691826,33.6081474 84.1893992,32.8079534 C84.4096157,32.0077595 84.5564268,31.57129 84.5564268,30.771096 C84.5564268,30.0436469 84.4096157,29.3889428 84.3362102,28.7342386 C84.2628047,28.0067895 84.0425882,26.7701261 84.0425882,26.7701261 C84.0425882,26.7701261 85.3638874,26.842871 86.4649702,27.0611057 C87.5660529,27.2793404 89.2543798,27.5703201 89.9884349,27.4975752 C90.7224901,27.3520854 91.8235728,27.0611057 92.3374114,24.7332687 C92.9246556,22.4054316 92.8512501,21.0232784 92.704439,20.0048497 C92.557628,18.8409311 92.1906004,17.3132881 91.5299508,16.2948594 C90.8693011,15.2764306 89.4745963,14.3307468 88.6671357,14.1125121 C87.859675,13.8942774 85.8777261,14.0397672 85.8777261,14.0397672 C85.8777261,14.0397672 86.0979426,13.0213385 85.9511316,12.0029098 C85.8043205,10.9844811 85.437293,9.74781765 84.0425882,8.65664403 C82.6478834,7.63821532 80.73934,6.32880698 80.73934,6.32880698 Z" id="Path"></path>
                    <path d="M121.919834,8.58389913 C121.919834,8.58389913 117.662314,11.4936954 117.07507,17.2405432 C116.487826,22.9873909 116.120799,28.0795344 116.120799,30.771096 C116.120799,33.4626576 115.900582,37.099903 115.533554,40.4461688 C115.166527,43.7924345 115.019716,46.4839961 114.13885,49.5392823 C113.257983,52.5945684 110.028141,63.942774 110.028141,63.942774 L120.084696,51.7216295 C120.084696,51.7216295 118.543181,46.556741 118.543181,44.0834142 C118.543181,41.6100873 118.836803,35.9359845 119.20383,33.3899127 C119.570858,30.8438409 120.525129,26.842871 120.525129,26.842871 C120.525129,26.842871 120.084696,23.1328807 120.158102,20.7322987 C120.231507,18.3317168 120.965563,16.585839 121.846429,14.1125121 C122.8007,11.6391853 121.919834,8.58389913 121.919834,8.58389913 Z" id="Path"></path>
                    <path d="M111.936684,10.9117362 C107.165326,10.4025218 105.476999,13.6032978 105.183377,14.4034918 C104.889755,15.2036857 81.3999896,65.0339476 81.3999896,65.0339476 C81.3999896,65.0339476 82.0606392,67.2890398 81.9872337,68.5257032 C81.9138282,69.7623666 104.522727,69.0349176 104.522727,69.0349176 L105.476999,68.5984481 C105.476999,68.5984481 110.101546,57.5412221 111.422846,52.9582929 C112.81755,48.3753637 114.212255,46.0475267 114.579283,34.1173618 C114.94631,22.1871969 115.019716,18.7681862 115.460149,17.0223084 C115.900582,15.2764306 116.561232,13.0940834 116.561232,13.0940834 C116.561232,13.0940834 115.166527,11.2027158 111.936684,10.9117362 Z" id="Path"></path>
                    <path d="M126.397571,19.1319108 C126.397571,19.1319108 121.626212,25.1697381 120.818752,30.0436469 C120.011291,34.9175558 119.644263,42.1193016 120.158102,45.1745878 C120.671941,48.2298739 121.33259,50.3394762 121.33259,50.3394762 C121.33259,50.3394762 121.699618,49.2483026 122.213456,48.7390883 C122.727295,48.3026188 123.314539,48.3026188 123.314539,48.3026188 C123.314539,48.3026188 122.874106,47.7934045 122.874106,47.2841901 C122.8007,46.7749758 124.048594,44.228904 124.489027,43.42871 C124.856055,42.628516 124.92946,42.1920466 125.810327,41.6828322 C126.691193,41.1736178 127.572059,41.4645975 127.572059,41.4645975 C127.572059,41.4645975 126.764598,40.5916586 126.691193,40.1551891 C126.544382,39.7187197 126.544382,39.2095053 126.838004,38.700291 C127.131626,38.1910766 127.351842,37.7546072 127.351842,37.7546072 C127.351842,37.7546072 126.911409,32.5897187 126.397571,30.1891368 C125.883732,27.7885548 125.443299,23.9330747 125.810327,22.5509214 C125.957138,21.2415131 126.397571,19.1319108 126.397571,19.1319108 Z" id="Path"></path>
                    <path d="M106.578081,68.8166828 C106.578081,68.8166828 110.982412,64.8884578 112.303712,63.3608147 C113.625011,61.8331717 119.86448,53.9767216 119.86448,53.9767216 L120.084696,54.4131911 C120.084696,54.4131911 119.424047,54.8496605 119.20383,55.4316198 C118.983614,56.013579 116.708043,61.8331717 116.194204,63.5790495 C115.680365,65.3976722 114.726094,68.7439379 114.726094,68.7439379 L106.578081,68.7439379 L106.578081,68.8166828 Z" id="Path"></path>
                </g>
                <g id="Group" transform="translate(52.000000, 155.000000)">
                    <path d="M33.3167958,1.23387097 C33.2437327,20.1048387 33.1706695,38.9758065 33.1706695,57.9193548 C30.0289541,58.3548387 28.494628,58.5725806 25.3529126,59.0080645 C25.3529126,53.3467742 25.3529126,50.516129 25.3529126,44.9274194 C25.3529126,38.1048387 25.4990389,31.2822581 25.6451652,24.4596774 C25.6451652,24.4596774 25.6451652,24.4596774 25.5721021,24.4596774 C25.4990389,24.4596774 22.8687655,32.5887097 22.576513,33.4596774 C21.0421868,38.25 20.2384922,40.6451613 18.6311029,45.5080645 C16.9506505,45.7258065 16.1469559,45.7983871 14.5395666,46.016129 C13.0052405,41.4435484 12.2015458,39.1209677 10.6672197,34.4758065 C10.3749671,33.6774194 7.74469376,25.6209677 7.67163062,25.6209677 C7.67163062,25.6209677 7.67163062,25.6209677 7.59856747,25.6209677 C7.74469376,32.733871 7.81775691,39.8467742 7.81775691,46.9596774 C7.81775691,52.8387097 7.81775691,55.8145161 7.81775691,61.6935484 C4.67604152,62.2016129 3.14171539,62.4919355 0,63 C0,42.4596774 0,21.9193548 0,1.37903226 C2.9955891,1.37903226 4.52991522,1.37903226 7.52550432,1.37903226 C10.0096514,8.70967742 11.2517249,12.266129 13.735872,19.3790323 C16.1469559,26.2741935 16.5122716,27.7258065 16.5853348,27.7258065 C16.5853348,27.7258065 16.5853348,27.7258065 16.6583979,27.7258065 C16.7314611,27.7258065 17.0967768,26.1290323 19.5078607,19.0887097 C21.9920078,11.9032258 23.2340813,8.34677419 25.7912915,1.30645161 C28.7868806,1.23387097 30.3212067,1.23387097 33.3167958,1.23387097 Z" id="Path"></path>
                    <path d="M40.5500475,56.9032258 C40.6231107,38.3225806 40.6961738,19.7419355 40.769237,1.23387097 C43.9840155,1.23387097 45.5914048,1.23387097 48.7331202,1.23387097 C48.660057,19.4516129 48.5869939,37.7419355 48.5139307,55.9596774 C45.2991522,56.3225806 43.6917629,56.4677419 40.5500475,56.9032258 Z" id="Path"></path>
                    <path d="M85.995326,1.08870968 C85.9222629,18.1451613 85.8491997,35.1290323 85.7761366,52.1854839 C82.7805475,52.4032258 81.2462214,52.5483871 78.2506323,52.8387097 C75.5472958,47.3225806 74.2321591,44.5645161 71.5288226,38.9032258 C68.5332335,32.516129 64.0763814,22.7177419 64.0763814,22.7177419 C64.0763814,22.7177419 64.0763814,22.7177419 64.0033183,22.7177419 C63.9302551,22.7177419 64.0033183,30.9193548 64.0033183,42.4596774 C64.0033183,47.1774194 64.0033183,49.5 63.9302551,54.2177419 C60.7154766,54.5806452 59.1080873,54.7258065 55.9663719,55.0887097 C56.0394351,37.0887097 56.1124982,19.1612903 56.1855614,1.16129032 C59.1811505,1.16129032 60.7154766,1.16129032 63.7110657,1.16129032 C66.4874653,7.25806452 67.9487283,10.233871 70.725128,16.1129032 C72.8439593,20.5403226 77.8853165,31.5 77.9583797,31.5 C77.9583797,31.5 77.9583797,31.5 78.0314428,31.5 C78.104506,31.5 78.0314428,22.3548387 78.0314428,12.9193548 C78.0314428,8.2016129 78.0314428,5.80645161 78.104506,1.08870968 C81.1731582,1.08870968 82.7805475,1.08870968 85.995326,1.08870968 Z" id="Path"></path>
                    <path d="M123.257532,1.08870968 C123.184469,17.3467742 123.184469,33.6048387 123.111406,49.8629032 C120.115816,50.0080645 118.58149,50.0806452 115.585901,50.2258065 C112.882565,44.8548387 111.494365,42.2419355 108.791028,36.7983871 C105.795439,30.7016129 101.338587,21.3387097 101.265524,21.3387097 C101.265524,21.3387097 101.265524,21.3387097 101.192461,21.3387097 C101.119398,21.3387097 101.192461,29.0322581 101.192461,39.9919355 C101.192461,44.4193548 101.192461,46.5967742 101.119398,51.0241935 C97.9046193,51.2419355 96.29723,51.3145161 93.0824515,51.6048387 C93.1555146,34.766129 93.2285778,17.9274194 93.3016409,1.08870968 C96.29723,1.08870968 97.8315561,1.08870968 100.827145,1.08870968 C103.603545,6.82258065 105.064808,9.65322581 107.841208,15.2419355 C109.960039,19.4516129 115.001396,29.9032258 115.074459,29.9032258 C115.074459,29.9032258 115.074459,29.9032258 115.147522,29.9032258 C115.220586,29.9032258 115.147522,21.1935484 115.147522,12.266129 C115.147522,7.76612903 115.147522,5.51612903 115.220586,1.01612903 C118.508427,1.08870968 120.115816,1.08870968 123.257532,1.08870968 Z" id="Path"></path>
                    <path d="M155.113065,38.25 C155.113065,42.5322581 155.113065,44.7096774 155.113065,48.9919355 C146.929992,49.1370968 138.746919,49.2822581 130.563847,49.5725806 C130.63691,33.3870968 130.63691,17.2741935 130.709973,1.08870968 C138.746919,1.08870968 146.856929,1.08870968 154.893875,1.08870968 C154.893875,5.37096774 154.893875,7.5483871 154.893875,11.8306452 C148.391255,11.8306452 145.176476,11.8306452 138.673856,11.9032258 C138.673856,15.0967742 138.673856,16.6935484 138.673856,19.8145161 C143.788277,19.7419355 146.272424,19.7419355 151.386844,19.7419355 C151.386844,23.8064516 151.386844,25.766129 151.386844,29.8306452 C146.272424,29.9032258 143.788277,29.9032258 138.673856,29.9758065 C138.673856,33.3870968 138.673856,35.1290323 138.673856,38.5403226 C145.24954,38.3225806 148.537381,38.3225806 155.113065,38.25 Z" id="Path"></path>
                    <path d="M182.219493,41.516129 C176.958946,41.4435484 174.328673,41.4435484 168.995063,41.4435484 C168.264431,44.4193548 167.826053,45.9435484 167.095421,48.9919355 C163.661453,48.9919355 161.907938,48.9919355 158.47397,48.9919355 C162.930822,33.0241935 167.387674,17.0564516 171.844526,1.08870968 C174.840115,1.08870968 176.374441,1.08870968 179.37003,1.08870968 C183.826882,17.1290323 188.283734,33.2419355 192.740586,49.3548387 C189.306618,49.2822581 187.553103,49.2096774 184.119135,49.1370968 C183.388503,46.0887097 183.023188,44.5645161 182.219493,41.516129 Z M179.662283,31.4274194 C178.712462,27.7258065 178.20102,25.8387097 177.251199,22.0645161 C176.520567,19.3064516 175.64381,15.0241935 175.64381,15.0241935 C175.64381,15.0241935 175.64381,15.0241935 175.570746,15.0241935 C175.497683,15.0241935 174.693989,19.3064516 173.963357,22.0645161 C173.013536,25.766129 172.502094,27.6532258 171.552273,31.3548387 C174.840115,31.3548387 176.447504,31.3548387 179.662283,31.4274194 Z" id="Shape"></path>
                    <path d="M208.156911,1.08870968 C217.362867,1.01612903 221.308277,10.3790323 221.308277,18 C221.381341,25.6209677 217.435931,34.9112903 208.229974,34.4758065 C206.330332,34.4032258 205.380511,34.4032258 203.480869,34.3306452 C203.480869,40.4274194 203.480869,43.4758065 203.553932,49.5725806 C200.339154,49.4274194 198.731765,49.4274194 195.516986,49.2822581 C195.516986,33.1693548 195.443923,17.0564516 195.443923,0.943548387 C200.558343,1.08870968 203.04249,1.08870968 208.156911,1.08870968 Z M208.083848,23.5887097 C211.1525,23.6612903 213.052142,21.5564516 213.052142,17.8548387 C213.052142,14.1532258 211.1525,12.0483871 208.083848,11.9758065 C206.257269,11.9758065 205.307448,11.9758065 203.480869,11.9032258 C203.480869,16.4758065 203.480869,18.7983871 203.480869,23.4435484 C205.307448,23.516129 206.257269,23.516129 208.083848,23.5887097 Z" id="Shape"></path>
                    <path d="M241.619833,0.0725806452 C253.967505,0.290322581 259.008862,16.6935484 259.081925,27.2177419 C259.154988,37.3790323 254.186694,53.6370968 241.912085,52.8387097 C230.221982,52.1129032 224.596119,36 224.523056,25.8387097 C224.37693,16.1129032 229.929729,-0.14516129 241.619833,0.0725806452 Z M241.765959,40.7903226 C247.172632,41.1532258 250.752726,35.4193548 250.679663,26.7822581 C250.6066,18.1451613 247.026506,12.1935484 241.619833,12.0483871 C236.21316,11.9758065 232.706129,17.6370968 232.706129,26.0564516 C232.779192,34.4758065 236.432349,40.5 241.765959,40.7903226 Z" id="Shape"></path>
                    <path d="M287.795743,44.0564516 C287.795743,48.9919355 287.795743,51.4596774 287.868806,56.4677419 C279.977986,55.5241935 272.087166,54.6532258 264.196346,53.8548387 C264.123283,36.2903226 264.050219,18.7258065 263.977156,1.23387097 C267.191935,1.23387097 268.799324,1.23387097 271.94104,1.23387097 C272.014103,15.0241935 272.087166,28.8870968 272.087166,42.6774194 C278.370597,43.1854839 281.512312,43.4758065 287.795743,44.0564516 Z" id="Path"></path>
                    <path d="M292.471784,57.0483871 C292.398721,38.4677419 292.325658,19.8145161 292.252595,1.23387097 C295.467373,1.23387097 297.074763,1.23387097 300.216478,1.23387097 C300.289541,20.1774194 300.362604,39.1209677 300.362604,58.0645161 C297.293952,57.6290323 295.686563,57.4112903 292.471784,57.0483871 Z" id="Path"></path>
                    <path d="M324.035065,20.3951613 C323.23137,15.0241935 320.67416,12.4112903 318.263076,12.3387097 C315.851992,12.266129 314.536855,14.2983871 314.536855,16.6935484 C314.536855,20.5403226 317.89776,22.2096774 321.916233,25.0403226 C328.34579,29.6129032 331.925885,37.0887097 331.998948,44.7822581 C332.072011,52.0403226 328.34579,63.5806452 319.06677,61.9112903 C310.591445,60.3870968 306.353783,50.1532258 305.038646,42.3870968 C308.107298,41.2983871 309.641624,40.7177419 312.637213,39.5564516 C313.513971,44.0564516 315.851992,48.8467742 319.359023,49.2822581 C322.208486,49.6451613 323.523623,47.3951613 323.523623,44.4919355 C323.523623,39.7016129 319.651276,38.0322581 314.902171,34.4032258 C310.883698,31.3548387 306.353783,27.2177419 306.280719,17.1290323 C306.207656,9.72580645 310.737571,-2.06286601e-14 318.701455,-2.06286601e-14 C326.373085,-2.06286601e-14 330.756874,9.94354839 331.706695,16.9112903 C328.638043,18.3629032 327.103717,19.0887097 324.035065,20.3951613 Z" id="Path"></path>
                </g>
            </g>
        </g>
    </g>
</svg>