<?xml version="1.0" encoding="UTF-8"?>
<svg width="30px" height="33px" viewBox="0 0 30 33" version="1.1" xmlns="http://www.w3.org/2000/svg" xmlns:xlink="http://www.w3.org/1999/xlink">
    <title>100% Local Icon</title>
    <g id="Designs" stroke="none" stroke-width="1" fill="none" fill-rule="evenodd">
        <g id="MPLS-Vendor-List-Filters" transform="translate(-406.000000, -1075.000000)" fill="#304939" fill-rule="nonzero">
            <g id="Vendor-info-Copy-3" transform="translate(150.000000, 874.000000)">
                <g id="Locally-Grown-Icon" transform="translate(256.000000, 201.000000)">
                    <path d="M8.12472465,32.3740258 C7.97045258,31.9419081 7.84703492,31.4789249 7.8161805,31.0159417 C7.78532609,30.8307485 12.8145957,30.6455552 12.8145957,30.4603619 C12.8145957,30.3677653 7.78532609,29.7813199 7.78532609,29.6887233 C7.87788933,28.9788157 8.09387024,28.2689082 8.4332688,27.6207317 C8.49497763,27.4972695 17.6278844,27.5898662 17.6587388,27.466404 C17.7513021,27.1577485 9.08121151,26.6947653 9.20462917,26.5713031 C10.5930778,24.9971603 13.0305766,23.8551351 16.6713976,23.6390763 C24.0456027,23.2069586 27.038481,26.4787065 26.8533545,29.9665132 C26.8533545,30.2134375 20.3122185,29.7195888 20.2813641,29.9356476 C20.2505097,30.0899754 26.7299368,30.9850762 26.668228,31.1702695 C26.6373736,31.2628661 26.3905383,32.0345048 26.3288294,32.1579669 C26.297975,32.2505636 26.2671206,32.3122947 26.2054118,32.4048913" id="Path"></path>
                    <path d="M18.0675203,27.3913043 C18.4988389,23.5742252 17.7286271,23.2048304 18.7761151,22.8970014 C19.7927947,22.5891725 22.10343,21.8196001 22.0110046,20.1265407 C21.9185791,18.4334814 24.1059806,19.9110605 25.3999363,18.8028762 C26.6938921,17.6946919 26.6938921,17.5099945 26.4166159,15.6014549 C26.1393396,13.6929154 29.1585698,15.3551918 29.5898884,14.8626654 C30.0520154,14.3393562 30.6373764,10.522277 28.1418902,10.6761915 C25.6464041,10.830106 26.0469142,7.9057308 24.5372992,9.75270459 C23.0276841,11.5996784 21.5488775,9.75270459 21.3332182,11.72281 C21.1175589,13.6929154 21.2407928,14.0623101 19.7003693,15.3551918 C18.1599457,16.6480734 17.5129678,17.7254748 17.5129678,17.7254748 C17.5129678,17.7254748 16.7427561,16.9559024 17.2973085,14.0315272 C17.851861,11.107152 19.6079438,9.47565852 18.5296474,7.50555314 C17.4513509,5.56623066 16.6195222,6.39736886 17.1432662,4.61196086 C17.6670102,2.82655286 18.7761151,-0.313302595 16.9276069,0.0253092679 C15.0790986,0.363921131 10.5502534,0.764098786 11.7825923,2.36480941 C13.0149311,3.96552003 10.8275297,4.18100031 10.8275297,5.47388197 C10.8275297,6.76676362 10.457828,8.89078349 12.02906,9.75270459 C13.600292,10.6146257 14.9866732,16.2786787 14.4013123,17.2637314 C13.8159513,18.279567 10.519445,10.9840205 9.93408403,8.67530321 C9.34872309,6.36658597 8.51689438,4.79665824 6.76081154,5.166053 C5.00472871,5.50466486 2.78651882,6.36658597 2.47843411,5.01213852 C2.1703494,3.65769107 -1.00292308,7.47477025 0.321841161,8.12121107 C1.6466054,8.7676519 4.72745248,10.3683625 3.27945435,12.0614218 C1.83145623,13.7544812 6.57596072,14.7703167 8.20880967,14.8010996 C9.81085015,14.8318825 10.0265094,14.8318825 10.457828,17.9409551 C10.9199551,21.0500276 12.3679532,22.743087 13.7235259,22.4968238 C15.0790986,22.2505606 16.1573951,23.1740475 15.8493104,25.2057187 C15.5412257,27.2373899 15.8801189,26.006074 15.8801189,26.006074 L18.0675203,27.3913043 Z" id="Path"></path>
                </g>
            </g>
        </g>
    </g>
</svg>