<?xml version="1.0" encoding="UTF-8"?>
<svg width="198px" height="172px" viewBox="0 0 198 172" version="1.1" xmlns="http://www.w3.org/2000/svg" xmlns:xlink="http://www.w3.org/1999/xlink">
    <title>Minneapolis Farmers Market Logo</title>
    <g id="Designs" stroke="none" stroke-width="1" fill="none" fill-rule="evenodd">
        <g id="MPLS-Home" transform="translate(-30.000000, -30.000000)" fill="#395442" fill-rule="nonzero">
            <g id="Minneapolis-Farmers-Market-Logo" transform="translate(30.000000, 30.000000)">
                <g id="Group" transform="translate(62.583778, 46.735326)">
                    <polygon id="Path" points="13.1013874 14.1227321 1.00097803e-14 17.2924226 1.00097803e-14 39.832444 13.1013874 39.832444"></polygon>
                    <rect id="Rectangle" x="14.5453575" y="0" width="12.4322305" height="39.832444"></rect>
                    <rect id="Rectangle" x="28.4919957" y="13.0661686" width="7.95944504" height="26.7662753"></rect>
                    <rect id="Rectangle" x="37.8601921" y="3.02881537" width="12.4322305" height="36.8036286"></rect>
                    <rect id="Rectangle" x="65.5421558" y="19.8633938" width="7.25506937" height="19.9690502"></rect>
                    <polygon id="Path" points="64.1334045 39.832444 51.701174 39.832444 51.701174 9.86125934 64.1334045 16.0245464"></polygon>
                </g>
                <g id="Group" transform="translate(38.529349, 120.166489)">
                    <g transform="translate(-0.000000, 0.669157)">
                        <polygon id="Path" points="6.37459979 2.71184632 5.0715048 3.48665955 6.51547492 5.95197439 5.0715048 6.79722519 3.62753469 4.33191035 1.16221985 5.74066169 0.2113127 4.12059765 6.93810032 0.2113127 9.7203842 5.03628602 8.20597652 5.9167556"></polygon>
                        <path d="M5.00106724,7.00853789 L3.55709712,4.54322305 L1.09178228,5.95197439 L5.00489013e-15,4.05016009 L7.00853789,0 L9.96691569,5.0715048 L8.17075774,6.09284952 L6.339381,2.88794023 L5.2828175,3.48665955 L6.72678762,5.95197439 L5.00106724,7.00853789 Z M3.66275347,4.08537887 L5.10672359,6.5506937 L6.26894344,5.88153682 L4.82497332,3.41622199 L6.40981857,2.50053362 L8.2411953,5.7054429 L9.47385272,5.00106724 L6.83244397,0.457844184 L0.4226254,4.19103522 L1.19743863,5.52934899 L3.66275347,4.08537887 Z" id="Shape"></path>
                    </g>
                    <g transform="translate(4.367129, 9.368196)" id="Shape">
                        <path d="M4.68409819,6.19850587 L2.7470651,3.8036286 L1.51440768,4.226254 L0.246531483,2.67662753 L8.27641409,0.176093917 L9.40341515,1.54962647 L5.2828175,8.8751334 L4.0149413,7.32550694 L4.68409819,6.19850587 Z M5.59978655,4.71931697 L6.40981857,3.34578442 C6.65635005,2.92315902 7.07897545,2.3244397 7.04375667,2.3244397 L7.04375667,2.3244397 C7.04375667,2.3244397 6.37459979,2.60618997 5.9167556,2.7470651 L4.40234792,3.27534685 L5.59978655,4.71931697 Z"></path>
                        <path d="M5.31803629,9.19210245 L3.83884739,7.36072572 L4.50800427,6.23372465 L2.71184632,4.0149413 L1.4791889,4.4375667 L0,2.60618997 L8.34685165,-2.00195605e-14 L9.61472785,1.54962647 L5.31803629,9.19210245 Z M4.226254,7.32550694 L5.2828175,8.62860192 L9.19210245,1.58484525 L8.20597652,0.387406617 L0.52828175,2.78228388 L1.58484525,4.08537887 L2.81750267,3.66275347 L4.89541089,6.23372465 L4.226254,7.32550694 Z M5.59978655,5.00106724 L4.12059765,3.1696905 L5.84631804,2.57097118 C6.1280683,2.46531483 6.48025614,2.3244397 6.72678762,2.25400213 C7.04375667,2.113127 7.07897545,2.113127 7.14941302,2.21878335 C7.21985059,2.3244397 7.21985059,2.35965848 7.00853789,2.64140875 C6.86766275,2.85272145 6.65635005,3.1696905 6.51547492,3.41622199 L5.59978655,5.00106724 Z M4.68409819,3.34578442 L5.59978655,4.4375667 L6.30416222,3.24012807 C6.40981857,3.06403415 6.5506937,2.81750267 6.69156884,2.60618997 C6.48025614,2.67662753 6.19850587,2.78228388 5.98719317,2.85272145 L4.68409819,3.34578442 Z"></path>
                    </g>
                    <g transform="translate(12.573106, 15.249733)" id="Shape">
                        <path d="M3.41622199,8.91035219 L4.0149413,6.05763074 L3.31056564,5.42369264 L1.65528282,7.32550694 L0.246531483,6.09284952 L5.38847385,0.246531483 L7.57203842,2.14834578 C9.05122732,3.45144077 9.22732124,5.03628602 8.17075774,6.23372465 C7.46638207,7.00853789 6.58591249,7.29028815 5.63500534,7.00853789 L5.03628602,10.3191035 L3.41622199,8.91035219 Z M4.36712914,4.15581644 L5.35325507,5.00106724 C5.84631804,5.42369264 6.37459979,5.24759872 6.65635005,4.93062967 C6.93810032,4.61366062 7.07897545,4.05016009 6.5506937,3.62753469 L5.56456777,2.78228388 L4.36712914,4.15581644 Z"></path>
                        <path d="M5.10672359,10.565635 L3.24012807,8.94557097 L3.83884739,6.09284952 L3.31056564,5.63500534 L1.65528282,7.53681964 L0,6.09284952 L5.35325507,0 L7.64247599,2.00747065 C8.38207044,2.67662753 8.83991462,3.41622199 8.94557097,4.19103522 C9.05122732,4.96584845 8.80469584,5.7054429 8.27641409,6.339381 C7.6072572,7.11419424 6.69156884,7.43116329 5.74066169,7.1846318 L5.10672359,10.565635 Z M3.5923159,8.83991462 L4.89541089,9.96691569 L5.45891142,6.7620064 L5.63500534,6.79722519 C6.5506937,7.04375667 7.36072572,6.79722519 7.99466382,6.09284952 C8.48772679,5.52934899 8.69903949,4.89541089 8.59338314,4.226254 C8.48772679,3.52187834 8.10032017,2.85272145 7.3959445,2.25400213 L5.31803629,0.457844184 L0.387406617,6.09284952 L1.54962647,7.11419424 L3.20490928,5.21237994 L4.12059765,6.02241195 L3.5923159,8.83991462 Z M5.95197439,5.42369264 C5.7054429,5.42369264 5.45891142,5.35325507 5.24759872,5.14194237 L4.15581644,4.19103522 L5.59978655,2.57097118 L6.69156884,3.52187834 C7.25506937,4.0149413 7.14941302,4.6488794 6.79722519,5.0715048 C6.5506937,5.24759872 6.26894344,5.42369264 5.95197439,5.42369264 Z M4.57844184,4.12059765 L5.42369264,4.8601921 C5.88153682,5.24759872 6.339381,5.00106724 6.51547492,4.78975454 C6.69156884,4.57844184 6.90288154,4.12059765 6.44503735,3.69797225 L5.59978655,2.9583778 L4.57844184,4.12059765 Z"></path>
                    </g>
                    <g transform="translate(21.342583, 21.518677)">
                        <path d="M10.8826041,4.29669157 L6.86766275,10.9882604 L5.2828175,10.0373533 L6.26894344,8.41728922 C7.21985059,6.83244397 7.74813234,6.09284952 7.74813234,6.09284952 L7.74813234,6.09284952 C7.74813234,6.09284952 6.65635005,6.69156884 6.5506937,6.72678762 L4.96584845,7.6072572 L4.12059765,7.11419424 L4.15581644,5.31803629 C4.15581644,5.17716115 4.19103522,3.94450374 4.15581644,3.94450374 L4.15581644,3.94450374 C4.15581644,3.94450374 3.73319104,4.75453575 2.78228388,6.339381 L1.79615795,7.95944504 L0.2113127,7.00853789 L4.226254,0.31696905 L5.74066169,1.23265742 L5.77588047,4.0149413 C5.77588047,5.10672359 5.74066169,5.31803629 5.77588047,5.31803629 L5.77588047,5.31803629 C5.77588047,5.31803629 5.95197439,5.21237994 6.93810032,4.68409819 L9.40341515,3.41622199 L10.8826041,4.29669157 Z" id="Path"></path>
                        <path d="M6.90288154,11.1643543 L5.0715048,10.0373533 L6.1280683,8.27641409 C6.65635005,7.43116329 7.04375667,6.83244397 7.29028815,6.44503735 C7.11419424,6.51547492 6.9733191,6.62113127 6.83244397,6.69156884 L4.93062967,7.71291355 L3.94450374,7.11419424 L3.97972252,5.21237994 C3.97972252,5.17716115 3.97972252,5.03628602 3.97972252,4.89541089 C3.97972252,4.75453575 3.97972252,4.61366062 3.97972252,4.4375667 C3.76840982,4.82497332 3.41622199,5.45891142 2.88794023,6.30416222 L1.83137673,8.06510139 L1.00097803e-14,6.93810032 L4.19103522,0 L5.9167556,1.02134472 L5.95197439,3.87406617 C5.95197439,4.40234792 5.95197439,4.71931697 5.95197439,4.93062967 C6.1280683,4.82497332 6.40981857,4.68409819 6.86766275,4.4375667 L9.40341515,3.13447172 L11.1291355,4.15581644 L6.90288154,11.1643543 Z M5.4941302,9.96691569 L6.79722519,10.7417289 L10.6360726,4.33191035 L9.33297759,3.55709712 L6.93810032,4.78975454 C6.30416222,5.10672359 5.98719317,5.2828175 5.88153682,5.35325507 C5.77588047,5.42369264 5.7054429,5.45891142 5.63500534,5.38847385 C5.52934899,5.31803629 5.52934899,5.24759872 5.56456777,5.14194237 C5.56456777,5.00106724 5.56456777,4.6488794 5.56456777,3.94450374 L5.52934899,1.2678762 L4.226254,0.493062967 L0.387406617,6.90288154 L1.6905016,7.67769477 L2.60618997,6.19850587 C3.31056564,5.03628602 3.69797225,4.29669157 3.87406617,3.97972252 C4.0149413,3.73319104 4.0149413,3.73319104 4.08537887,3.73319104 L4.15581644,3.69797225 L4.226254,3.73319104 C4.33191035,3.8036286 4.33191035,3.8036286 4.29669157,4.93062967 C4.29669157,5.0715048 4.29669157,5.21237994 4.29669157,5.24759872 L4.26147279,6.9733191 L4.93062967,7.36072572 L6.69156884,6.40981857 C7.71291355,5.84631804 7.71291355,5.84631804 7.8185699,5.88153682 L7.88900747,5.9167556 L7.92422625,5.98719317 C7.92422625,6.05763074 7.92422625,6.05763074 7.78335112,6.26894344 C7.57203842,6.58591249 7.11419424,7.29028815 6.40981857,8.41728922 L5.4941302,9.96691569 Z" id="Shape"></path>
                    </g>
                    <g transform="translate(32.929562, 27.329776)">
                        <polygon id="Path" points="6.19850587 7.92422625 5.56456777 9.54429029 0.2113127 7.46638207 3.02881537 0.2113127 8.31163287 2.25400213 7.67769477 3.87406617 4.15581644 2.50053362 3.69797225 3.69797225 6.48025614 4.78975454 5.88153682 6.30416222 3.09925293 5.21237994 2.60618997 6.51547492"></polygon>
                        <path d="M5.63500534,9.75560299 L0,7.57203842 L2.92315902,2.00195605e-14 L8.48772679,2.18356457 L7.74813234,4.12059765 L4.226254,2.7470651 L3.87406617,3.62753469 L6.65635005,4.71931697 L5.95197439,6.5506937 L3.1696905,5.45891142 L2.78228388,6.44503735 L6.37459979,7.85378869 L5.63500534,9.75560299 Z M0.4226254,7.3959445 L5.45891142,9.36819637 L5.98719317,8.0298826 L2.39487727,6.62113127 L2.99359658,5.03628602 L5.77588047,6.1280683 L6.26894344,4.89541089 L3.48665955,3.8036286 L4.05016009,2.3244397 L7.57203842,3.69797225 L8.10032017,2.35965848 L3.09925293,0.4226254 L0.4226254,7.3959445 Z" id="Shape"></path>
                    </g>
                    <g transform="translate(43.389541, 30.605123)" id="Shape">
                        <path d="M4.36712914,8.69903949 L3.48665955,5.9167556 L2.5357524,5.7054429 L2.00747065,8.17075774 L0.176093917,7.78335112 L1.83137673,0.176093917 L4.68409819,0.774813234 C6.58591249,1.19743863 7.53681964,2.46531483 7.1846318,4.05016009 C6.9733191,5.0715048 6.30416222,5.74066169 5.35325507,5.95197439 L6.44503735,9.12166489 L4.36712914,8.69903949 Z M2.88794023,4.08537887 L4.15581644,4.36712914 C4.82497332,4.50800427 5.17716115,4.08537887 5.24759872,3.66275347 C5.35325507,3.24012807 5.17716115,2.71184632 4.54322305,2.57097118 L3.27534685,2.28922092 L2.88794023,4.08537887 Z"></path>
                        <path d="M6.65635005,9.36819637 L4.26147279,8.83991462 L3.3810032,6.05763074 L2.67662753,5.9167556 L2.14834578,8.38207044 L0,7.92422625 L1.6905016,0 L4.68409819,0.6339381 C6.65635005,1.0565635 7.67769477,2.43009605 7.32550694,4.08537887 C7.11419424,5.10672359 6.48025614,5.77588047 5.52934899,6.05763074 L6.65635005,9.36819637 Z M4.47278549,8.55816435 L6.16328709,8.91035219 L5.10672359,5.84631804 L5.2828175,5.81109925 C6.19850587,5.59978655 6.79722519,4.96584845 7.00853789,4.0149413 C7.32550694,2.50053362 6.40981857,1.30309498 4.61366062,0.915688367 L1.93703308,0.352187834 L0.352187834,7.64247599 L1.86659552,7.95944504 L2.39487727,5.4941302 L3.5923159,5.74066169 L4.47278549,8.55816435 Z M4.40234792,4.54322305 C4.33191035,4.54322305 4.226254,4.54322305 4.12059765,4.50800427 L2.71184632,4.19103522 L3.1696905,2.07790822 L4.57844184,2.39487727 C5.31803629,2.5357524 5.52934899,3.1696905 5.42369264,3.69797225 C5.31803629,4.12059765 4.96584845,4.54322305 4.40234792,4.54322305 Z M3.06403415,3.97972252 L4.15581644,4.226254 C4.75453575,4.36712914 5.00106724,3.90928495 5.0715048,3.62753469 C5.14194237,3.34578442 5.0715048,2.85272145 4.47278549,2.71184632 L3.3810032,2.46531483 L3.06403415,3.97972252 Z"></path>
                    </g>
                    <g transform="translate(53.638207, 32.358551)">
                        <path d="M4.8601921,2.86023221 C4.71931697,2.15585654 4.12059765,1.80366871 3.55709712,1.76844993 C2.99359658,1.73323114 2.67662753,1.97976263 2.64140875,2.29673168 C2.60618997,2.82501343 3.3810032,3.03632613 4.29669157,3.45895153 C5.42369264,3.95201449 6.58591249,4.69160894 6.51547492,5.99470393 C6.44503735,7.40345526 5.14194237,8.35436241 3.34578442,8.24870606 C1.72572038,8.14304971 0.6339381,7.19214256 0.176093917,5.71295366 L2.00747065,5.32554704 C2.18356457,5.92426636 2.71184632,6.55820446 3.52187834,6.59342325 C4.19103522,6.62864203 4.50800427,6.34689176 4.54322305,5.95948515 C4.57844184,5.32554704 3.66275347,5.11423434 2.60618997,4.65639016 C1.6905016,4.23376476 0.6339381,3.67026423 0.73959445,2.29673168 C0.810032017,1.09929304 2.113127,0.0427295422 3.8036286,0.148385892 C5.2828175,0.218823459 6.40981857,1.20494939 6.72678762,2.47282559 L4.8601921,2.86023221 Z" id="Path"></path>
                        <path d="M3.62753469,8.42479998 C3.52187834,8.42479998 3.45144077,8.42479998 3.34578442,8.42479998 C1.72572038,8.31914363 0.493062967,7.36823648 0.0352187834,5.74817245 L0,5.57207853 L2.14834578,5.14945313 L2.18356457,5.29032826 C2.3244397,5.78339123 2.7470651,6.38211055 3.55709712,6.45254811 C4.05016009,6.4877669 4.40234792,6.31167298 4.40234792,5.95948515 C4.4375667,5.60729731 3.97972252,5.39598461 3.1696905,5.07901556 C2.9583778,5.00857799 2.7470651,4.90292164 2.5357524,4.79726529 C1.79615795,4.48029624 0.457844184,3.88157693 0.563500534,2.29673168 C0.6339381,0.923199126 2.07790822,-0.0981455912 3.76840982,0.00751075885 C5.2828175,0.0779483256 6.51547492,1.06407426 6.83244397,2.43760681 L6.86766275,2.61370073 L4.71931697,3.07154491 L4.68409819,2.93066978 C4.54322305,2.26151289 3.97972252,1.97976263 3.55709712,1.97976263 C3.09925293,1.94454384 2.81750267,2.15585654 2.81750267,2.36716924 C2.78228388,2.68413829 3.34578442,2.93066978 4.0149413,3.21242004 C4.12059765,3.24763883 4.26147279,3.31807639 4.40234792,3.38851396 C5.45891142,3.84635814 6.79722519,4.62117138 6.72678762,6.10036028 C6.69156884,6.83995473 6.339381,7.47389283 5.7054429,7.93173701 C5.14194237,8.21348728 4.4375667,8.42479998 3.62753469,8.42479998 Z M0.4226254,5.81861001 C0.880469584,7.19214256 1.93703308,8.00217458 3.3810032,8.07261215 C4.226254,8.10783093 4.96584845,7.93173701 5.52934899,7.5443304 C6.05763074,7.15692378 6.37459979,6.62864203 6.40981857,5.95948515 C6.48025614,4.69160894 5.31803629,4.02245206 4.26147279,3.56460788 C4.12059765,3.49417031 4.0149413,3.45895153 3.87406617,3.38851396 C3.09925293,3.07154491 2.46531483,2.78979464 2.50053362,2.26151289 C2.5357524,1.87410628 2.88794023,1.52191844 3.5923159,1.55713723 C4.15581644,1.59235601 4.75453575,1.94454384 5.00106724,2.61370073 L6.51547492,2.29673168 C6.16328709,1.13451183 5.10672359,0.359698592 3.8036286,0.254042242 C2.28922092,0.183604676 0.986125934,1.06407426 0.915688367,2.26151289 C0.8452508,3.52938909 1.79615795,4.05767084 2.71184632,4.44507746 C2.92315902,4.55073381 3.13447172,4.62117138 3.34578442,4.72682773 C4.15581644,5.04379678 4.78975454,5.32554704 4.75453575,5.92426636 C4.71931697,6.31167298 4.40234792,6.76951716 3.55709712,6.6990796 C2.71184632,6.66386081 2.18356457,6.0651415 1.93703308,5.46642218 L0.4226254,5.81861001 Z" id="Shape"></path>
                    </g>
                    <g transform="translate(69.204909, 30.534685)">
                        <path d="M7.8185699,0.176093917 L9.40341515,7.8185699 L7.6072572,8.20597652 L7.21985059,6.339381 C6.83244397,4.54322305 6.72678762,3.62753469 6.72678762,3.62753469 L6.72678762,3.62753469 C6.72678762,3.62753469 6.339381,4.78975454 6.26894344,4.93062967 L5.7054429,6.65635005 L4.75453575,6.86766275 L3.55709712,5.52934899 C3.48665955,5.42369264 2.64140875,4.50800427 2.64140875,4.50800427 L2.64140875,4.50800427 C2.64140875,4.50800427 2.88794023,5.38847385 3.24012807,7.1846318 L3.62753469,9.05122732 L1.83137673,9.43863394 L0.246531483,1.79615795 L1.97225187,1.44397012 L3.87406617,3.45144077 C4.61366062,4.226254 4.75453575,4.40234792 4.75453575,4.40234792 L4.75453575,4.40234792 C4.75453575,4.40234792 4.82497332,4.19103522 5.17716115,3.1696905 L6.1280683,0.563500534 L7.8185699,0.176093917 Z" id="Path"></path>
                        <path d="M1.65528282,9.57950907 L0,1.65528282 L1.97225187,1.23265742 L3.94450374,3.31056564 C4.29669157,3.69797225 4.50800427,3.94450374 4.6488794,4.08537887 C4.71931697,3.90928495 4.82497332,3.5923159 5.00106724,3.09925293 L5.98719317,0.4226254 L7.95944504,0 L9.61472785,7.92422625 L7.50160085,8.34685165 L7.07897545,6.339381 C6.86766275,5.35325507 6.7620064,4.6488794 6.65635005,4.19103522 C6.58591249,4.36712914 6.5506937,4.50800427 6.51547492,4.6488794 L5.81109925,6.72678762 L4.68409819,6.9733191 L3.20490928,5.31803629 C3.13447172,5.21237994 2.99359658,5.10672359 2.88794023,4.96584845 C2.99359658,5.42369264 3.1696905,6.1280683 3.3810032,7.07897545 L3.8036286,9.0864461 L1.65528282,9.57950907 Z M0.387406617,1.86659552 L1.93703308,9.19210245 L3.41622199,8.8751334 L3.06403415,7.1846318 C2.78228388,5.88153682 2.57097118,5.0715048 2.50053362,4.71931697 L2.46531483,4.57844184 C2.43009605,4.40234792 2.50053362,4.36712914 2.57097118,4.33191035 C2.67662753,4.29669157 2.67662753,4.29669157 3.45144077,5.14194237 L4.82497332,6.65635005 L5.59978655,6.48025614 L6.23372465,4.57844184 C6.58591249,3.48665955 6.58591249,3.48665955 6.69156884,3.45144077 L6.7620064,3.45144077 L6.83244397,3.48665955 C6.90288154,3.52187834 6.90288154,3.52187834 6.93810032,3.8036286 C7.00853789,4.15581644 7.14941302,5.00106724 7.3959445,6.30416222 L7.74813234,7.99466382 L9.22732124,7.67769477 L7.71291355,0.352187834 L6.23372465,0.669156884 L5.31803629,3.20490928 C5.0715048,3.87406617 4.96584845,4.19103522 4.93062967,4.33191035 C4.89541089,4.4375667 4.8601921,4.50800427 4.78975454,4.54322305 C4.68409819,4.57844184 4.6488794,4.50800427 4.57844184,4.4375667 C4.47278549,4.33191035 4.26147279,4.08537887 3.76840982,3.55709712 L1.93703308,1.62006403 L0.387406617,1.86659552 Z" id="Shape"></path>
                    </g>
                    <g transform="translate(82.658485, 27.858058)" id="Shape">
                        <path d="M4.8601921,6.02241195 L2.00747065,7.14941302 L2.04268943,8.452508 L0.176093917,9.19210245 L0.176093917,0.810032017 L1.83137673,0.140875133 L7.6072572,6.23372465 L5.74066169,6.9733191 L4.8601921,6.02241195 Z M3.69797225,4.71931697 L2.60618997,3.52187834 C2.28922092,3.1696905 1.83137673,2.60618997 1.83137673,2.60618997 L1.83137673,2.60618997 C1.83137673,2.60618997 1.9018143,3.34578442 1.9018143,3.8036286 L1.93703308,5.42369264 L3.69797225,4.71931697 Z"></path>
                        <path d="M0,9.47385272 L0,0.73959445 L1.83137673,0 L1.9018143,0.0704375667 L7.85378869,6.339381 L5.67022412,7.21985059 L4.78975454,6.23372465 L2.14834578,7.29028815 L2.18356457,8.59338314 L0,9.47385272 Z M0.352187834,0.95090715 L0.352187834,9.01600854 L1.9018143,8.38207044 L1.86659552,7.07897545 L4.93062967,5.84631804 L5.81109925,6.83244397 L7.36072572,6.19850587 L1.83137673,0.352187834 L0.352187834,0.95090715 Z M1.79615795,5.67022412 L1.76093917,3.83884739 C1.76093917,3.55709712 1.72572038,3.1696905 1.6905016,2.92315902 C1.65528282,2.57097118 1.65528282,2.5357524 1.76093917,2.50053362 C1.9018143,2.46531483 1.9018143,2.46531483 2.113127,2.7470651 C2.28922092,2.9583778 2.50053362,3.24012807 2.71184632,3.45144077 L3.94450374,4.82497332 L1.79615795,5.67022412 Z M2.00747065,3.06403415 C2.00747065,3.31056564 2.04268943,3.55709712 2.04268943,3.8036286 L2.07790822,5.17716115 L3.41622199,4.6488794 L2.50053362,3.62753469 C2.35965848,3.48665955 2.18356457,3.27534685 2.00747065,3.06403415 Z"></path>
                    </g>
                    <g transform="translate(89.878335, 23.201553)" id="Shape">
                        <path d="M7.88900747,6.73441249 L5.35325507,5.29044237 L4.54322305,5.78350534 L5.84631804,7.96706991 L4.226254,8.91797706 L0.246531483,2.22640822 L2.7470651,0.747219322 C4.4375667,-0.238906612 5.98719317,0.042843655 6.79722519,1.45159499 C7.32550694,2.36728336 7.29028815,3.28297172 6.72678762,4.09300374 L9.68516542,5.67784899 L7.88900747,6.73441249 Z M3.66275347,4.37475401 L4.78975454,3.70559712 C5.35325507,3.35340929 5.35325507,2.78990876 5.10672359,2.43772092 C4.89541089,2.08553309 4.40234792,1.76856404 3.83884739,2.12075187 L2.71184632,2.78990876 L3.66275347,4.37475401 Z"></path>
                        <path d="M4.15581644,9.16450854 L0,2.19118944 L2.64140875,0.606344189 C3.48665955,0.113281222 4.33191035,-0.0980314784 5.10672359,0.042843655 C5.88153682,0.183718788 6.48025614,0.641562972 6.93810032,1.34593864 C7.46638207,2.22640822 7.46638207,3.17731537 6.9733191,4.02256617 L10.0373533,5.64263021 L7.92422625,6.91050641 L5.38847385,5.46653629 L4.78975454,5.81872412 L6.09284952,8.00228869 L4.15581644,9.16450854 Z M0.4226254,2.29684579 L4.26147279,8.70666436 L5.59978655,7.89663234 L4.29669157,5.71306777 L5.35325507,5.07912967 L7.88900747,6.52309979 L9.36819637,5.64263021 L6.51547492,4.09300374 L6.62113127,3.95212861 C7.14941302,3.17731537 7.1846318,2.29684579 6.65635005,1.48681377 C6.26894344,0.852875672 5.7054429,0.430250272 5.0715048,0.324593922 C4.40234792,0.218937572 3.5923159,0.395031489 2.81750267,0.852875672 L0.4226254,2.29684579 Z M3.5923159,4.58606671 L2.46531483,2.71947119 L3.69797225,1.97987674 C4.33191035,1.59247012 4.93062967,1.90943917 5.17716115,2.36728336 C5.31803629,2.61381484 5.35325507,2.86034632 5.31803629,3.10687781 C5.2828175,3.31819051 5.17716115,3.63515956 4.78975454,3.84647226 L3.5923159,4.58606671 Z M2.92315902,2.82512754 L3.69797225,4.12822252 L4.68409819,3.56472199 C4.89541089,3.42384686 5.03628602,3.24775294 5.0715048,3.03644024 C5.10672359,2.86034632 5.0715048,2.64903362 4.96584845,2.50815849 C4.82497332,2.26162701 4.4375667,1.94465796 3.90928495,2.26162701 L2.92315902,2.82512754 Z"></path>
                    </g>
                    <g transform="translate(98.260406, 15.144077)">
                        <path d="M8.98078975,7.71291355 L5.0715048,6.7620064 L5.00106724,7.67769477 L6.65635005,9.64994664 L5.21237994,10.8473853 L0.176093917,4.89541089 L1.62006403,3.69797225 L2.43009605,4.6488794 C3.27534685,5.63500534 3.48665955,5.95197439 3.48665955,5.95197439 L3.48665955,5.95197439 C3.48665955,5.95197439 3.48665955,5.59978655 3.5923159,4.47278549 L3.8036286,1.79615795 L5.56456777,0.31696905 L5.17716115,5.00106724 L10.6008538,6.26894344 L8.98078975,7.71291355 Z" id="Path"></path>
                        <path d="M5.24759872,11.0939168 L0,4.89541089 L1.65528282,3.48665955 L2.57097118,4.57844184 C2.9583778,5.03628602 3.20490928,5.35325507 3.3810032,5.56456777 C3.3810032,5.31803629 3.41622199,5.00106724 3.45144077,4.47278549 L3.69797225,1.76093917 L5.77588047,0 L5.38847385,4.93062967 L10.9882604,6.23372465 L9.01600854,7.92422625 L5.21237994,7.00853789 L5.14194237,7.67769477 L6.86766275,9.7203842 L5.24759872,11.0939168 Z M0.457844184,4.96584845 L5.2828175,10.6712914 L6.48025614,9.68516542 L4.8601921,7.78335112 L4.96584845,6.62113127 L8.98078975,7.6072572 L10.3543223,6.44503735 L5.10672359,5.21237994 L5.45891142,0.774813234 L4.05016009,1.97225187 L3.83884739,4.57844184 C3.76840982,5.35325507 3.76840982,5.74066169 3.73319104,5.9167556 C3.73319104,6.05763074 3.73319104,6.09284952 3.66275347,6.1280683 L3.62753469,6.16328709 L3.55709712,6.16328709 C3.48665955,6.16328709 3.45144077,6.1280683 3.34578442,5.98719317 C3.20490928,5.81109925 2.92315902,5.45891142 2.39487727,4.82497332 L1.6905016,3.97972252 L0.457844184,4.96584845 Z" id="Shape"></path>
                    </g>
                    <g transform="translate(106.043757, 8.417289)">
                        <polygon id="Path" points="8.52294557 4.05016009 9.86125934 5.17716115 6.19850587 9.57950907 0.2113127 4.57844184 3.83884739 0.246531483 5.17716115 1.37353255 2.7470651 4.29669157 3.73319104 5.10672359 5.63500534 2.81750267 6.90288154 3.87406617 5.00106724 6.16328709 6.05763074 7.04375667"></polygon>
                        <path d="M6.23372465,9.79082177 L0,4.57844184 L3.83884739,-2.00195605e-14 L5.42369264,1.33831377 L2.99359658,4.26147279 L3.73319104,4.89541089 L5.63500534,2.60618997 L7.14941302,3.87406617 L5.24759872,6.16328709 L6.05763074,6.83244397 L8.52294557,3.87406617 L10.1077908,5.21237994 L6.23372465,9.79082177 Z M0.457844184,4.54322305 L6.19850587,9.33297759 L9.68516542,5.17716115 L8.59338314,4.26147279 L6.1280683,7.21985059 L4.82497332,6.1280683 L6.72678762,3.83884739 L5.7054429,2.99359658 L3.8036286,5.2828175 L2.57097118,4.26147279 L5.00106724,1.33831377 L3.90928495,0.4226254 L0.457844184,4.54322305 Z" id="Shape"></path>
                    </g>
                    <g transform="translate(111.643543, 0.000000)">
                        <polygon id="Path" points="3.52187834 0.2113127 5.03628602 1.09178228 3.83884739 3.13447172 9.0864461 6.16328709 8.13553895 7.78335112 2.88794023 4.75453575 1.72572038 6.7620064 0.2113127 5.88153682"></polygon>
                        <path d="M8.20597652,8.0298826 L2.9583778,5.00106724 L1.79615795,7.00853789 L0,5.98719317 L3.45144077,-2.00195605e-14 L5.24759872,1.02134472 L4.05016009,3.06403415 L9.2977588,6.09284952 L8.20597652,8.0298826 Z M2.85272145,4.54322305 L8.10032017,7.57203842 L8.8751334,6.23372465 L3.62753469,3.20490928 L4.82497332,1.16221985 L3.5923159,0.457844184 L0.457844184,5.88153682 L1.6905016,6.58591249 L2.85272145,4.54322305 Z" id="Shape"></path>
                    </g>
                </g>
                <path d="M116.433298,85.4055496 L145.664888,119.004269 C145.664888,119.004269 144.291355,122.631804 141.192102,126.048026 C138.09285,129.499466 131.894344,132.070438 131.894344,132.070438 L107.346852,85.4055496 L91.0757737,85.4055496 L66.5282818,132.070438 C66.5282818,132.070438 60.3297759,129.499466 57.2305229,126.048026 C54.13127,122.596585 52.7577375,119.004269 52.7577375,119.004269 L81.9893276,85.4055496 L39.1280683,85.4055496 C39.1280683,118.475987 65.9295624,145.277481 99,145.277481 C132.070438,145.277481 158.871932,118.475987 158.871932,85.4055496 L116.433298,85.4055496 Z M41.452508,99.5282818 L67.303095,85.5816435 L75.4386339,85.4759872 L46.7353255,112.524013 L41.452508,99.5282818 Z M98.4717182,142.917823 C89.1739594,142.917823 79.2422625,140.522946 79.2422625,140.522946 L96.1120598,85.6520811 L102.381003,85.6520811 L119.462113,140.522946 C119.462113,140.522946 107.769477,142.917823 98.4717182,142.917823 Z M123.01921,85.4759872 L131.154749,85.5816435 L155.843116,98.8943436 L151.722519,112.559232 L123.01921,85.4759872 Z" id="Shape"></path>
                <path d="M99,145.347919 C66,145.347919 39.1280683,118.511206 39.1280683,85.4759872 C39.1280683,52.4407684 65.9647812,25.6040555 99,25.6040555 C132.035219,25.6040555 158.871932,52.4407684 158.871932,85.4759872 C158.871932,118.511206 132,145.347919 99,145.347919 Z M99,29.7950907 C68.2892209,29.7950907 43.3191035,54.7652081 43.3191035,85.4759872 C43.3191035,116.186766 68.2892209,141.156884 99,141.156884 C129.710779,141.156884 154.680896,116.186766 154.680896,85.4759872 C154.680896,54.7652081 129.710779,29.7950907 99,29.7950907 Z" id="Shape"></path>
                <rect id="Rectangle" x="43.072572" y="84.8068303" width="111.819637" height="2.78228388"></rect>
                <g id="Group" transform="translate(47.545358, 11.481323)">
                    <g transform="translate(0.000000, 16.728922)">
                        <path d="M5.9167556,0.246531483 L11.2700107,5.9167556 L9.93169691,7.1846318 L8.62860192,5.81109925 C7.36072572,4.47278549 6.79722519,3.76840982 6.7620064,3.76840982 L6.7620064,3.76840982 C6.7620064,3.76840982 7.04375667,4.96584845 7.07897545,5.10672359 L7.46638207,6.86766275 L6.7620064,7.53681964 L5.03628602,7.04375667 C4.89541089,7.00853789 3.73319104,6.65635005 3.73319104,6.65635005 L3.73319104,6.65635005 C3.73319104,6.65635005 4.40234792,7.29028815 5.67022412,8.62860192 L6.9733191,10.0021345 L5.63500534,11.2700107 L0.246531483,5.59978655 L1.51440768,4.40234792 L4.19103522,5.10672359 C5.24759872,5.38847385 5.42369264,5.45891142 5.45891142,5.45891142 L5.45891142,5.45891142 C5.45891142,5.45891142 5.38847385,5.24759872 5.17716115,4.19103522 L4.61366062,1.4791889 L5.9167556,0.246531483 Z" id="Path"></path>
                        <path d="M5.56456777,11.4813234 L0,5.56456777 L1.44397012,4.19103522 L4.226254,4.93062967 C4.75453575,5.0715048 5.03628602,5.17716115 5.24759872,5.21237994 C5.21237994,5.03628602 5.14194237,4.71931697 5.03628602,4.19103522 L4.47278549,1.37353255 L5.9167556,0 L11.4813234,5.9167556 L9.89647812,7.3959445 L8.48772679,5.88153682 C7.8185699,5.17716115 7.32550694,4.61366062 7.00853789,4.26147279 C7.04375667,4.4375667 7.07897545,4.61366062 7.11419424,4.71931697 L7.6072572,6.86766275 L6.7620064,7.64247599 L4.93062967,7.11419424 C4.89541089,7.11419424 4.78975454,7.07897545 4.61366062,7.00853789 C4.50800427,6.9733191 4.33191035,6.93810032 4.15581644,6.86766275 C4.47278549,7.1846318 5.00106724,7.71291355 5.67022412,8.41728922 L7.07897545,9.93169691 L5.56456777,11.4813234 Z M0.457844184,5.59978655 L5.59978655,11.0234792 L6.69156884,9.96691569 L5.4941302,8.69903949 C4.57844184,7.71291355 3.97972252,7.14941302 3.69797225,6.86766275 C3.48665955,6.69156884 3.48665955,6.69156884 3.48665955,6.58591249 L3.48665955,6.51547492 L3.52187834,6.48025614 C3.5923159,6.40981857 3.5923159,6.40981857 4.68409819,6.72678762 L6.62113127,7.29028815 L7.1846318,6.7620064 L6.72678762,4.78975454 C6.48025614,3.66275347 6.48025614,3.66275347 6.5506937,3.5923159 L6.58591249,3.55709712 L6.65635005,3.55709712 C6.72678762,3.55709712 6.72678762,3.55709712 6.90288154,3.76840982 C7.14941302,4.05016009 7.71291355,4.68409819 8.62860192,5.67022412 L9.82604055,6.93810032 L10.9178228,5.88153682 L5.77588047,0.457844184 L4.68409819,1.4791889 L5.21237994,4.12059765 C5.35325507,4.82497332 5.45891142,5.14194237 5.4941302,5.2828175 C5.52934899,5.38847385 5.52934899,5.45891142 5.45891142,5.52934899 C5.38847385,5.59978655 5.31803629,5.59978655 5.21237994,5.56456777 C5.0715048,5.52934899 4.75453575,5.42369264 4.05016009,5.24759872 L1.44397012,4.54322305 L0.457844184,5.59978655 Z" id="Shape"></path>
                    </g>
                    <g transform="translate(10.072572, 12.361793)">
                        <polygon id="Path" points="4.71931697 7.67769477 0.246531483 1.30309498 1.76093917 0.2113127 6.23372465 6.58591249"></polygon>
                        <path d="M4.6488794,7.88900747 L-1.00097803e-14,1.2678762 L1.79615795,-5.00489013e-15 L6.44503735,6.62113127 L4.6488794,7.88900747 Z M0.457844184,1.33831377 L4.75453575,7.46638207 L6.02241195,6.58591249 L1.72572038,0.457844184 L0.457844184,1.33831377 Z" id="Shape"></path>
                    </g>
                    <g transform="translate(16.200640, 6.233725)">
                        <path d="M6.40981857,0.2113127 L9.96691569,7.14941302 L8.41728922,7.95944504 L6.02241195,6.7620064 C4.93062967,6.23372465 3.34578442,5.38847385 3.31056564,5.38847385 L3.31056564,5.38847385 C3.31056564,5.38847385 3.87406617,6.44503735 4.6488794,7.95944504 L5.42369264,9.5090715 L3.76840982,10.3543223 L0.2113127,3.41622199 L1.76093917,2.60618997 L4.26147279,3.83884739 C5.00106724,4.19103522 6.83244397,5.14194237 6.86766275,5.14194237 L6.86766275,5.14194237 C6.86766275,5.14194237 6.23372465,3.90928495 5.56456777,2.67662753 L4.75453575,1.09178228 L6.40981857,0.2113127 Z" id="Path"></path>
                        <path d="M3.69797225,10.5304162 L-1.00097803e-14,3.31056564 L1.76093917,2.39487727 L4.33191035,3.66275347 C4.75453575,3.87406617 5.56456777,4.29669157 6.16328709,4.57844184 C6.26894344,4.6488794 6.40981857,4.68409819 6.51547492,4.75453575 C6.48025614,4.6488794 6.40981857,4.54322305 6.339381,4.4375667 C6.09284952,3.97972252 5.77588047,3.34578442 5.42369264,2.71184632 L4.54322305,0.986125934 L6.48025614,0 L10.1782284,7.21985059 L8.41728922,8.13553895 L5.95197439,6.90288154 C5.38847385,6.62113127 4.71931697,6.26894344 4.15581644,5.98719317 C3.97972252,5.88153682 3.8036286,5.81109925 3.66275347,5.74066169 C3.69797225,5.81109925 3.73319104,5.88153682 3.8036286,5.98719317 C4.05016009,6.44503735 4.40234792,7.11419424 4.78975454,7.88900747 L5.63500534,9.57950907 L3.69797225,10.5304162 Z M0.387406617,3.45144077 L3.8036286,10.1077908 L5.17716115,9.40341515 L4.47278549,7.99466382 C4.05016009,7.21985059 3.73319104,6.5506937 3.48665955,6.09284952 C3.09925293,5.38847385 3.09925293,5.38847385 3.13447172,5.31803629 L3.1696905,5.24759872 L3.24012807,5.21237994 C3.34578442,5.17716115 3.34578442,5.17716115 4.33191035,5.67022412 C4.8601921,5.95197439 5.56456777,6.30416222 6.1280683,6.58591249 L8.452508,7.74813234 L9.79082177,7.04375667 L6.37459979,0.387406617 L5.00106724,1.09178228 L5.74066169,2.5357524 C6.05763074,3.1696905 6.40981857,3.8036286 6.65635005,4.26147279 C7.11419424,5.14194237 7.11419424,5.14194237 6.9733191,5.21237994 C6.86766275,5.24759872 6.86766275,5.24759872 6.05763074,4.82497332 C5.45891142,4.50800427 4.6488794,4.12059765 4.226254,3.90928495 L1.79615795,2.71184632 L0.387406617,3.45144077 Z" id="Shape"></path>
                    </g>
                    <g transform="translate(27.681964, 2.042689)">
                        <path d="M6.86766275,0.2113127 L9.15688367,7.67769477 L7.46638207,8.20597652 L5.31803629,6.58591249 C4.36712914,5.84631804 2.92315902,4.75453575 2.92315902,4.75453575 L2.92315902,4.75453575 C2.92315902,4.75453575 3.27534685,5.9167556 3.76840982,7.53681964 L4.26147279,9.19210245 L2.46531483,9.75560299 L0.176093917,2.28922092 L1.86659552,1.76093917 L4.12059765,3.41622199 C4.78975454,3.90928495 6.40981857,5.17716115 6.44503735,5.17716115 L6.44503735,5.17716115 C6.44503735,5.17716115 6.02241195,3.87406617 5.59978655,2.50053362 L5.0715048,0.810032017 L6.86766275,0.2113127 Z" id="Path"></path>
                        <path d="M2.35965848,9.89647812 L0,2.14834578 L1.9018143,1.54962647 L4.19103522,3.24012807 C4.57844184,3.52187834 5.2828175,4.05016009 5.81109925,4.47278549 C5.9167556,4.54322305 6.02241195,4.6488794 6.1280683,4.71931697 C6.09284952,4.61366062 6.05763074,4.47278549 6.02241195,4.33191035 C5.88153682,3.83884739 5.67022412,3.1696905 5.45891142,2.50053362 L4.89541089,0.6339381 L6.9733191,-2.50244507e-15 L9.33297759,7.74813234 L7.43116329,8.34685165 L5.21237994,6.69156884 C4.71931697,6.30416222 4.08537887,5.84631804 3.5923159,5.45891142 C3.45144077,5.35325507 3.27534685,5.21237994 3.1696905,5.14194237 C3.20490928,5.21237994 3.20490928,5.2828175 3.24012807,5.38847385 C3.3810032,5.88153682 3.62753469,6.62113127 3.87406617,7.46638207 L4.4375667,9.26254002 L2.35965848,9.89647812 Z M0.387406617,2.35965848 L2.57097118,9.5090715 L4.05016009,9.05122732 L3.5923159,7.53681964 C3.34578442,6.69156884 3.09925293,5.95197439 2.9583778,5.45891142 C2.71184632,4.71931697 2.71184632,4.71931697 2.7470651,4.6488794 L2.78228388,4.57844184 L2.85272145,4.54322305 C2.9583778,4.50800427 2.9583778,4.50800427 3.8036286,5.17716115 C4.29669157,5.56456777 4.89541089,6.02241195 5.42369264,6.40981857 L7.50160085,7.95944504 L8.94557097,7.50160085 L6.7620064,0.352187834 L5.2828175,0.810032017 L5.74066169,2.35965848 C5.95197439,3.02881537 6.16328709,3.69797225 6.30416222,4.19103522 C6.58591249,5.0715048 6.58591249,5.0715048 6.5506937,5.14194237 L6.51547492,5.21237994 L6.44503735,5.24759872 C6.339381,5.2828175 6.339381,5.2828175 5.59978655,4.71931697 C5.0715048,4.33191035 4.36712914,3.76840982 3.97972252,3.48665955 L1.79615795,1.9018143 L0.387406617,2.35965848 Z" id="Shape"></path>
                    </g>
                    <g transform="translate(39.902882, 0.211313)">
                        <polygon id="Path" points="6.65635005 6.16328709 6.86766275 7.88900747 1.19743863 8.62860192 0.176093917 0.915688367 5.81109925 0.176093917 6.02241195 1.9018143 2.25400213 2.39487727 2.43009605 3.66275347 5.38847385 3.27534685 5.59978655 4.89541089 2.64140875 5.2828175 2.81750267 6.65635005"></polygon>
                        <path d="M1.0565635,8.80469584 L0,0.774813234 L5.95197439,0 L6.23372465,2.04268943 L2.46531483,2.5357524 L2.60618997,3.48665955 L5.56456777,3.09925293 L5.81109925,5.03628602 L2.85272145,5.42369264 L2.99359658,6.48025614 L6.83244397,5.98719317 L7.11419424,8.0298826 L1.0565635,8.80469584 Z M0.352187834,1.02134472 L1.30309498,8.41728922 L6.65635005,7.71291355 L6.48025614,6.30416222 L2.64140875,6.79722519 L2.43009605,5.10672359 L5.38847385,4.71931697 L5.21237994,3.41622199 L2.25400213,3.8036286 L2.04268943,2.21878335 L5.81109925,1.72572038 L5.63500534,0.31696905 L0.352187834,1.02134472 Z" id="Shape"></path>
                    </g>
                    <g transform="translate(49.905016, -0.000000)" id="Shape">
                        <path d="M5.81109925,6.79722519 L2.71184632,6.69156884 L2.21878335,7.88900747 L0.2113127,7.8185699 L3.55709712,0.140875133 L5.31803629,0.2113127 L8.20597652,8.10032017 L6.19850587,8.0298826 L5.81109925,6.79722519 Z M5.2828175,5.14194237 L4.75453575,3.62753469 C4.61366062,3.1696905 4.4375667,2.46531483 4.40234792,2.46531483 L4.40234792,2.46531483 C4.40234792,2.46531483 4.15581644,3.1696905 3.97972252,3.5923159 L3.3810032,5.0715048 L5.2828175,5.14194237 Z"></path>
                        <path d="M8.48772679,8.2411953 L6.1280683,8.17075774 L5.7054429,6.93810032 L2.85272145,6.86766275 L2.35965848,8.06510139 L-2.00195605e-14,7.99466382 L3.48665955,0 L5.45891142,0.0704375667 L8.48772679,8.2411953 Z M6.339381,7.85378869 L7.99466382,7.88900747 L5.24759872,0.31696905 L3.69797225,0.281750267 L0.493062967,7.67769477 L2.14834578,7.71291355 L2.64140875,6.51547492 L5.95197439,6.62113127 L6.339381,7.85378869 Z M5.4941302,5.2828175 L3.1696905,5.21237994 L3.87406617,3.48665955 C3.97972252,3.20490928 4.12059765,2.85272145 4.19103522,2.60618997 C4.29669157,2.25400213 4.33191035,2.25400213 4.4375667,2.25400213 C4.57844184,2.25400213 4.57844184,2.28922092 4.68409819,2.64140875 C4.75453575,2.88794023 4.8601921,3.24012807 4.93062967,3.52187834 L5.4941302,5.2828175 Z M3.62753469,4.93062967 L5.03628602,4.96584845 L4.61366062,3.66275347 C4.54322305,3.45144077 4.47278549,3.1696905 4.40234792,2.9583778 C4.33191035,3.1696905 4.226254,3.45144077 4.15581644,3.66275347 L3.62753469,4.93062967 Z"></path>
                    </g>
                    <g transform="translate(61.210245, 0.704376)" id="Shape">
                        <path d="M4.54322305,0.704375667 C6.40981857,1.0565635 7.36072572,2.25400213 7.07897545,3.90928495 C6.7620064,5.56456777 5.45891142,6.30416222 3.55709712,5.95197439 L2.46531483,5.74066169 L2.00747065,8.13553895 L0.176093917,7.78335112 L1.62006403,0.140875133 L4.54322305,0.704375667 Z M3.83884739,4.226254 C4.54322305,4.36712914 5.03628602,4.08537887 5.14194237,3.52187834 C5.24759872,2.9583778 4.89541089,2.5357524 4.19103522,2.39487727 L3.13447172,2.18356457 L2.78228388,4.0149413 L3.83884739,4.226254 Z"></path>
                        <path d="M2.14834578,8.34685165 L0,7.95944504 L1.51440768,0 L4.57844184,0.563500534 C5.52934899,0.73959445 6.30416222,1.16221985 6.7620064,1.72572038 C7.21985059,2.3244397 7.3959445,3.09925293 7.21985059,3.94450374 C7.04375667,4.78975454 6.62113127,5.45891142 5.98719317,5.84631804 C5.35325507,6.23372465 4.50800427,6.339381 3.52187834,6.1280683 L2.60618997,5.95197439 L2.14834578,8.34685165 Z M0.352187834,7.71291355 L1.86659552,7.99466382 L2.3244397,5.59978655 L3.55709712,5.84631804 C4.4375667,6.02241195 5.21237994,5.9167556 5.81109925,5.59978655 C6.37459979,5.2828175 6.7620064,4.68409819 6.90288154,3.94450374 C7.04375667,3.1696905 6.90288154,2.50053362 6.48025614,2.00747065 C6.05763074,1.4791889 5.38847385,1.12700107 4.50800427,0.95090715 L1.76093917,0.4226254 L0.352187834,7.71291355 Z M4.19103522,4.4375667 C4.08537887,4.4375667 3.94450374,4.4375667 3.8036286,4.40234792 L2.60618997,4.19103522 L2.99359658,2.07790822 L4.19103522,2.28922092 C4.57844184,2.35965848 4.89541089,2.50053362 5.0715048,2.7470651 C5.2828175,2.99359658 5.35325507,3.27534685 5.2828175,3.5923159 C5.21237994,3.90928495 5.03628602,4.15581644 4.78975454,4.29669157 C4.61366062,4.40234792 4.40234792,4.4375667 4.19103522,4.4375667 Z M3.87406617,4.08537887 C4.19103522,4.15581644 4.47278549,4.12059765 4.6488794,4.0149413 C4.82497332,3.90928495 4.96584845,3.73319104 5.00106724,3.52187834 C5.03628602,3.27534685 5.00106724,3.09925293 4.8601921,2.92315902 C4.71931697,2.7470651 4.47278549,2.64140875 4.15581644,2.57097118 L3.27534685,2.39487727 L2.99359658,3.90928495 L3.87406617,4.08537887 Z"></path>
                    </g>
                    <g transform="translate(71.450661, 3.955343)" id="Shape">
                        <path d="M5.64325575,0.447005235 C7.75638275,1.22181847 8.84816503,3.44060182 8.03813302,5.65938517 C7.228101,7.87816852 4.93888008,8.82907567 2.82575308,8.05426244 C0.71262608,7.27944921 -0.379156204,5.06066585 0.430875813,2.8418825 C1.24090783,0.658317935 3.53012875,-0.327807999 5.64325575,0.447005235 Z M3.45969118,6.32854205 C4.65712982,6.75116746 5.7489121,6.2228857 6.20675628,4.99022829 C6.66460047,3.75757087 6.1715375,2.6305698 5.00931765,2.2079444 C3.8470978,1.785319 2.75531551,2.31360075 2.29747133,3.54625817 C1.80440836,4.7436968 2.29747133,5.90591665 3.45969118,6.32854205 Z"></path>
                        <path d="M4.2697232,8.47688784 C3.77666023,8.47688784 3.24837848,8.37123149 2.75531551,8.19513757 C0.50131338,7.34988677 -0.55525012,5.02544707 0.29000068,2.77144494 C1.13525148,0.517442802 3.45969118,-0.539120699 5.67847453,0.270911318 L5.67847453,0.270911318 C6.73503803,0.658317935 7.58028883,1.43313117 8.0733518,2.4192571 C8.56641477,3.44060182 8.60163355,4.60282167 8.17900815,5.69460395 C7.79160153,6.78638624 6.98156952,7.63163704 5.9602248,8.08948122 C5.43194305,8.37123149 4.86844252,8.47688784 4.2697232,8.47688784 Z M4.16406685,0.341348885 C2.5792216,0.341348885 1.17047026,1.29225604 0.571750947,2.91232007 C-0.203062287,4.99022829 0.783063647,7.13857407 2.86097186,7.91338731 C3.8470978,8.26557514 4.9036613,8.26557514 5.81934967,7.84294974 C6.77025682,7.42032434 7.47463248,6.6455111 7.8620391,5.62416639 C8.24944572,4.60282167 8.21422693,3.54625817 7.75638275,2.59535102 C7.33375735,1.67966265 6.55894412,0.975286985 5.5375994,0.623099152 L5.5375994,0.623099152 C5.114974,0.447005235 4.62191103,0.341348885 4.16406685,0.341348885 Z M4.2697232,6.6455111 C3.98797293,6.6455111 3.70622267,6.57507354 3.4244724,6.46941719 C2.7905343,6.25810449 2.3679089,5.83547909 2.12137741,5.27197855 C1.87484593,4.7436968 1.91006471,4.1097587 2.12137741,3.4758206 C2.61444038,2.13750684 3.77666023,1.5740063 5.04453643,2.03185049 C6.31241263,2.48969467 6.84069438,3.72235209 6.34763142,5.02544707 C6.10109993,5.65938517 5.71369332,6.15244814 5.18541157,6.39897962 C4.9036613,6.57507354 4.58669225,6.6455111 4.2697232,6.6455111 Z M4.19928563,2.2079444 C3.4244724,2.2079444 2.72009673,2.70100737 2.40312768,3.58147695 C2.19181498,4.14497749 2.19181498,4.67325924 2.40312768,5.1663222 C2.61444038,5.62416639 3.001847,5.97635422 3.53012875,6.18766692 L3.53012875,6.18766692 C4.0584105,6.39897962 4.58669225,6.36376084 5.04453643,6.15244814 C5.50238062,5.94113544 5.85456845,5.51851004 6.06588115,4.9550095 C6.48850655,3.79278965 6.06588115,2.77144494 4.93888008,2.34881954 C4.6923486,2.24316319 4.44581712,2.2079444 4.19928563,2.2079444 Z"></path>
                    </g>
                    <g transform="translate(81.284952, 7.994664)">
                        <polygon id="Path" points="5.9167556 8.20597652 5.0715048 9.7203842 0.2113127 6.9733191 4.05016009 0.176093917 5.67022412 1.09178228 2.67662753 6.339381"></polygon>
                        <path d="M5.10672359,9.93169691 L0,7.04375667 L4.0149413,-5.00489013e-15 L5.9167556,1.09178228 L2.92315902,6.339381 L6.1280683,8.17075774 L5.10672359,9.93169691 Z M0.4226254,6.93810032 L4.96584845,9.5090715 L5.67022412,8.27641409 L2.46531483,6.44503735 L5.45891142,1.19743863 L4.12059765,0.4226254 L0.4226254,6.93810032 Z" id="Shape"></path>
                    </g>
                    <g transform="translate(89.173959, 13.383138)">
                        <polygon id="Path" points="0.246531483 6.48025614 4.89541089 0.2113127 6.40981857 1.33831377 1.76093917 7.6072572"></polygon>
                        <path d="M1.76093917,7.8185699 L2.00195605e-14,6.51547492 L4.82497332,0 L6.58591249,1.30309498 L1.76093917,7.8185699 Z M0.457844184,6.44503735 L1.6905016,7.36072572 L6.1280683,1.33831377 L4.89541089,0.4226254 L0.457844184,6.44503735 Z" id="Shape"></path>
                    </g>
                    <g transform="translate(94.876875, 18.689285)">
                        <path d="M5.88406441,3.81551731 C6.23625225,3.18157921 6.02493955,2.54764111 5.60231415,2.16023449 C5.21490753,1.77282788 4.75706334,1.77282788 4.54575064,1.98414058 C4.19356281,2.37154719 4.61618821,3.04070408 5.0740324,3.92117366 C5.63753293,5.01295595 6.06015833,6.35126971 5.14446996,7.30217686 C4.15834403,8.32352158 2.57349878,8.21786523 1.27040379,6.98520781 C0.108183943,5.85820675 -0.138347541,4.41423663 0.495590559,3.00548529 L2.11565459,3.88595488 C1.86912311,4.44945541 1.83390433,5.25948743 2.43262364,5.82298796 C2.92568661,6.28083215 3.34831201,6.28083215 3.63006228,5.99908188 C4.05268768,5.5412377 3.48918714,4.80164325 2.99612418,3.74507974 C2.57349878,2.82939138 2.15087338,1.73760909 3.06656174,0.75148316 C3.91181254,-0.128986424 5.53187658,-0.0937676405 6.764534,1.06845221 C7.85631628,2.08979693 8.06762898,3.56898583 7.50412845,4.6959869 L5.88406441,3.81551731 Z" id="Path"></path>
                        <path d="M3.52440593,8.18264645 C3.45396836,8.18264645 3.38353079,8.18264645 3.31309323,8.18264645 C2.57349878,8.11220888 1.83390433,7.76002105 1.16474744,7.12608295 C-0.0326911909,5.99908188 -0.314441458,4.4846742 0.354715426,2.97026651 L0.425152993,2.82939138 L2.32696729,3.88595488 L2.25652973,4.02683001 C2.04521703,4.4846742 1.97477946,5.25948743 2.53827999,5.78776918 C2.74959269,5.9638631 2.92568661,6.10473823 3.13699931,6.10473823 C3.27787444,6.10473823 3.41874958,6.06951945 3.52440593,5.9638631 C3.77093741,5.68211283 3.55962471,5.25948743 3.17221809,4.4846742 C3.06656174,4.30858028 2.96090539,4.09726758 2.85524904,3.85073609 C2.50306121,3.14636043 1.86912311,1.80804666 2.96090539,0.64582681 C3.41874958,0.187982626 4.08790646,-0.0585488572 4.79228213,0.0118887095 C5.53187658,0.0471074929 6.27147103,0.399295326 6.90540913,0.998014643 C7.99719141,2.01935936 8.31416046,3.56898583 7.68022236,4.83686203 L7.6097848,4.97773716 L5.67275171,3.92117366 L5.74318928,3.78029853 C6.06015833,3.18157921 5.81362685,2.61807868 5.4966578,2.30110963 C5.14446996,1.98414058 4.82750091,1.94892179 4.68662578,2.12501571 C4.47531308,2.37154719 4.72184456,2.86461016 5.03881361,3.53376704 C5.10925118,3.63942339 5.17968875,3.78029853 5.21490753,3.88595488 C5.7079705,4.9072996 6.27147103,6.3864885 5.25012631,7.443052 C4.82750091,7.93611496 4.19356281,8.18264645 3.52440593,8.18264645 Z M0.601246909,3.25201678 C0.0729651592,4.59033055 0.319496643,5.89342553 1.41127893,6.87955146 C2.00999824,7.47827078 2.71437391,7.79523983 3.38353079,7.8656774 C4.05268768,7.90089618 4.61618821,7.68958348 5.0740324,7.2317393 C5.95450198,6.31605093 5.4966578,5.04817473 5.00359483,4.02683001 C4.93315726,3.88595488 4.86271969,3.78029853 4.82750091,3.67464218 C4.44009429,2.89982894 4.12312524,2.30110963 4.51053186,1.91370301 C4.75706334,1.63195274 5.2853451,1.63195274 5.77840806,2.08979693 C6.16581468,2.47720354 6.44756495,3.14636043 6.16581468,3.81551731 L7.53934723,4.55511176 C8.0324102,3.46332948 7.71544115,2.16023449 6.764534,1.24454613 C6.20103346,0.716264377 5.53187658,0.399295326 4.86271969,0.364076543 C4.22878159,0.32885776 3.66528106,0.504951676 3.27787444,0.927577077 C2.39740486,1.84326544 2.78481148,2.86461016 3.20743688,3.74507974 C3.31309323,3.95639244 3.41874958,4.16770514 3.52440593,4.34379906 C3.94703133,5.1186123 4.26400038,5.7525504 3.84137498,6.1751758 C3.66528106,6.35126971 3.45396836,6.42170728 3.20743688,6.42170728 C2.96090539,6.3864885 2.67915513,6.24561336 2.43262364,5.99908188 C1.79868554,5.40036256 1.79868554,4.59033055 2.00999824,4.02683001 L0.601246909,3.25201678 Z" id="Shape"></path>
                    </g>
                </g>
                <g id="Group" transform="translate(0.000000, 71.071505)">
                    <path d="M-7.97654365e-15,0 L6.9733191,14.3340448 L-7.97654365e-15,28.7033084 L41.6638207,28.7033084 L41.6638207,0.0352187834 L-7.97654365e-15,0.0352187834 L-7.97654365e-15,0 Z M16.9402348,17.5741729 L12.4674493,17.5741729 L12.4674493,11.4813234 L16.905016,11.4813234 L16.905016,12.8548559 L13.9466382,12.8548559 L13.9466382,13.8409819 L16.2710779,13.8409819 L16.2710779,15.1088581 L13.9466382,15.1088581 L13.9466382,16.2006403 L16.9754536,16.2006403 L16.9754536,17.5741729 L16.9402348,17.5741729 Z M22.2934899,17.6798292 C21.0256137,17.6798292 20.1099253,16.9754536 19.7225187,15.8484525 L21.13127,15.4610459 C21.2721451,15.9188901 21.7299893,16.3767343 22.3639274,16.3767343 C22.8922092,16.3767343 23.1387407,16.1302028 23.1387407,15.8484525 C23.1387407,15.3553895 22.434365,15.2497332 21.5538954,14.8975454 C20.814301,14.6157951 19.9690502,14.2283885 19.9690502,13.1366062 C19.9690502,12.185699 20.9199573,11.3404482 22.2582711,11.3404482 C23.4204909,11.3404482 24.3361793,12.0448239 24.6179296,12.9957311 L23.2091782,13.3831377 C23.0683031,12.8548559 22.5752401,12.6083244 22.1526147,12.6083244 C21.7299893,12.6083244 21.4482391,12.8196371 21.4482391,13.0661686 C21.4482391,13.4535752 22.0469584,13.6296692 22.7865528,13.8762006 C23.7022412,14.1931697 24.6531483,14.7214514 24.6531483,15.7780149 C24.6531483,16.905016 23.7022412,17.6798292 22.2934899,17.6798292 Z M32.3660619,12.8548559 L30.4994664,12.8548559 L30.4994664,17.5741729 L29.0554963,17.5741729 L29.0554963,12.8548559 L27.2241195,12.8548559 L27.2241195,11.4813234 L32.3660619,11.4813234 L32.3660619,12.8548559 Z" id="Shape"></path>
                    <g transform="translate(156.336179, 0.000000)">
                        <path d="M26.8719317,14.6862327 C26.3084312,14.6862327 25.9210245,15.0384205 25.9210245,15.5667022 C25.9210245,16.094984 26.3436499,16.4471718 26.8719317,16.4471718 C27.4354322,16.4471718 27.8228388,16.0597652 27.8228388,15.5667022 C27.8228388,15.0032017 27.4002134,14.6862327 26.8719317,14.6862327 Z" id="Path"></path>
                        <path d="M12.2209178,13.7001067 C12.7139808,13.7001067 13.0309498,13.4183565 13.0309498,13.0661686 C13.0309498,12.678762 12.678762,12.3970117 12.2209178,12.3970117 C11.7278549,12.3970117 11.4108858,12.678762 11.4108858,13.0661686 C11.4108858,13.4535752 11.7278549,13.7001067 12.2209178,13.7001067 Z" id="Path"></path>
                        <path d="M12.2209178,15.0384205 C11.6574173,15.0384205 11.2700107,15.3553895 11.2700107,15.8132337 C11.2700107,16.2710779 11.6574173,16.588047 12.2209178,16.588047 C12.7844184,16.588047 13.171825,16.2710779 13.171825,15.8132337 C13.1366062,15.3553895 12.7491996,15.0384205 12.2209178,15.0384205 Z" id="Path"></path>
                        <path d="M41.6638207,0 L0,0 L0,28.6680896 L41.6638207,28.6680896 L34.3383138,14.1227321 L41.6638207,0 Z M6.62113127,17.5741729 L5.17716115,17.5741729 L5.17716115,14.6510139 C5.17716115,14.2283885 5.21237994,13.6296692 5.21237994,13.6296692 L5.21237994,13.6296692 C5.21237994,13.6296692 4.96584845,13.9114194 4.71931697,14.1931697 L4.4375667,14.47492 L3.55709712,13.6296692 L5.63500534,11.5165422 L6.65635005,11.5165422 L6.65635005,17.5741729 L6.62113127,17.5741729 Z M12.2209178,17.715048 C10.8826041,17.715048 9.89647812,16.905016 9.89647812,15.8484525 C9.89647812,15.0032017 10.5304162,14.47492 11.0939168,14.3340448 L11.0939168,14.3340448 C10.7769477,14.2636073 10.1782284,13.7705443 10.1782284,12.9957311 C10.1782284,12.0800427 11.0234792,11.3404482 12.2209178,11.3404482 C13.4183565,11.3404482 14.2636073,12.0448239 14.2636073,12.9957311 C14.2636073,13.7353255 13.6648879,14.2636073 13.3479189,14.3340448 L13.3479189,14.3340448 C13.9114194,14.47492 14.5453575,15.0032017 14.5453575,15.8484525 C14.5453575,16.8697972 13.5592316,17.6798292 12.2209178,17.715048 Z M22.0469584,12.3265742 L19.1237994,17.5741729 L17.5741729,17.5741729 L19.4407684,14.298826 C19.8633938,13.5944504 20.3564568,12.8548559 20.3564568,12.8196371 L20.3564568,12.8196371 C20.3564568,12.8196371 19.7929562,12.8548559 19.4759872,12.8548559 L17.4332978,12.8548559 L17.4332978,11.4813234 L22.0821772,11.4813234 L22.0821772,12.3265742 L22.0469584,12.3265742 Z M26.8014941,17.6798292 C25.4983991,17.6798292 24.4066169,16.8697972 24.4066169,15.5314835 C24.4066169,14.5805763 24.864461,13.8762006 25.4983991,13.0309498 L26.660619,11.4813234 L28.2454642,11.4813234 L26.6254002,13.6296692 L26.6254002,13.6296692 C26.6958378,13.5592316 26.8014941,13.4535752 27.1184632,13.4535752 C28.4215582,13.4535752 29.1611526,14.4397012 29.1611526,15.601921 C29.1963714,16.8697972 28.1750267,17.6798292 26.8014941,17.6798292 Z" id="Shape"></path>
                    </g>
                </g>
                <path d="M99.1408751,171.163287 C78.7139808,171.163287 58.9210245,163.83778 43.4247599,150.560299 C28.1045891,137.423693 17.8911419,119.2508 14.6510139,99.4226254 L18.8068303,98.7534685 C21.8708645,117.595518 31.5912487,134.852721 46.1366062,147.35539 C60.8580576,159.998933 79.6648879,166.972252 99.1056564,166.972252 C118.264674,166.972252 136.860192,160.175027 151.475987,147.883671 C165.915688,135.697972 175.741729,118.828175 179.122732,100.338314 L179.686233,97.9786553 L183.701174,98.506937 L183.24333,101.113127 C179.686233,120.553895 169.367129,138.304162 154.152615,151.088581 C138.867663,164.013874 119.286019,171.163287 99.1408751,171.163287 Z" id="Path"></path>
                <path d="M180.073639,79.4183565 C178.559232,58.9914621 169.437567,40.0437567 154.399146,26.0618997 C139.290288,11.9743863 119.602988,4.226254 98.9295624,4.226254 C78.5026681,4.226254 58.9562433,11.8335112 43.9178228,25.6392743 C28.9850587,39.3745998 19.7225187,58.0053362 17.8911419,78.1152615 L13.7001067,77.7278549 C15.6371398,56.5613661 25.357524,36.9445037 41.0651014,22.5048026 C56.9135539,7.99466382 77.4461046,0 98.9295624,0 C120.659552,0 141.368196,8.13553895 157.287086,22.9626467 C173.10032,37.6840982 182.679829,57.6179296 184.299893,79.1013874 L180.073639,79.4183565 Z" id="Path"></path>
            </g>
        </g>
    </g>
</svg>