<svg height="124" viewBox="0 0 156 124" width="156" xmlns="http://www.w3.org/2000/svg"><path d="m60.45 94.35625 50.375-32.74375-50.375-32.74375zm-48.825 29.64375c-3.1 0-5.8125-1.1625-8.1375-3.4875s-3.4875-5.0375-3.4875-8.1375v-100.75c0-3.1 1.1625-5.8125 3.4875-8.1375s5.0375-3.4875 8.1375-3.4875h131.75c3.1 0 5.8125 1.1625 8.1375 3.4875s3.4875 5.0375 3.4875 8.1375v100.75c0 3.1-1.1625 5.8125-3.4875 8.1375s-5.0375 3.4875-8.1375 3.4875zm0-11.625h131.75v-100.75h-131.75zm0 0v-100.75z" fill="#f2e3b4" transform="translate(.362542)"/></svg>