<?xml version="1.0" encoding="UTF-8"?>
<svg width="31px" height="25px" viewBox="0 0 31 25" version="1.1" xmlns="http://www.w3.org/2000/svg" xmlns:xlink="http://www.w3.org/1999/xlink">
    <title>twitter-logo</title>
    <g id="Designs" stroke="none" stroke-width="1" fill="none" fill-rule="evenodd">
        <g id="MPLS-Home" transform="translate(-757.000000, -4303.000000)" fill="#FCF6E8" fill-rule="nonzero">
            <g id="Group" transform="translate(651.637458, 4300.000000)">
                <g id="twitter-logo" transform="translate(106.000000, 3.000000)">
                    <path d="M26.9175,6.09828125 C28.1375,5.23203125 29.16375,4.15078125 30,2.90578125 L30,2.90453125 C28.88375,3.39328125 27.69625,3.71828125 26.45625,3.87578125 C27.73125,3.11453125 28.705,1.91828125 29.1625,0.47703125 C27.97375,1.18578125 26.66125,1.68578125 25.2625,1.96578125 C24.13375,0.76328125 22.525,0.01953125 20.77,0.01953125 C17.365,0.01953125 14.62375,2.78328125 14.62375,6.17078125 C14.62375,6.65828125 14.665,7.12703125 14.76625,7.57328125 C9.65375,7.32328125 5.12875,4.87328125 2.08875,1.13953125 C1.55875,2.06078125 1.24625,3.11453125 1.24625,4.24828125 C1.24625,6.37828125 2.3425,8.26578125 3.97875,9.35953125 C2.99,9.34078125 2.02125,9.05328125 1.2,8.60203125 L1.2,8.66953125 C1.2,11.6582812 3.33125,14.1407812 6.1275,14.7132812 C5.62625,14.8507812 5.08125,14.9157812 4.515,14.9157812 C4.12125,14.9157812 3.72375,14.8932812 3.35125,14.8107812 C4.1475,17.2457812 6.41,19.0370312 9.0975,19.0957812 C7.005,20.7320313 4.3475,21.7182812 1.47125,21.7182812 C0.9675,21.7182812 0.48375,21.6957812 -3.33066907e-15,21.6345312 C2.725,23.3907812 5.9525,24.3945312 9.435,24.3945312 C20.28875,24.3945312 27.3625,15.3395312 26.9175,6.09828125 Z" id="Path"></path>
                </g>
            </g>
        </g>
    </g>
</svg>