<?xml version="1.0" encoding="UTF-8"?>
<svg width="31px" height="30px" viewBox="0 0 31 30" version="1.1" xmlns="http://www.w3.org/2000/svg" xmlns:xlink="http://www.w3.org/1999/xlink">
    <title>Pesticide Free</title>
    <g id="Designs" stroke="none" stroke-width="1" fill="none" fill-rule="evenodd">
        <g id="MPLS-Vendor-List-Filters" transform="translate(-450.000000, -1201.000000)">
            <g id="Vendor-info-Copy-3" transform="translate(150.000000, 939.000000)">
                <g id="Zero-Pesticides" transform="translate(301.000000, 263.000000)">
                    <path d="M18.568084,26.9862648 C19.3725378,27.0640298 18.5899244,10.5455919 19.5363406,10.5455919 C20.5769021,10.5455919 19.8732118,27.0555915 20.7425249,26.9619426 C40.335492,24.85021 19.5363406,0 19.5363406,0 C19.5363406,0 -1.44349029,25.050248 18.568084,26.9862648 Z" id="Fill-1" fill="#304939"></path>
                    <path d="M19.5363406,0 C19.5363406,0 -1.44349029,25.050248 18.568084,26.9862648 C19.3725378,27.0640298 18.5899244,10.5455919 19.5363406,10.5455919 C20.5769021,10.5455919 19.8732118,27.0555915 20.7425249,26.9619426 C40.335492,24.85021 19.5363406,0 19.5363406,0 Z" id="Stroke-3" stroke="#FFFEFB"></path>
                    <path d="M1.1970772,6.45219271 C1.1970772,6.45219271 -4.98987077,33.2566199 10.7671323,27.0741393 C11.4005032,26.8256223 4.51052678,14.7275438 5.22083533,14.3663503 C6.00179419,13.9692526 11.7729478,26.6282316 12.3897729,26.2261702 C26.2880277,17.1657238 1.1970772,6.45219271 1.1970772,6.45219271" id="Fill-5" fill="#304939"></path>
                    <path d="M1.1970772,6.45219271 C1.1970772,6.45219271 -4.98987077,33.2566199 10.7671323,27.0741393 C11.4005032,26.8256223 4.51052678,14.7275438 5.22083533,14.3663503 C6.00179419,13.9692526 11.7729478,26.6282316 12.3897729,26.2261702 C26.2880277,17.1657238 1.1970772,6.45219271 1.1970772,6.45219271 Z" id="Stroke-7" stroke="#FFFEFB"></path>
                </g>
            </g>
        </g>
    </g>
</svg>